<svg width="1920" height="2474" viewBox="0 0 1920 2474" fill="none" xmlns="http://www.w3.org/2000/svg">
<path d="M112.304 0V2472.83M1920 144.64L0 144.64M225.962 0V2472.83M1920 291.023L0 291.023M338.266 0V2472.83M1920 435.664L0 435.664M451.924 0V2472.83M1920 582.047L0 582.047M564.228 0V2472.83M1920 726.687L0 726.687M677.886 0V2472.83M1920 873.07L0 873.07M790.19 0V2472.83M1920 1017.71L0 1017.71M903.848 0V2472.83M1920 1164.09L0 1164.09M1016.15 0V2472.83M1920 1308.73L0 1308.73M1129.81 0V2472.83M1920 1455.12L0 1455.12M1242.11 0V2472.83M1920 1599.76L0 1599.76M1355.77 0V2472.83M1920 1746.14L0 1746.14M1468.08 0V2472.83M1920 1890.78L0 1890.78M1581.73 0V2472.83M1920 2037.16L0 2037.16M1694.04 0V2472.83M1920 2181.8L0 2181.8M1807.7 0V2472.83M1920 2328.19L0 2328.19M0 0V2472.83H1920V0H0Z" stroke="url(#paint0_linear_0_5)" stroke-opacity="0.1" stroke-width="1.04304"/>
<defs>
<linearGradient id="paint0_linear_0_5" x1="960" y1="1.90132e-06" x2="1001.08" y2="1390.93" gradientUnits="userSpaceOnUse">
<stop stop-color="#0085FF"/>
<stop offset="1" stop-color="#0085FF" stop-opacity="0"/>
</linearGradient>
</defs>
</svg>
