<svg width="13" height="13" viewBox="0 0 13 13" fill="none" xmlns="http://www.w3.org/2000/svg">
<g clip-path="url(#clip0_0_1)">
<mask id="mask0_0_1" style="mask-type:luminance" maskUnits="userSpaceOnUse" x="0" y="0" width="13" height="13">
<path d="M12.5 0H0V12.5H12.5V0Z" fill="white"/>
</mask>
<g mask="url(#mask0_0_1)">
<mask id="mask1_0_1" style="mask-type:luminance" maskUnits="userSpaceOnUse" x="0" y="0" width="13" height="13">
<path d="M12.5 0H0V12.5H12.5V0Z" fill="white"/>
</mask>
<g mask="url(#mask1_0_1)">
<path d="M6.25 12.5C2.80369 12.5 0 9.69631 0 6.25C0 2.80369 2.80369 0 6.25 0C9.69631 0 12.5 2.80369 12.5 6.25C12.5 9.69631 9.69631 12.5 6.25 12.5Z" fill="#DB0FC7"/>
<path d="M6.46163 9.09091H6.03805C5.68435 9.09091 5.39771 8.80426 5.39771 8.45028V3.76563C5.39771 3.41165 5.68435 3.125 6.03833 3.125H6.46191C6.8156 3.125 7.10225 3.41165 7.10225 3.76563V8.45057C7.10225 8.80426 6.8156 9.09091 6.46163 9.09091Z" fill="#FBD490"/>
<path d="M6.25 12.5C2.80369 12.5 0 9.69631 0 6.25C0 2.80369 2.80369 0 6.25 0C9.69631 0 12.5 2.80369 12.5 6.25C12.5 9.69631 9.69631 12.5 6.25 12.5Z" fill="#DB0FC7"/>
<path d="M6.46163 9.09091H6.03805C5.68435 9.09091 5.39771 8.80426 5.39771 8.45028V3.76563C5.39771 3.41165 5.68435 3.125 6.03833 3.125H6.46191C6.8156 3.125 7.10225 3.41165 7.10225 3.76563V8.45057C7.10225 8.80426 6.8156 9.09091 6.46163 9.09091Z" fill="#101010"/>
</g>
</g>
</g>
<defs>
<clipPath id="clip0_0_1">
<rect width="13" height="13" fill="white"/>
</clipPath>
</defs>
</svg>
