<svg width="22" height="22" viewBox="0 0 22 22" fill="none" xmlns="http://www.w3.org/2000/svg">
<path d="M4.53229 20.1668H17.2228C17.7036 20.1668 18.1647 19.9758 18.5047 19.6358C18.8447 19.2959 19.0357 18.8347 19.0357 18.3539V10.1957C19.0364 10.0765 19.0135 9.95819 18.9684 9.84775C18.9233 9.73731 18.8568 9.63686 18.7728 9.55216L11.5211 2.30046C11.3513 2.13163 11.1215 2.03687 10.8821 2.03687C10.6426 2.03687 10.4128 2.13163 10.243 2.30046L2.9913 9.55216C2.90565 9.63611 2.83751 9.73623 2.79083 9.8467C2.74415 9.95718 2.71986 10.0758 2.71936 10.1957V18.3539C2.71936 18.8347 2.91036 19.2959 3.25035 19.6358C3.59034 19.9758 4.05147 20.1668 4.53229 20.1668ZM9.0646 18.3539V13.8216H12.6904V18.3539H9.0646ZM4.53229 10.5674L10.8775 4.22216L17.2228 10.5674V18.3539H14.5034V13.8216C14.5034 13.3408 14.3124 12.8797 13.9724 12.5397C13.6324 12.1997 13.1713 12.0087 12.6904 12.0087H9.0646C8.58378 12.0087 8.12266 12.1997 7.78267 12.5397C7.44268 12.8797 7.25167 13.3408 7.25167 13.8216V18.3539H4.53229V10.5674Z" fill="#0085FF"/>
</svg>
