<svg width="22" height="22" viewBox="0 0 22 22" fill="none" xmlns="http://www.w3.org/2000/svg">
<path d="M4.81293 18.1299H17.5034C17.9842 18.1299 18.4453 17.9389 18.7853 17.5989C19.1253 17.259 19.3163 16.7978 19.3163 16.317V8.15883C19.317 8.03963 19.2941 7.92132 19.249 7.81088C19.2039 7.70044 19.1374 7.59999 19.0534 7.51529L11.8017 0.26359C11.6319 0.0947601 11.4021 0 11.1627 0C10.9232 0 10.6934 0.0947601 10.5236 0.26359L3.27194 7.51529C3.18629 7.59924 3.11815 7.69936 3.07147 7.80983C3.02479 7.92031 3.0005 8.03893 3 8.15883V16.317C3 16.7978 3.191 17.259 3.53099 17.5989C3.87098 17.9389 4.33211 18.1299 4.81293 18.1299ZM9.34524 16.317V11.7847H12.971V16.317H9.34524ZM4.81293 8.53053L11.1581 2.18529L17.5034 8.53053V16.317H14.784V11.7847C14.784 11.3039 14.593 10.8428 14.253 10.5028C13.913 10.1628 13.4519 9.97183 12.971 9.97183H9.34524C8.86442 9.97183 8.4033 10.1628 8.06331 10.5028C7.72332 10.8428 7.53231 11.3039 7.53231 11.7847V16.317H4.81293V8.53053Z" fill="#DB0FC7"/>
</svg>
