<svg width="113" height="63" viewBox="0 0 113 63" fill="none" xmlns="http://www.w3.org/2000/svg">
<rect width="113" height="63" rx="10" fill="#3C3D3F" fill-opacity="0.12"/>
<path d="M63.8267 38H61.4972L66.7315 23.4545H69.267L74.5014 38H72.1719L68.0597 26.0966H67.946L63.8267 38ZM64.2173 32.304H71.7741V34.1506H64.2173V32.304ZM81.1107 38H76.4019V23.4545H81.2599C82.6851 23.4545 83.909 23.7457 84.9317 24.3281C85.9545 24.9058 86.7381 25.7367 87.2826 26.821C87.8318 27.9006 88.1065 29.1955 88.1065 30.706C88.1065 32.2211 87.8295 33.5232 87.2755 34.6122C86.7263 35.7012 85.9308 36.5393 84.8891 37.1264C83.8475 37.7088 82.588 38 81.1107 38ZM78.5965 36.0824H80.99C82.0979 36.0824 83.0189 35.8741 83.7528 35.4574C84.4867 35.036 85.0359 34.4276 85.4005 33.6321C85.7651 32.8319 85.9474 31.8565 85.9474 30.706C85.9474 29.5649 85.7651 28.5966 85.4005 27.8011C85.0406 27.0057 84.5032 26.402 83.7883 25.9901C83.0733 25.5781 82.1855 25.3722 81.1249 25.3722H78.5965V36.0824ZM91.1415 38H88.812L94.0464 23.4545H96.5819L101.816 38H99.4867L95.3745 26.0966H95.2609L91.1415 38ZM91.5322 32.304H99.089V34.1506H91.5322V32.304Z" fill="white"/>
<path fill-rule="evenodd" clip-rule="evenodd" d="M31.9997 12.155L45.3197 19.845C45.9277 20.1961 46.4327 20.701 46.7838 21.3091C47.1348 21.9172 47.3197 22.6069 47.3197 23.309V38.691C47.3197 39.3932 47.1348 40.0829 46.7838 40.691C46.4327 41.299 45.9277 41.804 45.3197 42.155L31.9997 49.845C31.3916 50.1961 30.7018 50.3809 29.9997 50.3809C29.2975 50.3809 28.6078 50.1961 27.9997 49.845L14.6797 42.155C14.0716 41.804 13.5667 41.299 13.2156 40.691C12.8645 40.0829 12.6797 39.3932 12.6797 38.691V23.309C12.6797 22.6069 12.8645 21.9172 13.2156 21.3091C13.5667 20.701 14.0716 20.1961 14.6797 19.845L27.9997 12.155C28.6078 11.804 29.2975 11.6191 29.9997 11.6191C30.7018 11.6191 31.3916 11.804 31.9997 12.155Z" fill="url(#paint0_linear_0_1201)"/>
<path fill-rule="evenodd" clip-rule="evenodd" d="M34.1958 37.417C33.0198 37.842 31.9288 37.681 31.4438 37.617C31.2048 37.586 30.8008 37.512 30.3698 37.423L29.6548 40.09L28.0128 39.65L28.7158 37.026L27.4658 36.691L26.7628 39.315L25.1208 38.875L25.8238 36.251L22.5938 35.385L23.4598 33.503L24.4418 33.767C24.7718 33.855 24.9178 33.861 25.0908 33.768C25.2638 33.674 25.3478 33.483 25.3908 33.322L27.2108 26.528C27.3258 26.102 27.3218 25.978 27.1848 25.707C27.0478 25.435 26.5947 25.283 26.3358 25.214L25.3868 24.959L25.8438 23.255L29.0738 24.12L29.7788 21.488L31.4208 21.928L30.7158 24.56L31.9658 24.895L32.6718 22.263L34.3138 22.703L33.5998 25.367C34.8038 25.771 35.6528 26.248 36.2898 27.049C37.1148 28.084 36.7078 29.389 36.5998 29.698C36.4928 30.006 36.1928 30.575 35.8118 30.892C35.4308 31.21 34.6508 31.42 34.6508 31.42C34.6508 31.42 35.4028 31.803 35.8508 32.375C36.2968 32.947 36.5128 33.802 36.1968 34.885C35.8828 35.969 35.3698 36.991 34.1958 37.417ZM30.7878 31.717C30.1775 31.5214 29.5581 31.3555 28.9318 31.22L27.9878 34.742C27.9878 34.742 29.0708 35.057 29.8148 35.199C30.5578 35.34 31.3588 35.358 31.7908 35.251C32.2208 35.144 32.7608 34.943 32.9768 34.138C33.1928 33.332 32.7468 32.851 32.4798 32.615C32.2148 32.379 31.5868 31.989 30.7878 31.718V31.717ZM30.7348 29.952C31.3398 30.089 32.0138 30.122 32.5418 29.992C33.0698 29.862 33.4378 29.532 33.5828 28.93C33.7278 28.328 33.4648 27.714 32.8448 27.326C32.2248 26.938 31.7768 26.801 31.2648 26.656C30.7528 26.511 30.2188 26.416 30.2188 26.416L29.3688 29.586C29.3688 29.586 30.1308 29.814 30.7348 29.952Z" fill="white"/>
<path fill-rule="evenodd" clip-rule="evenodd" d="M31.9997 12.155L45.3197 19.845C45.9277 20.1961 46.4327 20.701 46.7838 21.3091C47.1348 21.9172 47.3197 22.6069 47.3197 23.309V38.691C47.3197 39.3932 47.1348 40.0829 46.7838 40.691C46.4327 41.299 45.9277 41.804 45.3197 42.155L31.9997 49.845C31.3916 50.1961 30.7018 50.3809 29.9997 50.3809C29.2975 50.3809 28.6078 50.1961 27.9997 49.845L14.6797 42.155C14.0716 41.804 13.5667 41.299 13.2156 40.691C12.8645 40.0829 12.6797 39.3932 12.6797 38.691V23.309C12.6797 22.6069 12.8645 21.9172 13.2156 21.3091C13.5667 20.701 14.0716 20.1961 14.6797 19.845L27.9997 12.155C28.6078 11.804 29.2975 11.6191 29.9997 11.6191C30.7018 11.6191 31.3916 11.804 31.9997 12.155Z" fill="url(#paint1_linear_0_1201)"/>
<path d="M29.9607 39.076C30.1072 39.076 30.2477 39.1342 30.3514 39.2378C30.455 39.3414 30.5132 39.482 30.5132 39.6285C30.5132 39.775 30.455 39.9156 30.3514 40.0192C30.2477 40.1228 30.1072 40.181 29.9607 40.181C29.8142 40.181 29.6736 40.1228 29.57 40.0192C29.4664 39.9156 29.4082 39.775 29.4082 39.6285C29.4082 39.482 29.4664 39.3414 29.57 39.2378C29.6736 39.1342 29.8142 39.076 29.9607 39.076ZM25.2377 38.789C25.3564 38.789 25.4702 38.8362 25.5541 38.9201C25.638 39.004 25.6852 39.1178 25.6852 39.2365C25.6852 39.3552 25.638 39.469 25.5541 39.5529C25.4702 39.6369 25.3564 39.684 25.2377 39.684C25.119 39.684 25.0052 39.6369 24.9213 39.5529C24.8373 39.469 24.7902 39.3552 24.7902 39.2365C24.7902 39.1178 24.8373 39.004 24.9213 38.9201C25.0052 38.8362 25.119 38.789 25.2377 38.789ZM34.7957 38.771C34.8544 38.771 34.9125 38.7826 34.9667 38.805C35.021 38.8275 35.0703 38.8604 35.1118 38.9019C35.1533 38.9434 35.1862 38.9927 35.2087 39.047C35.2311 39.1012 35.2427 39.1593 35.2427 39.218C35.2427 39.2767 35.2311 39.3348 35.2087 39.3891C35.1862 39.4433 35.1533 39.4926 35.1118 39.5341C35.0703 39.5756 35.021 39.6085 34.9667 39.631C34.9125 39.6535 34.8544 39.665 34.7957 39.665C34.6771 39.665 34.5634 39.6179 34.4796 39.5341C34.3958 39.4503 34.3487 39.3366 34.3487 39.218C34.3487 39.0995 34.3958 38.9858 34.4796 38.9019C34.5634 38.8181 34.6771 38.771 34.7957 38.771ZM26.4917 36.374C26.6731 36.374 26.8471 36.4461 26.9753 36.5744C27.1036 36.7026 27.1757 36.8766 27.1757 37.058C27.1757 37.2394 27.1036 37.4134 26.9753 37.5417C26.8471 37.6699 26.6731 37.742 26.4917 37.742C26.3103 37.742 26.1363 37.6699 26.008 37.5417C25.8798 37.4134 25.8077 37.2394 25.8077 37.058C25.8077 36.8766 25.8798 36.7026 26.008 36.5744C26.1363 36.4461 26.3103 36.374 26.4917 36.374ZM33.5307 36.369C33.6205 36.369 33.7095 36.3867 33.7924 36.4211C33.8754 36.4555 33.9508 36.5058 34.0143 36.5694C34.0779 36.6329 34.1282 36.7083 34.1626 36.7913C34.197 36.8742 34.2147 36.9632 34.2147 37.053C34.2147 37.1428 34.197 37.2318 34.1626 37.3148C34.1282 37.3978 34.0779 37.4732 34.0143 37.5367C33.9508 37.6002 33.8754 37.6506 33.7924 37.6849C33.7095 37.7193 33.6205 37.737 33.5307 37.737C33.3493 37.737 33.1753 37.6649 33.047 37.5367C32.9188 37.4084 32.8467 37.2344 32.8467 37.053C32.8467 36.8716 32.9188 36.6976 33.047 36.5694C33.1753 36.4411 33.3493 36.369 33.5307 36.369ZM29.9727 35.604C30.0796 35.5986 30.1866 35.615 30.287 35.6523C30.3874 35.6895 30.4792 35.7467 30.5568 35.8205C30.6344 35.8943 30.6962 35.9831 30.7384 36.0815C30.7807 36.18 30.8024 36.2859 30.8024 36.393C30.8024 36.5001 30.7807 36.6061 30.7384 36.7045C30.6962 36.8029 30.6344 36.8917 30.5568 36.9655C30.4792 37.0393 30.3874 37.0965 30.287 37.1338C30.1866 37.171 30.0796 37.1874 29.9727 37.182C29.7703 37.1718 29.5796 37.0842 29.4399 36.9374C29.3003 36.7905 29.2224 36.5957 29.2224 36.393C29.2224 36.1904 29.3003 35.9955 29.4399 35.8486C29.5796 35.7018 29.7703 35.6142 29.9727 35.604ZM22.5047 34.764C22.6512 34.764 22.7917 34.8222 22.8954 34.9258C22.999 35.0295 23.0572 35.17 23.0572 35.3165C23.0572 35.463 22.999 35.6036 22.8954 35.7072C22.7917 35.8108 22.6512 35.869 22.5047 35.869C22.3582 35.869 22.2176 35.8108 22.114 35.7072C22.0104 35.6036 21.9522 35.463 21.9522 35.3165C21.9522 35.17 22.0104 35.0295 22.114 34.9258C22.2176 34.8222 22.3582 34.764 22.5047 34.764ZM37.5117 34.726C37.6582 34.726 37.7987 34.7842 37.9024 34.8878C38.006 34.9915 38.0642 35.132 38.0642 35.2785C38.0642 35.425 38.006 35.5656 37.9024 35.6692C37.7987 35.7728 37.6582 35.831 37.5117 35.831C37.3652 35.831 37.2246 35.7728 37.121 35.6692C37.0174 35.5656 36.9592 35.425 36.9592 35.2785C36.9592 35.132 37.0174 34.9915 37.121 34.8878C37.2246 34.7842 37.3652 34.726 37.5117 34.726ZM28.4177 32.347C28.7805 32.347 29.1285 32.4911 29.385 32.7477C29.6416 33.0042 29.7857 33.3522 29.7857 33.715C29.7857 34.0778 29.6416 34.4258 29.385 34.6823C29.1285 34.9389 28.7805 35.083 28.4177 35.083C28.0549 35.083 27.7069 34.9389 27.4504 34.6823C27.1938 34.4258 27.0497 34.0778 27.0497 33.715C27.0497 33.3522 27.1938 33.0042 27.4504 32.7477C27.7069 32.4911 28.0549 32.347 28.4177 32.347ZM31.5847 32.334C31.9475 32.334 32.2955 32.4781 32.552 32.7347C32.8086 32.9912 32.9527 33.3392 32.9527 33.702C32.9527 34.0648 32.8086 34.4128 32.552 34.6693C32.2955 34.9259 31.9475 35.07 31.5847 35.07C31.2219 35.07 30.8739 34.9259 30.6174 34.6693C30.3608 34.4128 30.2167 34.0648 30.2167 33.702C30.2167 33.3392 30.3608 32.9912 30.6174 32.7347C30.8739 32.4781 31.2219 32.334 31.5847 32.334ZM25.3067 32.897C25.4136 32.8916 25.5206 32.908 25.621 32.9453C25.7214 32.9825 25.8132 33.0397 25.8908 33.1135C25.9684 33.1873 26.0302 33.2761 26.0724 33.3745C26.1147 33.473 26.1364 33.5789 26.1364 33.686C26.1364 33.7931 26.1147 33.8991 26.0724 33.9975C26.0302 34.0959 25.9684 34.1847 25.8908 34.2585C25.8132 34.3323 25.7214 34.3895 25.621 34.4268C25.5206 34.464 25.4136 34.4804 25.3067 34.475C25.1043 34.4648 24.9136 34.3772 24.7739 34.2304C24.6343 34.0835 24.5564 33.8887 24.5564 33.686C24.5564 33.4834 24.6343 33.2885 24.7739 33.1416C24.9136 32.9948 25.1043 32.9072 25.3067 32.897ZM34.6967 32.869C34.8036 32.8636 34.9106 32.88 35.011 32.9173C35.1114 32.9545 35.2032 33.0117 35.2808 33.0855C35.3584 33.1593 35.4202 33.2481 35.4624 33.3465C35.5047 33.445 35.5264 33.5509 35.5264 33.658C35.5264 33.7651 35.5047 33.8711 35.4624 33.9695C35.4202 34.0679 35.3584 34.1567 35.2808 34.2305C35.2032 34.3043 35.1114 34.3615 35.011 34.3988C34.9106 34.436 34.8036 34.4524 34.6967 34.447C34.4943 34.4368 34.3036 34.3492 34.1639 34.2024C34.0243 34.0555 33.9464 33.8607 33.9464 33.658C33.9464 33.4554 34.0243 33.2605 34.1639 33.1136C34.3036 32.9668 34.4943 32.8792 34.6967 32.869ZM26.8287 29.6C27.1915 29.6 27.5395 29.7441 27.796 30.0007C28.0526 30.2572 28.1967 30.6052 28.1967 30.968C28.1967 31.3308 28.0526 31.6788 27.796 31.9353C27.5395 32.1919 27.1915 32.336 26.8287 32.336C26.4659 32.336 26.1179 32.1919 25.8614 31.9353C25.6048 31.6788 25.4607 31.3308 25.4607 30.968C25.4607 30.6052 25.6048 30.2572 25.8614 30.0007C26.1179 29.7441 26.4659 29.6 26.8287 29.6ZM33.1637 29.585C33.5265 29.585 33.8745 29.7291 34.131 29.9857C34.3876 30.2422 34.5317 30.5902 34.5317 30.953C34.5317 31.3158 34.3876 31.6638 34.131 31.9203C33.8745 32.1769 33.5265 32.321 33.1637 32.321C32.8009 32.321 32.4529 32.1769 32.1964 31.9203C31.9398 31.6638 31.7957 31.3158 31.7957 30.953C31.7957 30.5902 31.9398 30.2422 32.1964 29.9857C32.4529 29.7291 32.8009 29.585 33.1637 29.585ZM22.9487 30.297C23.0385 30.297 23.1275 30.3147 23.2104 30.3491C23.2934 30.3835 23.3688 30.4338 23.4323 30.4974C23.4959 30.5609 23.5462 30.6363 23.5806 30.7193C23.615 30.8022 23.6327 30.8912 23.6327 30.981C23.6327 31.0708 23.615 31.1598 23.5806 31.2428C23.5462 31.3258 23.4959 31.4012 23.4323 31.4647C23.3688 31.5282 23.2934 31.5786 23.2104 31.6129C23.1275 31.6473 23.0385 31.665 22.9487 31.665C22.7673 31.665 22.5933 31.5929 22.465 31.4647C22.3368 31.3364 22.2647 31.1624 22.2647 30.981C22.2647 30.7996 22.3368 30.6256 22.465 30.4974C22.5933 30.3691 22.7673 30.297 22.9487 30.297ZM37.0397 30.262C37.1316 30.2585 37.2234 30.2736 37.3094 30.3063C37.3954 30.3391 37.4739 30.3889 37.5402 30.4527C37.6065 30.5165 37.6592 30.593 37.6952 30.6777C37.7313 30.7624 37.7498 30.8535 37.7498 30.9455C37.7498 31.0375 37.7313 31.1286 37.6952 31.2133C37.6592 31.298 37.6065 31.3745 37.5402 31.4383C37.4739 31.5021 37.3954 31.5519 37.3094 31.5847C37.2234 31.6175 37.1316 31.6325 37.0397 31.629C36.8629 31.6223 36.6957 31.5473 36.573 31.4198C36.4504 31.2924 36.3818 31.1224 36.3818 30.9455C36.3818 30.7686 36.4504 30.5986 36.573 30.4712C36.6957 30.3437 36.8629 30.2688 37.0397 30.262ZM20.4397 30.542C20.5584 30.542 20.6722 30.5892 20.7561 30.6731C20.84 30.757 20.8872 30.8708 20.8872 30.9895C20.8872 31.1082 20.84 31.222 20.7561 31.3059C20.6722 31.3899 20.5584 31.437 20.4397 31.437C20.321 31.437 20.2072 31.3899 20.1233 31.3059C20.0393 31.222 19.9922 31.1082 19.9922 30.9895C19.9922 30.8708 20.0393 30.757 20.1233 30.6731C20.2072 30.5892 20.321 30.542 20.4397 30.542ZM39.5457 30.51C39.6642 30.51 39.7779 30.5571 39.8618 30.6409C39.9456 30.7248 39.9927 30.8385 39.9927 30.957C39.9927 31.0756 39.9456 31.1893 39.8618 31.2731C39.7779 31.3569 39.6642 31.404 39.5457 31.404C39.4271 31.404 39.3134 31.3569 39.2296 31.2731C39.1458 31.1893 39.0987 31.0756 39.0987 30.957C39.0987 30.8385 39.1458 30.7248 39.2296 30.6409C39.3134 30.5571 39.4271 30.51 39.5457 30.51ZM28.4057 26.856C28.5884 26.8511 28.7702 26.8828 28.9404 26.9493C29.1107 27.0158 29.2659 27.1157 29.3968 27.2432C29.5278 27.3707 29.6319 27.5231 29.703 27.6915C29.774 27.8598 29.8107 28.0408 29.8107 28.2235C29.8107 28.4063 29.774 28.5872 29.703 28.7556C29.6319 28.9239 29.5278 29.0764 29.3968 29.2038C29.2659 29.3313 29.1107 29.4312 28.9404 29.4977C28.7702 29.5642 28.5884 29.596 28.4057 29.591C28.0494 29.5814 27.711 29.4331 27.4624 29.1777C27.2138 28.9223 27.0747 28.5799 27.0747 28.2235C27.0747 27.8671 27.2138 27.5248 27.4624 27.2694C27.711 27.014 28.0494 26.8656 28.4057 26.856ZM31.5727 26.845C31.7554 26.8401 31.9372 26.8718 32.1074 26.9383C32.2777 27.0048 32.4329 27.1047 32.5638 27.2322C32.6948 27.3597 32.7989 27.5121 32.87 27.6805C32.9411 27.8488 32.9777 28.0298 32.9777 28.2125C32.9777 28.3953 32.9411 28.5762 32.87 28.7446C32.7989 28.9129 32.6948 29.0654 32.5638 29.1928C32.4329 29.3203 32.2777 29.4202 32.1074 29.4867C31.9372 29.5532 31.7554 29.585 31.5727 29.58C31.2164 29.5704 30.878 29.4221 30.6294 29.1667C30.3808 28.9113 30.2417 28.5689 30.2417 28.2125C30.2417 27.8561 30.3808 27.5138 30.6294 27.2584C30.878 27.003 31.2164 26.8546 31.5727 26.845ZM25.2977 27.471C25.4046 27.4656 25.5116 27.482 25.612 27.5193C25.7124 27.5565 25.8042 27.6137 25.8818 27.6875C25.9594 27.7613 26.0212 27.8501 26.0634 27.9485C26.1057 28.047 26.1274 28.1529 26.1274 28.26C26.1274 28.3671 26.1057 28.4731 26.0634 28.5715C26.0212 28.6699 25.9594 28.7587 25.8818 28.8325C25.8042 28.9063 25.7124 28.9635 25.612 29.0008C25.5116 29.038 25.4046 29.0544 25.2977 29.049C25.0953 29.0388 24.9046 28.9512 24.7649 28.8044C24.6253 28.6575 24.5474 28.4627 24.5474 28.26C24.5474 28.0574 24.6253 27.8625 24.7649 27.7156C24.9046 27.5688 25.0953 27.4812 25.2977 27.471ZM34.6947 27.454C34.8007 27.4502 34.9064 27.4679 35.0055 27.5058C35.1046 27.5438 35.195 27.6014 35.2714 27.6751C35.3477 27.7487 35.4085 27.837 35.4499 27.9347C35.4914 28.0324 35.5128 28.1374 35.5128 28.2435C35.5128 28.3496 35.4914 28.4546 35.4499 28.5523C35.4085 28.65 35.3477 28.7383 35.2714 28.812C35.195 28.8857 35.1046 28.9432 35.0055 28.9812C34.9064 29.0192 34.8007 29.0368 34.6947 29.033C34.4902 29.0257 34.2964 28.9394 34.1543 28.7921C34.0122 28.6448 33.9328 28.4482 33.9328 28.2435C33.9328 28.0389 34.0122 27.8422 34.1543 27.6949C34.2964 27.5477 34.4902 27.4613 34.6947 27.454ZM22.4877 26.09C22.6342 26.09 22.7748 26.1482 22.8784 26.2518C22.982 26.3555 23.0402 26.496 23.0402 26.6425C23.0402 26.789 22.982 26.9296 22.8784 27.0332C22.7748 27.1368 22.6342 27.195 22.4877 27.195C22.3412 27.195 22.2006 27.1368 22.097 27.0332C21.9934 26.9296 21.9352 26.789 21.9352 26.6425C21.9352 26.496 21.9934 26.3555 22.097 26.2518C22.2006 26.1482 22.3412 26.09 22.4877 26.09ZM37.4917 26.064C37.6382 26.064 37.7787 26.1222 37.8824 26.2258C37.986 26.3295 38.0442 26.47 38.0442 26.6165C38.0442 26.763 37.986 26.9036 37.8824 27.0072C37.7787 27.1108 37.6382 27.169 37.4917 27.169C37.3452 27.169 37.2046 27.1108 37.101 27.0072C36.9974 26.9036 36.9392 26.763 36.9392 26.6165C36.9392 26.47 36.9974 26.3295 37.101 26.2258C37.2046 26.1222 37.3452 26.064 37.4917 26.064ZM29.9837 24.749C30.0906 24.7436 30.1976 24.76 30.298 24.7973C30.3984 24.8345 30.4902 24.8917 30.5678 24.9655C30.6454 25.0393 30.7072 25.1281 30.7494 25.2265C30.7917 25.325 30.8134 25.4309 30.8134 25.538C30.8134 25.6451 30.7917 25.7511 30.7494 25.8495C30.7072 25.9479 30.6454 26.0367 30.5678 26.1105C30.4902 26.1843 30.3984 26.2415 30.298 26.2788C30.1976 26.316 30.0906 26.3324 29.9837 26.327C29.7813 26.3168 29.5906 26.2292 29.4509 26.0824C29.3113 25.9355 29.2334 25.7407 29.2334 25.538C29.2334 25.3354 29.3113 25.1405 29.4509 24.9936C29.5906 24.8468 29.7813 24.7592 29.9837 24.749ZM26.4687 24.193C26.5606 24.1895 26.6524 24.2046 26.7384 24.2373C26.8244 24.2701 26.9029 24.3199 26.9692 24.3837C27.0355 24.4475 27.0882 24.524 27.1242 24.6087C27.1603 24.6934 27.1788 24.7845 27.1788 24.8765C27.1788 24.9685 27.1603 25.0596 27.1242 25.1443C27.0882 25.229 27.0355 25.3055 26.9692 25.3693C26.9029 25.4331 26.8244 25.4829 26.7384 25.5157C26.6524 25.5485 26.5606 25.5635 26.4687 25.56C26.2919 25.5533 26.1247 25.4783 26.002 25.3508C25.8794 25.2234 25.8108 25.0534 25.8108 24.8765C25.8108 24.6996 25.8794 24.5296 26.002 24.4022C26.1247 24.2747 26.2919 24.1998 26.4687 24.193ZM33.5047 24.183C33.6861 24.183 33.8601 24.2551 33.9883 24.3834C34.1166 24.5116 34.1887 24.6856 34.1887 24.867C34.1887 25.0484 34.1166 25.2224 33.9883 25.3507C33.8601 25.4789 33.6861 25.551 33.5047 25.551C33.3233 25.551 33.1493 25.4789 33.021 25.3507C32.8928 25.2224 32.8207 25.0484 32.8207 24.867C32.8207 24.6856 32.8928 24.5116 33.021 24.3834C33.1493 24.2551 33.3233 24.183 33.5047 24.183ZM25.2097 22.259C25.3284 22.259 25.4422 22.3062 25.5261 22.3901C25.61 22.474 25.6572 22.5878 25.6572 22.7065C25.6572 22.8252 25.61 22.939 25.5261 23.0229C25.4422 23.1069 25.3284 23.154 25.2097 23.154C25.091 23.154 24.9772 23.1069 24.8933 23.0229C24.8093 22.939 24.7622 22.8252 24.7622 22.7065C24.7622 22.5878 24.8093 22.474 24.8933 22.3901C24.9772 22.3062 25.091 22.259 25.2097 22.259ZM34.7477 22.229C34.8664 22.229 34.9802 22.2762 35.0641 22.3601C35.148 22.444 35.1952 22.5578 35.1952 22.6765C35.1952 22.7952 35.148 22.909 35.0641 22.9929C34.9802 23.0769 34.8664 23.124 34.7477 23.124C34.6291 23.124 34.5154 23.0769 34.4316 22.9931C34.3478 22.9093 34.3007 22.7956 34.3007 22.677C34.3007 22.5585 34.3478 22.4448 34.4316 22.3609C34.5154 22.2771 34.6291 22.23 34.7477 22.23V22.229ZM29.9777 21.739C30.1242 21.739 30.2647 21.7972 30.3684 21.9008C30.472 22.0045 30.5302 22.145 30.5302 22.2915C30.5302 22.438 30.472 22.5786 30.3684 22.6822C30.2647 22.7858 30.1242 22.844 29.9777 22.844C29.8312 22.844 29.6906 22.7858 29.587 22.6822C29.4834 22.5786 29.4252 22.438 29.4252 22.2915C29.4252 22.145 29.4834 22.0045 29.587 21.9008C29.6906 21.7972 29.8312 21.739 29.9777 21.739Z" fill="white"/>
<defs>
<linearGradient id="paint0_linear_0_1201" x1="41.553" y1="38.5711" x2="15.9847" y2="23.6461" gradientUnits="userSpaceOnUse">
<stop stop-color="#FF9400"/>
<stop offset="1" stop-color="#FFBB21"/>
</linearGradient>
<linearGradient id="paint1_linear_0_1201" x1="49.5297" y1="56.5572" x2="-5.58665" y2="-3.29269" gradientUnits="userSpaceOnUse">
<stop stop-color="#4A6EC3"/>
<stop offset="1" stop-color="#0033AD"/>
</linearGradient>
</defs>
</svg>
