<svg width="113" height="63" viewBox="0 0 113 63" fill="none" xmlns="http://www.w3.org/2000/svg">
<rect width="113" height="63" rx="10" fill="#3C3D3F" fill-opacity="0.12"/>
<path d="M62.598 38V23.4545H67.9247C68.9569 23.4545 69.8116 23.625 70.4886 23.9659C71.1657 24.3021 71.6723 24.759 72.0085 25.3366C72.3447 25.9096 72.5128 26.5559 72.5128 27.2756C72.5128 27.8816 72.4015 28.393 72.179 28.8097C71.9564 29.2216 71.6581 29.553 71.2841 29.804C70.9148 30.0502 70.5076 30.2301 70.0625 30.3438V30.4858C70.5455 30.5095 71.0166 30.6657 71.4759 30.9545C71.9399 31.2386 72.3234 31.6435 72.6264 32.169C72.9295 32.6946 73.081 33.3338 73.081 34.0866C73.081 34.83 72.9058 35.4976 72.5554 36.0895C72.2098 36.6766 71.6747 37.143 70.9503 37.4886C70.2259 37.8295 69.3002 38 68.1733 38H62.598ZM64.7926 36.1179H67.9602C69.0114 36.1179 69.7642 35.9143 70.2188 35.5071C70.6733 35.0999 70.9006 34.5909 70.9006 33.9801C70.9006 33.5208 70.7846 33.0994 70.5526 32.7159C70.3205 32.3324 69.9891 32.027 69.5582 31.7997C69.1321 31.5724 68.6255 31.4588 68.0384 31.4588H64.7926V36.1179ZM64.7926 29.7472H67.733C68.2254 29.7472 68.6681 29.6525 69.0611 29.4631C69.4588 29.2737 69.7737 29.0085 70.0057 28.6676C70.2424 28.322 70.3608 27.9148 70.3608 27.446C70.3608 26.8447 70.1501 26.3404 69.7287 25.9332C69.3073 25.526 68.661 25.3224 67.7898 25.3224H64.7926V29.7472ZM87.224 23.4545V38H85.207L77.8135 27.3324H77.6786V38H75.4839V23.4545H77.5152L84.9158 34.1364H85.0507V23.4545H87.224ZM90.2254 38V23.4545H95.5521C96.5843 23.4545 97.4389 23.625 98.116 23.9659C98.7931 24.3021 99.2997 24.759 99.6359 25.3366C99.972 25.9096 100.14 26.5559 100.14 27.2756C100.14 27.8816 100.029 28.393 99.8063 28.8097C99.5838 29.2216 99.2855 29.553 98.9114 29.804C98.5421 30.0502 98.1349 30.2301 97.6898 30.3438V30.4858C98.1728 30.5095 98.6439 30.6657 99.1032 30.9545C99.5672 31.2386 99.9507 31.6435 100.254 32.169C100.557 32.6946 100.708 33.3338 100.708 34.0866C100.708 34.83 100.533 35.4976 100.183 36.0895C99.8371 36.6766 99.3021 37.143 98.5776 37.4886C97.8532 37.8295 96.9275 38 95.8006 38H90.2254ZM92.42 36.1179H95.5876C96.6387 36.1179 97.3915 35.9143 97.8461 35.5071C98.3006 35.0999 98.5279 34.5909 98.5279 33.9801C98.5279 33.5208 98.4119 33.0994 98.1799 32.7159C97.9479 32.3324 97.6165 32.027 97.1856 31.7997C96.7594 31.5724 96.2528 31.4588 95.6657 31.4588H92.42V36.1179ZM92.42 29.7472H95.3603C95.8527 29.7472 96.2954 29.6525 96.6884 29.4631C97.0862 29.2737 97.401 29.0085 97.633 28.6676C97.8698 28.322 97.9881 27.9148 97.9881 27.446C97.9881 26.8447 97.7774 26.3404 97.356 25.9332C96.9346 25.526 96.2883 25.3224 95.4171 25.3224H92.42V29.7472Z" fill="white"/>
<path fill-rule="evenodd" clip-rule="evenodd" d="M31.9997 12.155L45.3197 19.845C45.9277 20.1961 46.4327 20.701 46.7838 21.3091C47.1348 21.9172 47.3197 22.6069 47.3197 23.309V38.691C47.3197 39.3932 47.1348 40.0829 46.7838 40.691C46.4327 41.299 45.9277 41.804 45.3197 42.155L31.9997 49.845C31.3916 50.1961 30.7018 50.3809 29.9997 50.3809C29.2975 50.3809 28.6078 50.1961 27.9997 49.845L14.6797 42.155C14.0716 41.804 13.5667 41.299 13.2156 40.691C12.8645 40.0829 12.6797 39.3932 12.6797 38.691V23.309C12.6797 22.6069 12.8645 21.9172 13.2156 21.3091C13.5667 20.701 14.0716 20.1961 14.6797 19.845L27.9997 12.155C28.6078 11.804 29.2975 11.6191 29.9997 11.6191C30.7018 11.6191 31.3916 11.804 31.9997 12.155Z" fill="url(#paint0_linear_0_1111)"/>
<path fill-rule="evenodd" clip-rule="evenodd" d="M34.1958 37.417C33.0198 37.842 31.9288 37.681 31.4438 37.617C31.2048 37.586 30.8008 37.512 30.3698 37.423L29.6548 40.09L28.0128 39.65L28.7158 37.026L27.4658 36.691L26.7628 39.315L25.1208 38.875L25.8238 36.251L22.5938 35.385L23.4598 33.503L24.4418 33.767C24.7718 33.855 24.9178 33.861 25.0908 33.768C25.2638 33.674 25.3478 33.483 25.3908 33.322L27.2108 26.528C27.3258 26.102 27.3218 25.978 27.1848 25.707C27.0478 25.435 26.5947 25.283 26.3358 25.214L25.3868 24.959L25.8438 23.255L29.0738 24.12L29.7788 21.488L31.4208 21.928L30.7158 24.56L31.9658 24.895L32.6718 22.263L34.3138 22.703L33.5998 25.367C34.8038 25.771 35.6528 26.248 36.2898 27.049C37.1148 28.084 36.7078 29.389 36.5998 29.698C36.4928 30.006 36.1928 30.575 35.8118 30.892C35.4308 31.21 34.6508 31.42 34.6508 31.42C34.6508 31.42 35.4028 31.803 35.8508 32.375C36.2968 32.947 36.5128 33.802 36.1968 34.885C35.8828 35.969 35.3698 36.991 34.1958 37.417ZM30.7878 31.717C30.1775 31.5214 29.5581 31.3555 28.9318 31.22L27.9878 34.742C27.9878 34.742 29.0708 35.057 29.8148 35.199C30.5578 35.34 31.3588 35.358 31.7908 35.251C32.2208 35.144 32.7608 34.943 32.9768 34.138C33.1928 33.332 32.7468 32.851 32.4798 32.615C32.2148 32.379 31.5868 31.989 30.7878 31.718V31.717ZM30.7348 29.952C31.3398 30.089 32.0138 30.122 32.5418 29.992C33.0698 29.862 33.4378 29.532 33.5828 28.93C33.7278 28.328 33.4648 27.714 32.8448 27.326C32.2248 26.938 31.7768 26.801 31.2648 26.656C30.7528 26.511 30.2188 26.416 30.2188 26.416L29.3688 29.586C29.3688 29.586 30.1308 29.814 30.7348 29.952Z" fill="white"/>
<path fill-rule="evenodd" clip-rule="evenodd" d="M31.9997 12.155L45.3197 19.845C45.9277 20.1961 46.4327 20.701 46.7838 21.3091C47.1348 21.9172 47.3197 22.6069 47.3197 23.309V38.691C47.3197 39.3932 47.1348 40.0829 46.7838 40.691C46.4327 41.299 45.9277 41.804 45.3197 42.155L31.9997 49.845C31.3916 50.1961 30.7018 50.3809 29.9997 50.3809C29.2975 50.3809 28.6078 50.1961 27.9997 49.845L14.6797 42.155C14.0716 41.804 13.5667 41.299 13.2156 40.691C12.8645 40.0829 12.6797 39.3932 12.6797 38.691V23.309C12.6797 22.6069 12.8645 21.9172 13.2156 21.3091C13.5667 20.701 14.0716 20.1961 14.6797 19.845L27.9997 12.155C28.6078 11.804 29.2975 11.6191 29.9997 11.6191C30.7018 11.6191 31.3916 11.804 31.9997 12.155Z" fill="url(#paint1_linear_0_1111)"/>
<path d="M26.502 29.56L29.995 26.066L33.491 29.562L35.524 27.529L29.995 22L24.469 27.527L26.502 29.56ZM21 30.995L23.033 28.962L25.066 30.995L23.033 33.028L21 30.995ZM26.502 32.431L29.995 35.925L33.491 32.429L35.525 34.461L35.524 34.462L29.995 39.991L24.468 34.464L24.466 34.461L26.502 32.431ZM34.925 30.996L36.958 28.963L38.991 30.996L36.958 33.029L34.925 30.996Z" fill="white"/>
<path d="M32.0557 30.994H32.0567L29.9937 28.931L28.4697 30.456L28.2947 30.631L27.9327 30.993L27.9297 30.995L27.9327 30.998L29.9937 33.06L32.0567 30.997L32.0577 30.995H32.0557" fill="white"/>
<defs>
<linearGradient id="paint0_linear_0_1111" x1="41.553" y1="38.5711" x2="15.9847" y2="23.6461" gradientUnits="userSpaceOnUse">
<stop stop-color="#FF9400"/>
<stop offset="1" stop-color="#FFBB21"/>
</linearGradient>
<linearGradient id="paint1_linear_0_1111" x1="12.6797" y1="11.6191" x2="51.9249" y2="46.3473" gradientUnits="userSpaceOnUse">
<stop stop-color="#D8AC29"/>
<stop offset="1" stop-color="#FFB700"/>
</linearGradient>
</defs>
</svg>
