<svg width="113" height="63" viewBox="0 0 113 63" fill="none" xmlns="http://www.w3.org/2000/svg">
<rect width="113" height="63" rx="10" fill="#3C3D3F" fill-opacity="0.12"/>
<path d="M63.598 38V23.4545H68.9247C69.9569 23.4545 70.8116 23.625 71.4886 23.9659C72.1657 24.3021 72.6723 24.759 73.0085 25.3366C73.3447 25.9096 73.5128 26.5559 73.5128 27.2756C73.5128 27.8816 73.4015 28.393 73.179 28.8097C72.9564 29.2216 72.6581 29.553 72.2841 29.804C71.9148 30.0502 71.5076 30.2301 71.0625 30.3438V30.4858C71.5455 30.5095 72.0166 30.6657 72.4759 30.9545C72.9399 31.2386 73.3234 31.6435 73.6264 32.169C73.9295 32.6946 74.081 33.3338 74.081 34.0866C74.081 34.83 73.9058 35.4976 73.5554 36.0895C73.2098 36.6766 72.6747 37.143 71.9503 37.4886C71.2259 37.8295 70.3002 38 69.1733 38H63.598ZM65.7926 36.1179H68.9602C70.0114 36.1179 70.7642 35.9143 71.2188 35.5071C71.6733 35.0999 71.9006 34.5909 71.9006 33.9801C71.9006 33.5208 71.7846 33.0994 71.5526 32.7159C71.3205 32.3324 70.9891 32.027 70.5582 31.7997C70.1321 31.5724 69.6255 31.4588 69.0384 31.4588H65.7926V36.1179ZM65.7926 29.7472H68.733C69.2254 29.7472 69.6681 29.6525 70.0611 29.4631C70.4588 29.2737 70.7737 29.0085 71.0057 28.6676C71.2424 28.322 71.3608 27.9148 71.3608 27.446C71.3608 26.8447 71.1501 26.3404 70.7287 25.9332C70.3073 25.526 69.661 25.3224 68.7898 25.3224H65.7926V29.7472ZM75.7666 25.3438V23.4545H87.0237V25.3438H82.4854V38H80.2979V25.3438H75.7666ZM100.767 28.1847H98.5514C98.4661 27.7112 98.3075 27.2945 98.0755 26.9347C97.8435 26.5748 97.5594 26.2694 97.2232 26.0185C96.8871 25.7675 96.5106 25.5781 96.094 25.4503C95.682 25.3224 95.2441 25.2585 94.78 25.2585C93.942 25.2585 93.1915 25.4692 92.5286 25.8906C91.8705 26.312 91.3496 26.9299 90.9661 27.7443C90.5873 28.5587 90.3979 29.553 90.3979 30.7273C90.3979 31.911 90.5873 32.91 90.9661 33.7244C91.3496 34.5388 91.8728 35.1544 92.5357 35.571C93.1986 35.9877 93.9443 36.196 94.7729 36.196C95.2322 36.196 95.6678 36.1345 96.0798 36.0114C96.4964 35.8835 96.8728 35.6965 97.209 35.4503C97.5452 35.2041 97.8293 34.9034 98.0613 34.5483C98.298 34.1884 98.4614 33.7765 98.5514 33.3125L100.767 33.3196C100.649 34.0346 100.419 34.6927 100.078 35.294C99.7422 35.8906 99.3089 36.4067 98.7786 36.8423C98.2531 37.2732 97.6517 37.607 96.9746 37.8438C96.2976 38.0805 95.5589 38.1989 94.7587 38.1989C93.4993 38.1989 92.3771 37.9006 91.3923 37.304C90.4074 36.7027 89.6309 35.8433 89.0627 34.7259C88.4993 33.6084 88.2175 32.2756 88.2175 30.7273C88.2175 29.1742 88.5016 27.8414 89.0698 26.7287C89.638 25.6113 90.4145 24.7543 91.3994 24.1577C92.3842 23.5563 93.504 23.2557 94.7587 23.2557C95.5305 23.2557 96.2502 23.367 96.9178 23.5895C97.5902 23.8073 98.1939 24.1293 98.7289 24.5554C99.2639 24.9768 99.7067 25.4929 100.057 26.1037C100.407 26.7098 100.644 27.4034 100.767 28.1847Z" fill="white"/>
<path fill-rule="evenodd" clip-rule="evenodd" d="M32.9997 12.155L46.3197 19.845C46.9277 20.1961 47.4327 20.701 47.7838 21.3091C48.1348 21.9172 48.3197 22.6069 48.3197 23.309V38.691C48.3197 39.3932 48.1348 40.0829 47.7838 40.691C47.4327 41.299 46.9277 41.804 46.3197 42.155L32.9997 49.845C32.3916 50.1961 31.7018 50.3809 30.9997 50.3809C30.2975 50.3809 29.6078 50.1961 28.9997 49.845L15.6797 42.155C15.0716 41.804 14.5667 41.299 14.2156 40.691C13.8645 40.0829 13.6797 39.3932 13.6797 38.691V23.309C13.6797 22.6069 13.8645 21.9172 14.2156 21.3091C14.5667 20.701 15.0716 20.1961 15.6797 19.845L28.9997 12.155C29.6078 11.804 30.2975 11.6191 30.9997 11.6191C31.7018 11.6191 32.3916 11.804 32.9997 12.155Z" fill="url(#paint0_linear_0_1087)"/>
<path fill-rule="evenodd" clip-rule="evenodd" d="M35.1958 37.417C34.0198 37.842 32.9288 37.681 32.4438 37.617C32.2048 37.586 31.8008 37.512 31.3698 37.423L30.6548 40.09L29.0128 39.65L29.7158 37.026L28.4658 36.691L27.7628 39.315L26.1208 38.875L26.8238 36.251L23.5938 35.385L24.4598 33.503L25.4418 33.767C25.7718 33.855 25.9178 33.861 26.0908 33.768C26.2638 33.674 26.3478 33.483 26.3908 33.322L28.2108 26.528C28.3258 26.102 28.3218 25.978 28.1848 25.707C28.0478 25.435 27.5947 25.283 27.3358 25.214L26.3868 24.959L26.8438 23.255L30.0738 24.12L30.7788 21.488L32.4208 21.928L31.7158 24.56L32.9658 24.895L33.6718 22.263L35.3138 22.703L34.5998 25.367C35.8038 25.771 36.6528 26.248 37.2898 27.049C38.1148 28.084 37.7078 29.389 37.5998 29.698C37.4928 30.006 37.1928 30.575 36.8118 30.892C36.4308 31.21 35.6508 31.42 35.6508 31.42C35.6508 31.42 36.4028 31.803 36.8508 32.375C37.2968 32.947 37.5128 33.802 37.1968 34.885C36.8828 35.969 36.3698 36.991 35.1958 37.417ZM31.7878 31.717C31.1775 31.5214 30.5581 31.3555 29.9318 31.22L28.9878 34.742C28.9878 34.742 30.0708 35.057 30.8148 35.199C31.5578 35.34 32.3588 35.358 32.7908 35.251C33.2208 35.144 33.7608 34.943 33.9768 34.138C34.1928 33.332 33.7468 32.851 33.4798 32.615C33.2148 32.379 32.5868 31.989 31.7878 31.718V31.717ZM31.7348 29.952C32.3398 30.089 33.0138 30.122 33.5418 29.992C34.0698 29.862 34.4378 29.532 34.5828 28.93C34.7278 28.328 34.4648 27.714 33.8448 27.326C33.2248 26.938 32.7768 26.801 32.2648 26.656C31.7528 26.511 31.2188 26.416 31.2188 26.416L30.3688 29.586C30.3688 29.586 31.1308 29.814 31.7348 29.952Z" fill="white"/>
<defs>
<linearGradient id="paint0_linear_0_1087" x1="42.553" y1="38.5711" x2="16.9847" y2="23.6461" gradientUnits="userSpaceOnUse">
<stop stop-color="#FF9400"/>
<stop offset="1" stop-color="#FFBB21"/>
</linearGradient>
</defs>
</svg>
