<svg width="136" height="63" viewBox="0 0 136 63" fill="none" xmlns="http://www.w3.org/2000/svg">
<rect width="136" height="63" rx="10" fill="#3C3D3F" fill-opacity="0.12"/>
<path d="M68.3068 39H63.598V24.4545H68.456C69.8812 24.4545 71.1051 24.7457 72.1278 25.3281C73.1506 25.9058 73.9342 26.7367 74.4787 27.821C75.0279 28.9006 75.3026 30.1955 75.3026 31.706C75.3026 33.2211 75.0256 34.5232 74.4716 35.6122C73.9223 36.7012 73.1269 37.5393 72.0852 38.1264C71.0436 38.7088 69.7841 39 68.3068 39ZM65.7926 37.0824H68.1861C69.294 37.0824 70.215 36.8741 70.9489 36.4574C71.6828 36.036 72.232 35.4276 72.5966 34.6321C72.9612 33.8319 73.1435 32.8565 73.1435 31.706C73.1435 30.5649 72.9612 29.5966 72.5966 28.8011C72.2367 28.0057 71.6993 27.402 70.9844 26.9901C70.2694 26.5781 69.3816 26.3722 68.321 26.3722H65.7926V37.0824ZM78.3376 39H76.0081L81.2425 24.4545H83.778L89.0124 39H86.6828L82.5706 27.0966H82.457L78.3376 39ZM78.7283 33.304H86.2851V35.1506H78.7283V33.304ZM98.7289 28.2756C98.6531 27.6032 98.3406 27.0824 97.7914 26.7131C97.2422 26.339 96.5509 26.152 95.7175 26.152C95.121 26.152 94.6049 26.2467 94.1692 26.4361C93.7336 26.6207 93.3951 26.8764 93.1536 27.2031C92.9169 27.5251 92.7985 27.892 92.7985 28.304C92.7985 28.6496 92.879 28.9479 93.04 29.1989C93.2057 29.4498 93.4211 29.6605 93.6863 29.831C93.9562 29.9967 94.245 30.1364 94.5528 30.25C94.8605 30.3589 95.1565 30.4489 95.4406 30.5199L96.861 30.8892C97.325 31.0028 97.8009 31.1567 98.2886 31.3509C98.7763 31.545 99.2284 31.8007 99.6451 32.1179C100.062 32.4351 100.398 32.8281 100.654 33.2969C100.914 33.7656 101.044 34.3267 101.044 34.9801C101.044 35.804 100.831 36.5355 100.405 37.1747C99.9836 37.8139 99.3705 38.3182 98.5656 38.6875C97.7654 39.0568 96.7971 39.2415 95.6607 39.2415C94.5717 39.2415 93.6295 39.0687 92.834 38.723C92.0386 38.3774 91.4159 37.8873 90.9661 37.2528C90.5163 36.6136 90.2677 35.8561 90.2204 34.9801H92.4221C92.4647 35.5057 92.6352 35.9437 92.9335 36.294C93.2365 36.6397 93.6224 36.8977 94.0911 37.0682C94.5646 37.2339 95.0831 37.3168 95.6465 37.3168C96.2668 37.3168 96.8184 37.2197 97.3013 37.0256C97.789 36.8267 98.1726 36.5521 98.4519 36.2017C98.7313 35.8466 98.871 35.4323 98.871 34.9588C98.871 34.5279 98.7478 34.1752 98.5016 33.9006C98.2602 33.6259 97.9311 33.3987 97.5144 33.2188C97.1025 33.0388 96.6361 32.8802 96.1153 32.7429L94.3965 32.2741C93.2317 31.9569 92.3085 31.4905 91.6266 30.875C90.9496 30.2595 90.611 29.4451 90.611 28.4318C90.611 27.5937 90.8383 26.8622 91.2928 26.2372C91.7474 25.6122 92.3629 25.1269 93.1394 24.7812C93.9159 24.4309 94.7919 24.2557 95.7673 24.2557C96.7521 24.2557 97.621 24.4285 98.3738 24.7741C99.1314 25.1198 99.728 25.5956 100.164 26.2017C100.599 26.803 100.826 27.4943 100.845 28.2756H98.7289ZM103.467 39V24.4545H105.661V30.7756H112.913V24.4545H115.114V39H112.913V32.6577H105.661V39H103.467Z" fill="white"/>
<path fill-rule="evenodd" clip-rule="evenodd" d="M32.9997 13.155L46.3197 20.845C46.9277 21.1961 47.4327 21.701 47.7838 22.3091C48.1348 22.9172 48.3197 23.6069 48.3197 24.309V39.691C48.3197 40.3932 48.1348 41.0829 47.7838 41.691C47.4327 42.299 46.9277 42.804 46.3197 43.155L32.9997 50.845C32.3916 51.1961 31.7018 51.3809 30.9997 51.3809C30.2975 51.3809 29.6078 51.1961 28.9997 50.845L15.6797 43.155C15.0716 42.804 14.5667 42.299 14.2156 41.691C13.8645 41.0829 13.6797 40.3932 13.6797 39.691V24.309C13.6797 23.6069 13.8645 22.9172 14.2156 22.3091C14.5667 21.701 15.0716 21.1961 15.6797 20.845L28.9997 13.155C29.6078 12.804 30.2975 12.6191 30.9997 12.6191C31.7018 12.6191 32.3916 12.804 32.9997 13.155Z" fill="url(#paint0_linear_0_1321)"/>
<path fill-rule="evenodd" clip-rule="evenodd" d="M35.1958 38.417C34.0198 38.842 32.9288 38.681 32.4438 38.617C32.2048 38.586 31.8008 38.512 31.3698 38.423L30.6548 41.09L29.0128 40.65L29.7158 38.026L28.4658 37.691L27.7628 40.315L26.1208 39.875L26.8238 37.251L23.5938 36.385L24.4598 34.503L25.4418 34.767C25.7718 34.855 25.9178 34.861 26.0908 34.768C26.2638 34.674 26.3478 34.483 26.3908 34.322L28.2108 27.528C28.3258 27.102 28.3218 26.978 28.1848 26.707C28.0478 26.435 27.5947 26.283 27.3358 26.214L26.3868 25.959L26.8438 24.255L30.0738 25.12L30.7788 22.488L32.4208 22.928L31.7158 25.56L32.9658 25.895L33.6718 23.263L35.3138 23.703L34.5998 26.367C35.8038 26.771 36.6528 27.248 37.2898 28.049C38.1148 29.084 37.7078 30.389 37.5998 30.698C37.4928 31.006 37.1928 31.575 36.8118 31.892C36.4308 32.21 35.6508 32.42 35.6508 32.42C35.6508 32.42 36.4028 32.803 36.8508 33.375C37.2968 33.947 37.5128 34.802 37.1968 35.885C36.8828 36.969 36.3698 37.991 35.1958 38.417ZM31.7878 32.717C31.1775 32.5214 30.5581 32.3555 29.9318 32.22L28.9878 35.742C28.9878 35.742 30.0708 36.057 30.8148 36.199C31.5578 36.34 32.3588 36.358 32.7908 36.251C33.2208 36.144 33.7608 35.943 33.9768 35.138C34.1928 34.332 33.7468 33.851 33.4798 33.615C33.2148 33.379 32.5868 32.989 31.7878 32.718V32.717ZM31.7348 30.952C32.3398 31.089 33.0138 31.122 33.5418 30.992C34.0698 30.862 34.4378 30.532 34.5828 29.93C34.7278 29.328 34.4648 28.714 33.8448 28.326C33.2248 27.938 32.7768 27.801 32.2648 27.656C31.7528 27.511 31.2188 27.416 31.2188 27.416L30.3688 30.586C30.3688 30.586 31.1308 30.814 31.7348 30.952Z" fill="white"/>
<path fill-rule="evenodd" clip-rule="evenodd" d="M32.9997 13.155L46.3197 20.845C46.9277 21.1961 47.4327 21.701 47.7838 22.3091C48.1348 22.9172 48.3197 23.6069 48.3197 24.309V39.691C48.3197 40.3932 48.1348 41.0829 47.7838 41.691C47.4327 42.299 46.9277 42.804 46.3197 43.155L32.9997 50.845C32.3916 51.1961 31.7018 51.3809 30.9997 51.3809C30.2975 51.3809 29.6078 51.1961 28.9997 50.845L15.6797 43.155C15.0716 42.804 14.5667 42.299 14.2156 41.691C13.8645 41.0829 13.6797 40.3932 13.6797 39.691V24.309C13.6797 23.6069 13.8645 22.9172 14.2156 22.3091C14.5667 21.701 15.0716 21.1961 15.6797 20.845L28.9997 13.155C29.6078 12.804 30.2975 12.6191 30.9997 12.6191C31.7018 12.6191 32.3916 12.804 32.9997 13.155Z" fill="url(#paint1_linear_0_1321)"/>
<path d="M32.7781 25.004H26.2321L25.6901 28.036L31.5951 28.043C34.5041 28.043 35.3641 29.099 35.3391 30.852C35.3271 31.75 34.9371 33.268 34.7691 33.76C34.3211 35.072 33.4001 36.569 29.9491 36.563L24.2081 36.56L23.6641 39.593H30.1941C32.4971 39.593 33.4781 39.325 34.5141 38.846C36.8141 37.784 38.1821 35.514 38.7301 32.552C39.5471 28.142 38.5301 25.004 32.7771 25.004H32.7781Z" fill="white"/>
<path d="M23.4079 30.776C21.6939 30.776 21.4479 31.893 21.2859 32.568C21.0739 33.452 21.0039 33.81 21.0039 33.81H27.7039C29.4189 33.81 29.6639 32.693 29.8269 32.018C30.0389 31.134 30.1089 30.776 30.1089 30.776H23.4089H23.4079Z" fill="white"/>
<defs>
<linearGradient id="paint0_linear_0_1321" x1="42.553" y1="39.5711" x2="16.9847" y2="24.6461" gradientUnits="userSpaceOnUse">
<stop stop-color="#FF9400"/>
<stop offset="1" stop-color="#FFBB21"/>
</linearGradient>
<linearGradient id="paint1_linear_0_1321" x1="13.6797" y1="12.6191" x2="52.9249" y2="47.3473" gradientUnits="userSpaceOnUse">
<stop stop-color="#12CEF7"/>
<stop offset="1" stop-color="#5766F2"/>
</linearGradient>
</defs>
</svg>
