<svg width="136" height="63" viewBox="0 0 136 63" fill="none" xmlns="http://www.w3.org/2000/svg">
<rect width="136" height="63" rx="10" fill="#3C3D3F" fill-opacity="0.12"/>
<path d="M68.3068 39H63.598V24.4545H68.456C69.8812 24.4545 71.1051 24.7457 72.1278 25.3281C73.1506 25.9058 73.9342 26.7367 74.4787 27.821C75.0279 28.9006 75.3026 30.1955 75.3026 31.706C75.3026 33.2211 75.0256 34.5232 74.4716 35.6122C73.9223 36.7012 73.1269 37.5393 72.0852 38.1264C71.0436 38.7088 69.7841 39 68.3068 39ZM65.7926 37.0824H68.1861C69.294 37.0824 70.215 36.8741 70.9489 36.4574C71.6828 36.036 72.232 35.4276 72.5966 34.6321C72.9612 33.8319 73.1435 32.8565 73.1435 31.706C73.1435 30.5649 72.9612 29.5966 72.5966 28.8011C72.2367 28.0057 71.6993 27.402 70.9844 26.9901C70.2694 26.5781 69.3816 26.3722 68.321 26.3722H65.7926V37.0824ZM90.4665 31.7273C90.4665 33.2803 90.1825 34.6155 89.6143 35.733C89.0461 36.8456 88.2672 37.7027 87.2776 38.304C86.2928 38.9006 85.173 39.1989 83.9183 39.1989C82.6588 39.1989 81.5343 38.9006 80.5447 38.304C79.5598 37.7027 78.7833 36.8433 78.2151 35.7259C77.6469 34.6084 77.3629 33.2756 77.3629 31.7273C77.3629 30.1742 77.6469 28.8414 78.2151 27.7287C78.7833 26.6113 79.5598 25.7543 80.5447 25.1577C81.5343 24.5563 82.6588 24.2557 83.9183 24.2557C85.173 24.2557 86.2928 24.5563 87.2776 25.1577C88.2672 25.7543 89.0461 26.6113 89.6143 27.7287C90.1825 28.8414 90.4665 30.1742 90.4665 31.7273ZM88.2933 31.7273C88.2933 30.5436 88.1015 29.5469 87.718 28.7372C87.3392 27.9228 86.8183 27.3073 86.1555 26.8906C85.4973 26.4692 84.7516 26.2585 83.9183 26.2585C83.0802 26.2585 82.3321 26.4692 81.6739 26.8906C81.0158 27.3073 80.495 27.9228 80.1114 28.7372C79.7326 29.5469 79.5433 30.5436 79.5433 31.7273C79.5433 32.911 79.7326 33.91 80.1114 34.7244C80.495 35.5341 81.0158 36.1496 81.6739 36.571C82.3321 36.9877 83.0802 37.196 83.9183 37.196C84.7516 37.196 85.4973 36.9877 86.1555 36.571C86.8183 36.1496 87.3392 35.5341 87.718 34.7244C88.1015 33.91 88.2933 32.911 88.2933 31.7273ZM102.846 29.0497C102.709 28.6188 102.524 28.233 102.292 27.892C102.065 27.5464 101.793 27.2528 101.476 27.0114C101.158 26.7652 100.796 26.5781 100.389 26.4503C99.9866 26.3224 99.5439 26.2585 99.0609 26.2585C98.2418 26.2585 97.5032 26.4692 96.845 26.8906C96.1869 27.312 95.6661 27.9299 95.2825 28.7443C94.9037 29.554 94.7143 30.5459 94.7143 31.7202C94.7143 32.8991 94.9061 33.8958 95.2896 34.7102C95.6732 35.5246 96.1987 36.1425 96.8663 36.5639C97.5339 36.9853 98.2939 37.196 99.1462 37.196C99.9369 37.196 100.626 37.035 101.213 36.7131C101.805 36.3911 102.262 35.9366 102.584 35.3494C102.91 34.7576 103.074 34.0616 103.074 33.2614L103.642 33.3679H99.48V31.5568H105.197V33.2116C105.197 34.4332 104.937 35.4938 104.416 36.3935C103.9 37.2884 103.185 37.9796 102.271 38.4673C101.362 38.955 100.32 39.1989 99.1462 39.1989C97.8299 39.1989 96.6746 38.8958 95.6803 38.2898C94.6907 37.6837 93.9189 36.8243 93.3649 35.7116C92.8109 34.5942 92.5339 33.2685 92.5339 31.7344C92.5339 30.5743 92.6949 29.5327 93.0169 28.6094C93.3389 27.6861 93.7911 26.9025 94.3734 26.2585C94.9606 25.6098 95.6495 25.1151 96.4402 24.7741C97.2357 24.4285 98.1045 24.2557 99.0467 24.2557C99.8327 24.2557 100.564 24.3717 101.241 24.6037C101.923 24.8357 102.529 25.1648 103.06 25.5909C103.595 26.017 104.037 26.5237 104.388 27.1108C104.738 27.6932 104.975 28.3395 105.098 29.0497H102.846ZM107.783 39V24.4545H116.902V26.3438H109.978V30.7756H116.427V32.6577H109.978V37.1108H116.988V39H107.783Z" fill="white"/>
<path fill-rule="evenodd" clip-rule="evenodd" d="M32.9997 13.155L46.3197 20.845C46.9277 21.1961 47.4327 21.701 47.7838 22.3091C48.1348 22.9172 48.3197 23.6069 48.3197 24.309V39.691C48.3197 40.3932 48.1348 41.0829 47.7838 41.691C47.4327 42.299 46.9277 42.804 46.3197 43.155L32.9997 50.845C32.3916 51.1961 31.7018 51.3809 30.9997 51.3809C30.2975 51.3809 29.6078 51.1961 28.9997 50.845L15.6797 43.155C15.0716 42.804 14.5667 42.299 14.2156 41.691C13.8645 41.0829 13.6797 40.3932 13.6797 39.691V24.309C13.6797 23.6069 13.8645 22.9172 14.2156 22.3091C14.5667 21.701 15.0716 21.1961 15.6797 20.845L28.9997 13.155C29.6078 12.804 30.2975 12.6191 30.9997 12.6191C31.7018 12.6191 32.3916 12.804 32.9997 13.155Z" fill="url(#paint0_linear_0_1306)"/>
<path fill-rule="evenodd" clip-rule="evenodd" d="M35.1958 38.417C34.0198 38.842 32.9288 38.681 32.4438 38.617C32.2048 38.586 31.8008 38.512 31.3698 38.423L30.6548 41.09L29.0128 40.65L29.7158 38.026L28.4658 37.691L27.7628 40.315L26.1208 39.875L26.8238 37.251L23.5938 36.385L24.4598 34.503L25.4418 34.767C25.7718 34.855 25.9178 34.861 26.0908 34.768C26.2638 34.674 26.3478 34.483 26.3908 34.322L28.2108 27.528C28.3258 27.102 28.3218 26.978 28.1848 26.707C28.0478 26.435 27.5947 26.283 27.3358 26.214L26.3868 25.959L26.8438 24.255L30.0738 25.12L30.7788 22.488L32.4208 22.928L31.7158 25.56L32.9658 25.895L33.6718 23.263L35.3138 23.703L34.5998 26.367C35.8038 26.771 36.6528 27.248 37.2898 28.049C38.1148 29.084 37.7078 30.389 37.5998 30.698C37.4928 31.006 37.1928 31.575 36.8118 31.892C36.4308 32.21 35.6508 32.42 35.6508 32.42C35.6508 32.42 36.4028 32.803 36.8508 33.375C37.2968 33.947 37.5128 34.802 37.1968 35.885C36.8828 36.969 36.3698 37.991 35.1958 38.417ZM31.7878 32.717C31.1775 32.5214 30.5581 32.3555 29.9318 32.22L28.9878 35.742C28.9878 35.742 30.0708 36.057 30.8148 36.199C31.5578 36.34 32.3588 36.358 32.7908 36.251C33.2208 36.144 33.7608 35.943 33.9768 35.138C34.1928 34.332 33.7468 33.851 33.4798 33.615C33.2148 33.379 32.5868 32.989 31.7878 32.718V32.717ZM31.7348 30.952C32.3398 31.089 33.0138 31.122 33.5418 30.992C34.0698 30.862 34.4378 30.532 34.5828 29.93C34.7278 29.328 34.4648 28.714 33.8448 28.326C33.2248 27.938 32.7768 27.801 32.2648 27.656C31.7528 27.511 31.2188 27.416 31.2188 27.416L30.3688 30.586C30.3688 30.586 31.1308 30.814 31.7348 30.952Z" fill="white"/>
<path fill-rule="evenodd" clip-rule="evenodd" d="M32.9997 13.155L46.3197 20.845C46.9277 21.1961 47.4327 21.701 47.7838 22.3091C48.1348 22.9172 48.3197 23.6069 48.3197 24.309V39.691C48.3197 40.3932 48.1348 41.0829 47.7838 41.691C47.4327 42.299 46.9277 42.804 46.3197 43.155L32.9997 50.845C32.3916 51.1961 31.7018 51.3809 30.9997 51.3809C30.2975 51.3809 29.6078 51.1961 28.9997 50.845L15.6797 43.155C15.0716 42.804 14.5667 42.299 14.2156 41.691C13.8645 41.0829 13.6797 40.3932 13.6797 39.691V24.309C13.6797 23.6069 13.8645 22.9172 14.2156 22.3091C14.5667 21.701 15.0716 21.1961 15.6797 20.845L28.9997 13.155C29.6078 12.804 30.2975 12.6191 30.9997 12.6191C31.7018 12.6191 32.3916 12.804 32.9997 13.155Z" fill="url(#paint1_linear_0_1306)"/>
<path d="M24.5662 23.116L26.3022 23.068C28.5322 23.006 29.6292 23.001 30.8762 23.081C32.5902 23.191 34.0132 23.47 35.2502 23.996C38.3702 25.321 39.9822 28.117 39.9422 32.458L39.9402 32.532C39.7302 36.693 38.2312 39.292 35.4132 40.482C34.2702 40.964 32.9712 41.192 31.3892 41.252C30.2662 41.293 29.4172 41.266 27.1392 41.147L26.2672 41.103L24.5662 41.021V23.116ZM28.1382 26.603V37.62C31.5022 37.777 32.8322 37.695 34.0242 37.192C35.4462 36.592 36.2192 35.258 36.3702 32.389C36.3902 29.446 35.5552 28.009 33.8532 27.284C32.5682 26.738 31.0852 26.572 28.1382 26.604V26.603Z" fill="white"/>
<path fill-rule="evenodd" clip-rule="evenodd" d="M22.0312 30.5181H31.4763V33.8181H22.0312V30.5181Z" fill="white"/>
<defs>
<linearGradient id="paint0_linear_0_1306" x1="42.553" y1="39.5711" x2="16.9847" y2="24.6461" gradientUnits="userSpaceOnUse">
<stop stop-color="#FF9400"/>
<stop offset="1" stop-color="#FFBB21"/>
</linearGradient>
<linearGradient id="paint1_linear_0_1306" x1="-1.49263" y1="-3.49763" x2="54.5267" y2="45.4588" gradientUnits="userSpaceOnUse">
<stop stop-color="#AAA27B"/>
<stop offset="1" stop-color="#978129"/>
</linearGradient>
</defs>
</svg>
