<svg width="113" height="63" viewBox="0 0 113 63" fill="none" xmlns="http://www.w3.org/2000/svg">
<rect width="113" height="63" rx="10" fill="#3C3D3F" fill-opacity="0.12"/>
<path fill-rule="evenodd" clip-rule="evenodd" d="M32 12.655L45.32 20.345C45.928 20.6961 46.433 21.201 46.7841 21.8091C47.1351 22.4172 47.32 23.1069 47.32 23.809V39.191C47.32 39.8932 47.1351 40.5829 46.7841 41.191C46.433 41.799 45.928 42.304 45.32 42.655L32 50.345C31.3919 50.6961 30.7021 50.8809 30 50.8809C29.2978 50.8809 28.6081 50.6961 28 50.345L14.68 42.655C14.0719 42.304 13.567 41.799 13.2159 41.191C12.8648 40.5829 12.68 39.8932 12.68 39.191V23.809C12.68 23.1069 12.8648 22.4172 13.2159 21.8091C13.567 21.201 14.0719 20.6961 14.68 20.345L28 12.655C28.6081 12.304 29.2978 12.1191 30 12.1191C30.7021 12.1191 31.3919 12.304 32 12.655Z" fill="url(#paint0_linear_205_7)"/>
<path d="M59.9979 39V23.7273H69.5732V25.7109H62.3022V30.3643H69.0736V32.3406H62.3022V37.0163H69.6627V39H59.9979ZM82.4726 23.7273H84.7844V33.7724C84.7844 34.8413 84.5333 35.7884 84.0312 36.6136C83.5291 37.4339 82.8231 38.0803 81.9133 38.5526C81.0035 39.0199 79.9371 39.2536 78.7141 39.2536C77.496 39.2536 76.4321 39.0199 75.5223 38.5526C74.6125 38.0803 73.9066 37.4339 73.4044 36.6136C72.9023 35.7884 72.6512 34.8413 72.6512 33.7724V23.7273H74.9556V33.5859C74.9556 34.277 75.1072 34.891 75.4105 35.4279C75.7187 35.9648 76.1537 36.3874 76.7155 36.6957C77.2773 36.9989 77.9435 37.1506 78.7141 37.1506C79.4897 37.1506 80.1583 36.9989 80.7201 36.6957C81.2869 36.3874 81.7194 35.9648 82.0177 35.4279C82.321 34.891 82.4726 34.277 82.4726 33.5859V23.7273ZM88.1346 39V23.7273H93.5785C94.7618 23.7273 95.7437 23.9311 96.5242 24.3388C97.3097 24.7464 97.8963 25.3107 98.2841 26.0316C98.6719 26.7475 98.8658 27.5753 98.8658 28.5149C98.8658 29.4496 98.6694 30.2724 98.2767 30.9833C97.8889 31.6893 97.3022 32.2386 96.5167 32.6314C95.7362 33.0241 94.7543 33.2205 93.5711 33.2205H89.4471V31.2369H93.3623C94.108 31.2369 94.7145 31.13 95.1819 30.9162C95.6542 30.7024 95.9997 30.3917 96.2184 29.984C96.4372 29.5763 96.5466 29.0866 96.5466 28.5149C96.5466 27.9382 96.4347 27.4386 96.211 27.016C95.9922 26.5934 95.6467 26.2702 95.1744 26.0465C94.7071 25.8178 94.0931 25.7035 93.3324 25.7035H90.439V39H88.1346ZM95.674 32.1094L99.4475 39H96.8225L93.1236 32.1094H95.674Z" fill="white"/>
<path d="M39.8138 38.3191H20.1881C19.4006 38.3191 18.7575 37.7028 18.7575 36.9481V26.0519C18.7575 25.2972 19.4006 24.6809 20.1881 24.6809H39.8138C40.6013 24.6809 41.2444 25.2972 41.2444 26.0519V36.9481C41.2444 37.7028 40.6013 38.3191 39.8138 38.3191V38.3191Z" fill="#FFC107"/>
<path d="M18.7556 26.9863H41.2462V29.8738H18.7556V26.9863Z" fill="#424242"/>
<path d="M39.4125 33.322H20.6006C20.4169 33.322 20.265 33.1783 20.265 33.0004V31.4892C20.265 31.3131 20.415 31.1676 20.6006 31.1676H39.4125C39.5963 31.1676 39.7481 31.3113 39.7481 31.4892V33.0004C39.7463 33.1765 39.5963 33.322 39.4125 33.322Z" fill="white"/>
<path d="M22.4962 32.6662C22.6012 32.4721 22.6294 32.2457 22.7231 32.0463C22.8169 31.8468 23.0212 31.6617 23.2462 31.6959C23.4544 31.7282 23.5837 31.9277 23.6606 32.1145C23.7675 32.3751 23.8256 32.6536 23.8331 32.9339C23.835 32.9914 23.8312 33.0543 23.7919 33.0992C23.7225 33.1747 23.58 33.137 23.5256 33.0507C23.4712 32.9645 23.4844 32.8548 23.5087 32.756C23.625 32.2978 24 31.9079 24.4669 31.7606C24.5156 31.7444 24.5662 31.7318 24.6169 31.7408C24.7256 31.7606 24.7856 31.8684 24.8344 31.9618C24.9487 32.1756 25.0875 32.3787 25.2469 32.5638C25.3106 32.6392 25.3837 32.7129 25.4812 32.7416C25.8019 32.8315 25.9875 32.3787 26.2969 32.2583C26.6681 32.1145 27.03 32.4901 27.4237 32.5602C27.9994 32.6626 28.305 32.2331 28.8094 32.1235C28.8769 32.1091 28.95 32.1002 29.0175 32.1181C29.1412 32.1523 29.2181 32.2655 29.2912 32.3679C29.4619 32.6087 29.7056 32.8459 30.0094 32.8477C30.2025 32.8495 30.3806 32.7542 30.5569 32.6734C31.1812 32.3877 31.9181 32.2691 32.5706 32.4883" stroke="#424242" stroke-miterlimit="10" stroke-linecap="round" stroke-linejoin="round"/>
<defs>
<linearGradient id="paint0_linear_205_7" x1="5.00002" y1="12.5" x2="58.253" y2="41.533" gradientUnits="userSpaceOnUse">
<stop stop-color="#209CE9"/>
<stop offset="1" stop-color="#0980CA"/>
</linearGradient>
</defs>
</svg>
