<svg width="113" height="63" viewBox="0 0 113 63" fill="none" xmlns="http://www.w3.org/2000/svg">
<rect width="113" height="63" rx="10" fill="#3C3D3F" fill-opacity="0.12"/>
<path d="M61.598 38V23.4545H70.6179V25.3438H63.7926V29.7756H69.9716V31.6577H63.7926V38H61.598ZM72.3994 25.3438V23.4545H83.6565V25.3438H79.1182V38H76.9307V25.3438H72.3994ZM85.9441 23.4545H88.6075L93.2381 34.7614H93.4086L98.0393 23.4545H100.703V38H98.6146V27.4744H98.4796L94.1898 37.9787H92.4569L88.1671 27.4673H88.0322V38H85.9441V23.4545Z" fill="white"/>
<path fill-rule="evenodd" clip-rule="evenodd" d="M30.9997 12.155L44.3197 19.845C44.9277 20.1961 45.4327 20.701 45.7838 21.3091C46.1348 21.9172 46.3197 22.6069 46.3197 23.309V38.691C46.3197 39.3932 46.1348 40.0829 45.7838 40.691C45.4327 41.299 44.9277 41.804 44.3197 42.155L30.9997 49.845C30.3916 50.1961 29.7018 50.3809 28.9997 50.3809C28.2975 50.3809 27.6078 50.1961 26.9997 49.845L13.6797 42.155C13.0716 41.804 12.5667 41.299 12.2156 40.691C11.8645 40.0829 11.6797 39.3932 11.6797 38.691V23.309C11.6797 22.6069 11.8645 21.9172 12.2156 21.3091C12.5667 20.701 13.0716 20.1961 13.6797 19.845L26.9997 12.155C27.6078 11.804 28.2975 11.6191 28.9997 11.6191C29.7018 11.6191 30.3916 11.804 30.9997 12.155Z" fill="url(#paint0_linear_0_1126)"/>
<path fill-rule="evenodd" clip-rule="evenodd" d="M33.1958 37.417C32.0198 37.842 30.9288 37.681 30.4438 37.617C30.2048 37.586 29.8008 37.512 29.3698 37.423L28.6548 40.09L27.0128 39.65L27.7158 37.026L26.4658 36.691L25.7628 39.315L24.1208 38.875L24.8238 36.251L21.5938 35.385L22.4598 33.503L23.4418 33.767C23.7718 33.855 23.9178 33.861 24.0908 33.768C24.2638 33.674 24.3478 33.483 24.3908 33.322L26.2108 26.528C26.3258 26.102 26.3218 25.978 26.1848 25.707C26.0478 25.435 25.5947 25.283 25.3358 25.214L24.3868 24.959L24.8438 23.255L28.0738 24.12L28.7788 21.488L30.4208 21.928L29.7158 24.56L30.9658 24.895L31.6718 22.263L33.3138 22.703L32.5998 25.367C33.8038 25.771 34.6528 26.248 35.2898 27.049C36.1148 28.084 35.7078 29.389 35.5998 29.698C35.4928 30.006 35.1928 30.575 34.8118 30.892C34.4308 31.21 33.6508 31.42 33.6508 31.42C33.6508 31.42 34.4028 31.803 34.8508 32.375C35.2968 32.947 35.5128 33.802 35.1968 34.885C34.8828 35.969 34.3698 36.991 33.1958 37.417ZM29.7878 31.717C29.1775 31.5214 28.5581 31.3555 27.9318 31.22L26.9878 34.742C26.9878 34.742 28.0708 35.057 28.8148 35.199C29.5578 35.34 30.3588 35.358 30.7908 35.251C31.2208 35.144 31.7608 34.943 31.9768 34.138C32.1928 33.332 31.7468 32.851 31.4798 32.615C31.2148 32.379 30.5868 31.989 29.7878 31.718V31.717ZM29.7348 29.952C30.3398 30.089 31.0138 30.122 31.5418 29.992C32.0698 29.862 32.4378 29.532 32.5828 28.93C32.7278 28.328 32.4648 27.714 31.8448 27.326C31.2248 26.938 30.7768 26.801 30.2648 26.656C29.7528 26.511 29.2188 26.416 29.2188 26.416L28.3688 29.586C28.3688 29.586 29.1308 29.814 29.7348 29.952Z" fill="white"/>
<path d="M11 22.2251C11 20.6918 11.8765 19.2934 13.2564 18.6251L27.2564 11.8445C28.3576 11.3111 29.6424 11.3111 30.7436 11.8445L44.7436 18.6251C46.1235 19.2934 47 20.6918 47 22.2251V40.6671C47 42.2688 46.0446 43.716 44.5719 44.3454L30.5719 50.3283C29.5679 50.7573 28.4321 50.7573 27.4281 50.3283L13.4281 44.3454C11.9554 43.716 11 42.2688 11 40.6671V22.2251Z" fill="#13B5EC"/>
<path fill-rule="evenodd" clip-rule="evenodd" d="M30.72 28.44L34.08 26.48V30.4L30.72 28.44ZM34.08 36.84L29.6 39.4533L25.12 36.84V32.2667L29.6 34.88L34.08 32.2667V36.84ZM25.12 26.48L28.48 28.44L25.12 30.4V26.48ZM30.16 29.3733L33.52 31.3333L30.16 33.2933V29.3733ZM29.04 33.2933L25.68 31.3333L29.04 29.3733V33.2933ZM33.52 25.5467L29.6 27.7867L25.68 25.5467L29.6 23.2133L33.52 25.5467ZM24 25.1733V37.4L29.6 40.5733L35.2 37.4V25.1733L29.6 22L24 25.1733Z" fill="white"/>
<defs>
<linearGradient id="paint0_linear_0_1126" x1="40.553" y1="38.5711" x2="14.9847" y2="23.6461" gradientUnits="userSpaceOnUse">
<stop stop-color="#FF9400"/>
<stop offset="1" stop-color="#FFBB21"/>
</linearGradient>
</defs>
</svg>
