<svg width="268" height="65" viewBox="0 0 268 65" fill="none" xmlns="http://www.w3.org/2000/svg">
<path fill-rule="evenodd" clip-rule="evenodd" d="M51.0685 21.3273C47.224 14.8628 40.1997 10.9109 32.1698 10.9109C20.0136 10.9109 10.5352 20.2648 10.5352 32.5C10.5352 44.7352 20.0136 55.0303 32.1698 55.0303C40.1997 55.0303 47.224 50.3255 51.0685 43.861H62.0868C57.5333 55.9251 45.7533 64.5 32.1698 64.5C14.6108 64.5 0 50.1731 0 32.5C0 14.8269 14.6108 0.5 32.1698 0.5C45.7533 0.5 57.5333 9.26314 62.0868 21.3272L51.0685 21.3273ZM67.5442 28.7354L56.4436 36.6412H42.5168C40.8947 40.8259 36.8344 43.7942 32.0787 43.7942C25.8961 43.7942 20.8841 38.7798 20.8841 32.5942C20.8841 26.4085 25.8961 21.3942 32.0787 21.3942C36.906 21.3942 41.0193 24.451 42.591 28.7354H67.5442Z" fill="white"/>
<path d="M85.095 33.3164C84.5481 32.8867 83.7603 32.6719 82.7317 32.6719C81.3905 32.6719 80.2708 33.2773 79.3723 34.4883C78.4739 35.6992 78.0247 37.3464 78.0247 39.4297V49H73.4934V29H78.0247V33.1211H78.1028C78.5455 31.7148 79.2226 30.6211 80.134 29.8398C81.0585 29.0456 82.0872 28.6484 83.22 28.6484C84.0403 28.6484 84.6653 28.7721 85.095 29.0195V33.3164ZM107.224 29L98.2004 52.2031C96.3254 56.3438 93.6952 58.4141 90.3098 58.4141C89.3593 58.4141 88.565 58.3294 87.927 58.1602V54.3906C88.6431 54.625 89.2942 54.7422 89.8801 54.7422C91.5728 54.7422 92.8359 53.9089 93.6692 52.2422L95.0168 48.9609L87.0676 29H92.0872L96.8528 43.5312C96.9049 43.7135 97.0221 44.1953 97.2043 44.9766H97.302C97.3671 44.6771 97.4843 44.2083 97.6536 43.5703L102.654 29H107.224ZM114.861 46.0508H114.782V58.1992H110.251V29H114.782V32.5156H114.861C116.41 29.8594 118.676 28.5312 121.657 28.5312C124.197 28.5312 126.176 29.4232 127.595 31.207C129.014 32.9909 129.724 35.3867 129.724 38.3945C129.724 41.7279 128.923 44.3971 127.322 46.4023C125.72 48.4076 123.532 49.4102 120.759 49.4102C118.207 49.4102 116.241 48.2904 114.861 46.0508ZM114.743 38.1602V40.6406C114.743 42.099 115.206 43.3359 116.13 44.3516C117.068 45.3672 118.253 45.875 119.685 45.875C121.365 45.875 122.68 45.224 123.63 43.9219C124.594 42.6068 125.075 40.7773 125.075 38.4336C125.075 36.4674 124.626 34.931 123.728 33.8242C122.842 32.7044 121.638 32.1445 120.115 32.1445C118.5 32.1445 117.198 32.7174 116.208 33.8633C115.232 35.0091 114.743 36.4414 114.743 38.1602ZM144.9 48.7852C144.014 49.2279 142.849 49.4492 141.404 49.4492C137.523 49.4492 135.583 47.5872 135.583 43.8633V32.5547H132.243V29H135.583V24.3711L140.115 23.082V29H144.9V32.5547H140.115V42.5547C140.115 43.7396 140.329 44.5859 140.759 45.0938C141.189 45.6016 141.905 45.8555 142.907 45.8555C143.676 45.8555 144.34 45.6341 144.9 45.1914V48.7852ZM157.439 49.4688C154.353 49.4688 151.885 48.5378 150.036 46.6758C148.2 44.8008 147.282 42.3203 147.282 39.2344C147.282 35.875 148.24 33.2513 150.154 31.3633C152.081 29.4753 154.672 28.5312 157.927 28.5312C161.052 28.5312 163.487 29.4492 165.232 31.2852C166.976 33.1211 167.849 35.6667 167.849 38.9219C167.849 42.112 166.905 44.6706 165.017 46.5977C163.142 48.5117 160.616 49.4688 157.439 49.4688ZM157.654 32.1445C155.883 32.1445 154.483 32.763 153.454 34C152.426 35.237 151.911 36.9427 151.911 39.1172C151.911 41.2135 152.432 42.8672 153.474 44.0781C154.516 45.276 155.909 45.875 157.654 45.875C159.437 45.875 160.805 45.2826 161.755 44.0977C162.719 42.9128 163.2 41.2266 163.2 39.0391C163.2 36.8385 162.719 35.1393 161.755 33.9414C160.805 32.7435 159.437 32.1445 157.654 32.1445ZM171.697 47.8867V43.1016C172.126 43.4922 172.634 43.8438 173.22 44.1562C173.819 44.4688 174.45 44.7357 175.115 44.957C175.779 45.1654 176.443 45.3281 177.107 45.4453C177.771 45.5625 178.383 45.6211 178.943 45.6211C180.896 45.6211 182.348 45.2956 183.298 44.6445C184.262 43.9935 184.743 43.0495 184.743 41.8125C184.743 41.1484 184.581 40.5755 184.255 40.0938C183.943 39.599 183.5 39.1497 182.927 38.7461C182.354 38.3424 181.677 37.9583 180.896 37.5938C180.128 37.2161 179.301 36.8255 178.415 36.4219C177.465 35.9141 176.579 35.3997 175.759 34.8789C174.939 34.3581 174.223 33.7852 173.611 33.1602C173.012 32.5221 172.536 31.806 172.185 31.0117C171.846 30.2174 171.677 29.2865 171.677 28.2188C171.677 26.9036 171.97 25.7643 172.556 24.8008C173.155 23.8242 173.936 23.0234 174.9 22.3984C175.876 21.7604 176.983 21.2917 178.22 20.9922C179.457 20.6797 180.72 20.5234 182.009 20.5234C184.939 20.5234 187.074 20.8555 188.415 21.5195V26.1094C186.827 24.9635 184.782 24.3906 182.282 24.3906C181.592 24.3906 180.902 24.4557 180.212 24.5859C179.535 24.7161 178.923 24.931 178.376 25.2305C177.842 25.5299 177.406 25.9141 177.068 26.3828C176.729 26.8516 176.56 27.418 176.56 28.082C176.56 28.707 176.69 29.2474 176.95 29.7031C177.211 30.1589 177.588 30.5755 178.083 30.9531C178.591 31.3307 179.203 31.7018 179.919 32.0664C180.648 32.418 181.488 32.8021 182.439 33.2188C183.415 33.7266 184.333 34.2604 185.193 34.8203C186.065 35.3802 186.827 35.9987 187.478 36.6758C188.142 37.3529 188.663 38.1081 189.04 38.9414C189.431 39.7617 189.626 40.6992 189.626 41.7539C189.626 43.1732 189.34 44.3711 188.767 45.3477C188.194 46.3242 187.419 47.1185 186.443 47.7305C185.479 48.3424 184.366 48.7852 183.103 49.0586C181.84 49.332 180.505 49.4688 179.099 49.4688C178.63 49.4688 178.051 49.4297 177.361 49.3516C176.684 49.2865 175.987 49.1823 175.271 49.0391C174.555 48.9089 173.878 48.7461 173.24 48.5508C172.601 48.3555 172.087 48.1341 171.697 47.8867ZM203.142 49.4688C200.056 49.4688 197.588 48.5378 195.74 46.6758C193.904 44.8008 192.986 42.3203 192.986 39.2344C192.986 35.875 193.943 33.2513 195.857 31.3633C197.784 29.4753 200.375 28.5312 203.63 28.5312C206.755 28.5312 209.19 29.4492 210.935 31.2852C212.68 33.1211 213.552 35.6667 213.552 38.9219C213.552 42.112 212.608 44.6706 210.72 46.5977C208.845 48.5117 206.319 49.4688 203.142 49.4688ZM203.357 32.1445C201.586 32.1445 200.186 32.763 199.157 34C198.129 35.237 197.615 36.9427 197.615 39.1172C197.615 41.2135 198.135 42.8672 199.177 44.0781C200.219 45.276 201.612 45.875 203.357 45.875C205.141 45.875 206.508 45.2826 207.458 44.0977C208.422 42.9128 208.904 41.2266 208.904 39.0391C208.904 36.8385 208.422 35.1393 207.458 33.9414C206.508 32.7435 205.141 32.1445 203.357 32.1445ZM222.732 49H218.181V19.3906H222.732V49ZM245.876 29L238.142 49H233.24L225.876 29H230.798L235.232 42.9844C235.57 44.013 235.779 44.9115 235.857 45.6797H235.915C236.032 44.7161 236.215 43.8438 236.462 43.0625L241.111 29H245.876ZM265.583 40.2305H251.95C252.003 42.0794 252.569 43.5052 253.65 44.5078C254.743 45.5104 256.241 46.0117 258.142 46.0117C260.277 46.0117 262.237 45.3737 264.021 44.0977V47.75C262.198 48.8958 259.789 49.4688 256.794 49.4688C253.851 49.4688 251.54 48.5638 249.861 46.7539C248.194 44.931 247.361 42.3724 247.361 39.0781C247.361 35.9661 248.279 33.4336 250.115 31.4805C251.963 29.5143 254.255 28.5312 256.99 28.5312C259.724 28.5312 261.84 29.4102 263.337 31.168C264.835 32.9258 265.583 35.3672 265.583 38.4922V40.2305ZM261.208 37.0273C261.195 35.3997 260.811 34.1367 260.056 33.2383C259.301 32.3268 258.259 31.8711 256.931 31.8711C255.629 31.8711 254.522 32.3464 253.611 33.2969C252.712 34.2474 252.159 35.4909 251.95 37.0273H261.208Z" fill="white"/>
</svg>
