<svg width="113" height="63" viewBox="0 0 113 63" fill="none" xmlns="http://www.w3.org/2000/svg">
<rect width="113" height="63" rx="10" fill="#3C3D3F" fill-opacity="0.12"/>
<path d="M64.598 38V23.4545H66.7926V36.1108H73.3835V38H64.598ZM73.0752 25.3438V23.4545H84.3323V25.3438H79.794V38H77.6065V25.3438H73.0752ZM98.0759 28.1847H95.8599C95.7747 27.7112 95.6161 27.2945 95.3841 26.9347C95.1521 26.5748 94.868 26.2694 94.5318 26.0185C94.1956 25.7675 93.8192 25.5781 93.4026 25.4503C92.9906 25.3224 92.5527 25.2585 92.0886 25.2585C91.2506 25.2585 90.5001 25.4692 89.8372 25.8906C89.1791 26.312 88.6582 26.9299 88.2747 27.7443C87.8959 28.5587 87.7065 29.553 87.7065 30.7273C87.7065 31.911 87.8959 32.91 88.2747 33.7244C88.6582 34.5388 89.1814 35.1544 89.8443 35.571C90.5072 35.9877 91.2529 36.196 92.0815 36.196C92.5408 36.196 92.9764 36.1345 93.3884 36.0114C93.805 35.8835 94.1814 35.6965 94.5176 35.4503C94.8538 35.2041 95.1379 34.9034 95.3699 34.5483C95.6066 34.1884 95.77 33.7765 95.8599 33.3125L98.0759 33.3196C97.9575 34.0346 97.7278 34.6927 97.3869 35.294C97.0508 35.8906 96.6175 36.4067 96.0872 36.8423C95.5616 37.2732 94.9603 37.607 94.2832 37.8438C93.6062 38.0805 92.8675 38.1989 92.0673 38.1989C90.8079 38.1989 89.6857 37.9006 88.7009 37.304C87.716 36.7027 86.9395 35.8433 86.3713 34.7259C85.8079 33.6084 85.5261 32.2756 85.5261 30.7273C85.5261 29.1742 85.8102 27.8414 86.3784 26.7287C86.9466 25.6113 87.7231 24.7543 88.708 24.1577C89.6928 23.5563 90.8126 23.2557 92.0673 23.2557C92.8391 23.2557 93.5588 23.367 94.2264 23.5895C94.8988 23.8073 95.5025 24.1293 96.0375 24.5554C96.5725 24.9768 97.0152 25.4929 97.3656 26.1037C97.716 26.7098 97.9527 27.4034 98.0759 28.1847Z" fill="white"/>
<path fill-rule="evenodd" clip-rule="evenodd" d="M33.9997 12.155L47.3197 19.845C47.9277 20.1961 48.4327 20.701 48.7838 21.3091C49.1348 21.9172 49.3197 22.6069 49.3197 23.309V38.691C49.3197 39.3932 49.1348 40.0829 48.7838 40.691C48.4327 41.299 47.9277 41.804 47.3197 42.155L33.9997 49.845C33.3916 50.1961 32.7018 50.3809 31.9997 50.3809C31.2975 50.3809 30.6078 50.1961 29.9997 49.845L16.6797 42.155C16.0716 41.804 15.5667 41.299 15.2156 40.691C14.8645 40.0829 14.6797 39.3932 14.6797 38.691V23.309C14.6797 22.6069 14.8645 21.9172 15.2156 21.3091C15.5667 20.701 16.0716 20.1961 16.6797 19.845L29.9997 12.155C30.6078 11.804 31.2975 11.6191 31.9997 11.6191C32.7018 11.6191 33.3916 11.804 33.9997 12.155Z" fill="url(#paint0_linear_0_1251)"/>
<path fill-rule="evenodd" clip-rule="evenodd" d="M36.1958 37.417C35.0198 37.842 33.9288 37.681 33.4438 37.617C33.2048 37.586 32.8008 37.512 32.3698 37.423L31.6548 40.09L30.0128 39.65L30.7158 37.026L29.4658 36.691L28.7628 39.315L27.1208 38.875L27.8238 36.251L24.5938 35.385L25.4598 33.503L26.4418 33.767C26.7718 33.855 26.9178 33.861 27.0908 33.768C27.2638 33.674 27.3478 33.483 27.3908 33.322L29.2108 26.528C29.3258 26.102 29.3218 25.978 29.1848 25.707C29.0478 25.435 28.5947 25.283 28.3358 25.214L27.3868 24.959L27.8438 23.255L31.0738 24.12L31.7788 21.488L33.4208 21.928L32.7158 24.56L33.9658 24.895L34.6718 22.263L36.3138 22.703L35.5998 25.367C36.8038 25.771 37.6528 26.248 38.2898 27.049C39.1148 28.084 38.7078 29.389 38.5998 29.698C38.4928 30.006 38.1928 30.575 37.8118 30.892C37.4308 31.21 36.6508 31.42 36.6508 31.42C36.6508 31.42 37.4028 31.803 37.8508 32.375C38.2968 32.947 38.5128 33.802 38.1968 34.885C37.8828 35.969 37.3698 36.991 36.1958 37.417ZM32.7878 31.717C32.1775 31.5214 31.5581 31.3555 30.9318 31.22L29.9878 34.742C29.9878 34.742 31.0708 35.057 31.8148 35.199C32.5578 35.34 33.3588 35.358 33.7908 35.251C34.2208 35.144 34.7608 34.943 34.9768 34.138C35.1928 33.332 34.7468 32.851 34.4798 32.615C34.2148 32.379 33.5868 31.989 32.7878 31.718V31.717ZM32.7348 29.952C33.3398 30.089 34.0138 30.122 34.5418 29.992C35.0698 29.862 35.4378 29.532 35.5828 28.93C35.7278 28.328 35.4648 27.714 34.8448 27.326C34.2248 26.938 33.7768 26.801 33.2648 26.656C32.7528 26.511 32.2188 26.416 32.2188 26.416L31.3688 29.586C31.3688 29.586 32.1308 29.814 32.7348 29.952Z" fill="white"/>
<path fill-rule="evenodd" clip-rule="evenodd" d="M33.9997 12.155L47.3197 19.845C47.9277 20.1961 48.4327 20.701 48.7838 21.3091C49.1348 21.9172 49.3197 22.6069 49.3197 23.309V38.691C49.3197 39.3932 49.1348 40.0829 48.7838 40.691C48.4327 41.299 47.9277 41.804 47.3197 42.155L33.9997 49.845C33.3916 50.1961 32.7018 50.3809 31.9997 50.3809C31.2975 50.3809 30.6078 50.1961 29.9997 49.845L16.6797 42.155C16.0716 41.804 15.5667 41.299 15.2156 40.691C14.8645 40.0829 14.6797 39.3932 14.6797 38.691V23.309C14.6797 22.6069 14.8645 21.9172 15.2156 21.3091C15.5667 20.701 16.0716 20.1961 16.6797 19.845L29.9997 12.155C30.6078 11.804 31.2975 11.6191 31.9997 11.6191C32.7018 11.6191 33.3916 11.804 33.9997 12.155Z" fill="url(#paint1_linear_0_1251)"/>
<path fill-rule="evenodd" clip-rule="evenodd" d="M32.227 31.308L30.807 36.092H38.397C38.627 36.092 38.793 36.257 38.793 36.488V36.587L38.133 38.864C38.103 38.9711 38.0379 39.065 37.9481 39.1307C37.8583 39.1963 37.7491 39.2299 37.638 39.226H26.024L27.97 32.595L25.793 33.255L26.288 31.737L28.465 31.077L31.204 21.772C31.2338 21.6647 31.2988 21.5706 31.3886 21.5047C31.4784 21.4389 31.5877 21.4052 31.699 21.409H34.635C34.866 21.409 35.031 21.574 35.031 21.805V21.905L32.721 29.757L34.899 29.097L34.437 30.681L32.227 31.308Z" fill="white"/>
<defs>
<linearGradient id="paint0_linear_0_1251" x1="43.553" y1="38.5711" x2="17.9847" y2="23.6461" gradientUnits="userSpaceOnUse">
<stop stop-color="#FF9400"/>
<stop offset="1" stop-color="#FFBB21"/>
</linearGradient>
<linearGradient id="paint1_linear_0_1251" x1="18.5677" y1="-14.228" x2="69.9561" y2="41.3963" gradientUnits="userSpaceOnUse">
<stop stop-color="white"/>
<stop offset="1" stop-color="#777777"/>
</linearGradient>
</defs>
</svg>
