<svg width="128" height="63" viewBox="0 0 128 63" fill="none" xmlns="http://www.w3.org/2000/svg">
<rect width="128" height="63" rx="10" fill="#3C3D3F" fill-opacity="0.12"/>
<path d="M75.3381 24.4545V39H73.321L65.9276 28.3324H65.7926V39H63.598V24.4545H65.6293L73.0298 35.1364H73.1648V24.4545H75.3381ZM79.5681 39H77.2386L82.4729 24.4545H85.0085L90.2428 39H87.9133L83.8011 27.0966H83.6874L79.5681 39ZM79.9587 33.304H87.5156V35.1506H79.9587V33.304ZM103.883 24.4545V39H101.866L94.4729 28.3324H94.3379V39H92.1433V24.4545H94.1746L101.575 35.1364H101.71V24.4545H103.883ZM119.52 31.7273C119.52 33.2803 119.236 34.6155 118.667 35.733C118.099 36.8456 117.32 37.7027 116.331 38.304C115.346 38.9006 114.226 39.1989 112.971 39.1989C111.712 39.1989 110.587 38.9006 109.598 38.304C108.613 37.7027 107.836 36.8433 107.268 35.7259C106.7 34.6084 106.416 33.2756 106.416 31.7273C106.416 30.1742 106.7 28.8414 107.268 27.7287C107.836 26.6113 108.613 25.7543 109.598 25.1577C110.587 24.5563 111.712 24.2557 112.971 24.2557C114.226 24.2557 115.346 24.5563 116.331 25.1577C117.32 25.7543 118.099 26.6113 118.667 27.7287C119.236 28.8414 119.52 30.1742 119.52 31.7273ZM117.346 31.7273C117.346 30.5436 117.155 29.5469 116.771 28.7372C116.392 27.9228 115.871 27.3073 115.209 26.8906C114.55 26.4692 113.805 26.2585 112.971 26.2585C112.133 26.2585 111.385 26.4692 110.727 26.8906C110.069 27.3073 109.548 27.9228 109.165 28.7372C108.786 29.5469 108.596 30.5436 108.596 31.7273C108.596 32.911 108.786 33.91 109.165 34.7244C109.548 35.5341 110.069 36.1496 110.727 36.571C111.385 36.9877 112.133 37.196 112.971 37.196C113.805 37.196 114.55 36.9877 115.209 36.571C115.871 36.1496 116.392 35.5341 116.771 34.7244C117.155 33.91 117.346 32.911 117.346 31.7273Z" fill="white"/>
<path fill-rule="evenodd" clip-rule="evenodd" d="M33.0192 13.536L46.3392 21.226C46.9473 21.5771 47.4522 22.082 47.8033 22.6901C48.1544 23.2981 48.3392 23.9879 48.3392 24.69V40.072C48.3392 40.7742 48.1544 41.4639 47.8033 42.072C47.4522 42.68 46.9473 43.185 46.3392 43.536L33.0192 51.226C32.4111 51.5771 31.7214 51.7619 31.0192 51.7619C30.3171 51.7619 29.6273 51.5771 29.0192 51.226L15.6992 43.536C15.0912 43.185 14.5862 42.68 14.2351 42.072C13.8841 41.4639 13.6992 40.7742 13.6992 40.072V24.69C13.6992 23.9879 13.8841 23.2981 14.2351 22.6901C14.5862 22.082 15.0912 21.5771 15.6992 21.226L29.0192 13.536C29.6273 13.1849 30.3171 13.0001 31.0192 13.0001C31.7214 13.0001 32.4111 13.1849 33.0192 13.536Z" fill="url(#paint0_linear_112_100)"/>
<path d="M36.0003 40.5H37.3233L33.8133 34.99H36.1833V34.023H33.1963L31.9633 32.088H36.1833V31.121H32.0023L36.8143 23.5H35.5493L31.0023 30.66L26.4273 23.5H25.0793L29.9523 31.12H25.8253V32.088H29.9953L28.7473 34.023H25.8253V34.99H28.1223L24.5703 40.5H25.8833L29.4903 34.99H32.4793L35.9993 40.5H36.0003ZM30.1233 34.023L31.0023 32.68L31.8603 34.023H30.1233Z" fill="white"/>
<defs>
<linearGradient id="paint0_linear_112_100" x1="6.01922" y1="13.381" x2="59.2722" y2="42.414" gradientUnits="userSpaceOnUse">
<stop stop-color="#209CE9"/>
<stop offset="1" stop-color="#0980CA"/>
</linearGradient>
</defs>
</svg>
