<svg width="128" height="63" viewBox="0 0 128 63" fill="none" xmlns="http://www.w3.org/2000/svg">
<rect width="128" height="63" rx="10" fill="#3C3D3F" fill-opacity="0.12"/>
<path d="M75.5312 27.2756C75.4555 26.6032 75.143 26.0824 74.5938 25.7131C74.0445 25.339 73.3532 25.152 72.5199 25.152C71.9233 25.152 71.4072 25.2467 70.9716 25.4361C70.536 25.6207 70.1974 25.8764 69.956 26.2031C69.7192 26.5251 69.6009 26.892 69.6009 27.304C69.6009 27.6496 69.6813 27.9479 69.8423 28.1989C70.008 28.4498 70.2235 28.6605 70.4886 28.831C70.7585 28.9967 71.0473 29.1364 71.3551 29.25C71.6629 29.3589 71.9588 29.4489 72.2429 29.5199L73.6634 29.8892C74.1274 30.0028 74.6032 30.1567 75.0909 30.3509C75.5786 30.545 76.0308 30.8007 76.4474 31.1179C76.8641 31.4351 77.2003 31.8281 77.456 32.2969C77.7164 32.7656 77.8466 33.3267 77.8466 33.9801C77.8466 34.804 77.6335 35.5355 77.2074 36.1747C76.786 36.8139 76.1728 37.3182 75.3679 37.6875C74.5677 38.0568 73.5994 38.2415 72.4631 38.2415C71.3741 38.2415 70.4318 38.0687 69.6364 37.723C68.8409 37.3774 68.2183 36.8873 67.7685 36.2528C67.3187 35.6136 67.0701 34.8561 67.0227 33.9801H69.2244C69.267 34.5057 69.4375 34.9437 69.7358 35.294C70.0388 35.6397 70.4247 35.8977 70.8935 36.0682C71.367 36.2339 71.8854 36.3168 72.4489 36.3168C73.0691 36.3168 73.6207 36.2197 74.1037 36.0256C74.5914 35.8267 74.9749 35.5521 75.2543 35.2017C75.5336 34.8466 75.6733 34.4323 75.6733 33.9588C75.6733 33.5279 75.5502 33.1752 75.304 32.9006C75.0625 32.6259 74.7334 32.3987 74.3168 32.2188C73.9048 32.0388 73.4384 31.8802 72.9176 31.7429L71.1989 31.2741C70.0341 30.9569 69.1108 30.4905 68.429 29.875C67.7519 29.2595 67.4134 28.4451 67.4134 27.4318C67.4134 26.5937 67.6406 25.8622 68.0952 25.2372C68.5497 24.6122 69.1652 24.1269 69.9418 23.7812C70.7183 23.4309 71.5942 23.2557 72.5696 23.2557C73.5545 23.2557 74.4233 23.4285 75.1761 23.7741C75.9337 24.1198 76.5303 24.5956 76.9659 25.2017C77.4015 25.803 77.6288 26.4943 77.6477 27.2756H75.5312ZM80.2691 38V23.4545H82.4637V29.7756H89.7151V23.4545H91.9168V38H89.7151V31.6577H82.4637V38H80.2691ZM97.1075 23.4545V38H94.9129V23.4545H97.1075ZM100.103 38V23.4545H105.43C106.462 23.4545 107.317 23.625 107.994 23.9659C108.671 24.3021 109.178 24.759 109.514 25.3366C109.85 25.9096 110.018 26.5559 110.018 27.2756C110.018 27.8816 109.907 28.393 109.684 28.8097C109.462 29.2216 109.164 29.553 108.79 29.804C108.42 30.0502 108.013 30.2301 107.568 30.3438V30.4858C108.051 30.5095 108.522 30.6657 108.981 30.9545C109.445 31.2386 109.829 31.6435 110.132 32.169C110.435 32.6946 110.586 33.3338 110.586 34.0866C110.586 34.83 110.411 35.4976 110.061 36.0895C109.715 36.6766 109.18 37.143 108.456 37.4886C107.731 37.8295 106.806 38 105.679 38H100.103ZM102.298 36.1179H105.466C106.517 36.1179 107.27 35.9143 107.724 35.5071C108.179 35.0999 108.406 34.5909 108.406 33.9801C108.406 33.5208 108.29 33.0994 108.058 32.7159C107.826 32.3324 107.495 32.027 107.064 31.7997C106.638 31.5724 106.131 31.4588 105.544 31.4588H102.298V36.1179ZM102.298 29.7472H105.238C105.731 29.7472 106.174 29.6525 106.567 29.4631C106.964 29.2737 107.279 29.0085 107.511 28.6676C107.748 28.322 107.866 27.9148 107.866 27.446C107.866 26.8447 107.656 26.3404 107.234 25.9332C106.813 25.526 106.166 25.3224 105.295 25.3224H102.298V29.7472Z" fill="white"/>
<path fill-rule="evenodd" clip-rule="evenodd" d="M36.9997 12.155L50.3197 19.845C50.9277 20.1961 51.4327 20.701 51.7838 21.3091C52.1348 21.9172 52.3197 22.6069 52.3197 23.309V38.691C52.3197 39.3932 52.1348 40.0829 51.7838 40.691C51.4327 41.299 50.9277 41.804 50.3197 42.155L36.9997 49.845C36.3916 50.1961 35.7018 50.3809 34.9997 50.3809C34.2975 50.3809 33.6078 50.1961 32.9997 49.845L19.6797 42.155C19.0716 41.804 18.5667 41.299 18.2156 40.691C17.8645 40.0829 17.6797 39.3932 17.6797 38.691V23.309C17.6797 22.6069 17.8645 21.9172 18.2156 21.3091C18.5667 20.701 19.0716 20.1961 19.6797 19.845L32.9997 12.155C33.6078 11.804 34.2975 11.6191 34.9997 11.6191C35.7018 11.6191 36.3916 11.804 36.9997 12.155Z" fill="url(#paint0_linear_0_1283)"/>
<path fill-rule="evenodd" clip-rule="evenodd" d="M39.1958 37.417C38.0198 37.842 36.9288 37.681 36.4438 37.617C36.2048 37.586 35.8008 37.512 35.3698 37.423L34.6548 40.09L33.0128 39.65L33.7158 37.026L32.4658 36.691L31.7628 39.315L30.1208 38.875L30.8238 36.251L27.5938 35.385L28.4598 33.503L29.4418 33.767C29.7718 33.855 29.9178 33.861 30.0908 33.768C30.2638 33.674 30.3478 33.483 30.3908 33.322L32.2108 26.528C32.3258 26.102 32.3218 25.978 32.1848 25.707C32.0478 25.435 31.5947 25.283 31.3358 25.214L30.3868 24.959L30.8438 23.255L34.0738 24.12L34.7788 21.488L36.4208 21.928L35.7158 24.56L36.9658 24.895L37.6718 22.263L39.3138 22.703L38.5998 25.367C39.8038 25.771 40.6528 26.248 41.2898 27.049C42.1148 28.084 41.7078 29.389 41.5998 29.698C41.4928 30.006 41.1928 30.575 40.8118 30.892C40.4308 31.21 39.6508 31.42 39.6508 31.42C39.6508 31.42 40.4028 31.803 40.8508 32.375C41.2968 32.947 41.5128 33.802 41.1968 34.885C40.8828 35.969 40.3698 36.991 39.1958 37.417ZM35.7878 31.717C35.1775 31.5214 34.5581 31.3555 33.9318 31.22L32.9878 34.742C32.9878 34.742 34.0708 35.057 34.8148 35.199C35.5578 35.34 36.3588 35.358 36.7908 35.251C37.2208 35.144 37.7608 34.943 37.9768 34.138C38.1928 33.332 37.7468 32.851 37.4798 32.615C37.2148 32.379 36.5868 31.989 35.7878 31.718V31.717ZM35.7348 29.952C36.3398 30.089 37.0138 30.122 37.5418 29.992C38.0698 29.862 38.4378 29.532 38.5828 28.93C38.7278 28.328 38.4648 27.714 37.8448 27.326C37.2248 26.938 36.7768 26.801 36.2648 26.656C35.7528 26.511 35.2188 26.416 35.2188 26.416L34.3688 29.586C34.3688 29.586 35.1308 29.814 35.7348 29.952Z" fill="white"/>
<path fill-rule="evenodd" clip-rule="evenodd" d="M36.9997 12.155L50.3197 19.845C50.9277 20.1961 51.4327 20.701 51.7838 21.3091C52.1348 21.9172 52.3197 22.6069 52.3197 23.309V38.691C52.3197 39.3932 52.1348 40.0829 51.7838 40.691C51.4327 41.299 50.9277 41.804 50.3197 42.155L36.9997 49.845C36.3916 50.1961 35.7018 50.3809 34.9997 50.3809C34.2975 50.3809 33.6078 50.1961 32.9997 49.845L19.6797 42.155C19.0716 41.804 18.5667 41.299 18.2156 40.691C17.8645 40.0829 17.6797 39.3932 17.6797 38.691V23.309C17.6797 22.6069 17.8645 21.9172 18.2156 21.3091C18.5667 20.701 19.0716 20.1961 19.6797 19.845L32.9997 12.155C33.6078 11.804 34.2975 11.6191 34.9997 11.6191C35.7018 11.6191 36.3916 11.804 36.9997 12.155Z" fill="url(#paint1_linear_0_1283)"/>
<mask id="mask0_0_1283" style="mask-type:alpha" maskUnits="userSpaceOnUse" x="27" y="23" width="16" height="17">
<path d="M27.0039 23.7061H42.9989V39.4281H27.0039V23.7061Z" fill="white"/>
</mask>
<g mask="url(#mask0_0_1283)">
<path fill-rule="evenodd" clip-rule="evenodd" d="M37.6069 32.0961C37.6559 32.0961 37.6759 32.1031 37.6509 32.1101C37.6221 32.1175 37.5918 32.1175 37.5629 32.1101C37.5389 32.1031 37.5589 32.0971 37.6069 32.0971V32.0961ZM39.8569 30.0981C39.9169 30.0981 39.9419 30.1031 39.9119 30.1101C39.8756 30.1169 39.8383 30.1169 39.8019 30.1101C39.7719 30.1031 39.7959 30.0981 39.8569 30.0981ZM27.6729 27.3261L27.7329 27.5461C27.7899 27.7731 27.9059 28.1281 28.0639 28.5561C28.2129 28.9581 28.2119 28.9761 28.0569 29.3111L27.8739 29.7071C27.7394 30.0146 27.6193 30.3283 27.5139 30.6471C27.4869 30.7141 27.3799 31.0711 27.2719 31.4571C27.2099 31.6771 27.0849 32.4121 27.0519 32.7471C26.9399 33.9031 27.0149 34.4221 27.3709 34.9371C27.3909 34.9651 27.4119 35.0031 27.4179 35.0211C27.4249 35.0391 27.4709 35.1141 27.5219 35.1871C27.5719 35.2611 27.6129 35.3251 27.6129 35.3301C27.6129 35.3461 27.8369 35.6431 27.9229 35.7401C28.4099 36.2971 28.6309 36.5101 29.2329 37.0011C29.5429 37.2531 30.2199 37.7391 30.2629 37.7391C30.2659 37.7391 30.3369 37.7841 30.4199 37.8391C30.5039 37.8941 30.5769 37.9391 30.5829 37.9391C30.5899 37.9391 30.6279 37.9611 30.6689 37.9881C31.0649 38.2451 32.2489 38.7981 32.7649 38.9681C33.0119 39.0566 33.2621 39.1359 33.5149 39.2061C34.2779 39.4091 35.0779 39.4781 35.6449 39.3911C35.7344 39.3763 35.8245 39.3659 35.9149 39.3601C35.9519 39.3601 36.0379 39.3471 36.1049 39.3311C36.1709 39.3161 36.2929 39.2881 36.3749 39.2711C36.7369 39.1911 36.8879 39.1551 36.9199 39.1381C36.9391 39.1277 36.9602 39.1212 36.9819 39.1191C37.0189 39.1191 37.2709 39.0431 37.3489 39.0081C37.3741 38.9954 37.4006 38.9857 37.4279 38.9791C37.4669 38.9791 38.0579 38.7531 38.3149 38.6391C39.0808 38.2991 39.8089 37.8794 40.4869 37.3871C40.7299 37.2131 41.3359 36.6941 41.4629 36.5501L41.6649 36.3291C41.9899 35.9761 42.0809 35.8611 42.3469 35.4691C42.5069 35.2321 42.7509 34.7771 42.7969 34.6291C42.8069 34.5951 42.8369 34.5031 42.8669 34.4241C42.9149 34.2881 42.9299 34.2341 42.9799 33.9881C42.9919 33.9331 42.9999 33.7081 42.9999 33.4881C42.9969 32.7621 42.9069 31.9451 42.7759 31.4581L42.7059 31.1731C42.5799 30.6401 42.3439 30.0351 42.0229 29.4171C41.9523 29.2824 41.8823 29.1474 41.8129 29.0121L41.7759 28.9371L41.9039 28.5521C42.1001 27.9708 42.2719 27.3816 42.4189 26.7861C42.4449 26.6791 42.4729 26.5721 42.4929 26.4951C41.6908 25.3368 40.6293 24.3817 39.3929 23.7061C39.3759 23.7241 39.3559 23.7461 39.3339 23.7661C39.0697 24.0347 38.8168 24.3142 38.5759 24.6041C38.5359 24.6491 38.4159 24.7911 38.3089 24.9211C38.2009 25.0511 38.1109 25.1561 38.1089 25.1561L37.8859 25.0861C37.7471 25.0418 37.607 25.0015 37.4659 24.9651L37.1959 24.8951C37.054 24.8586 36.9105 24.8283 36.7659 24.8041C36.2509 24.7041 35.3319 24.6241 34.8839 24.6421C34.0709 24.6731 33.6379 24.7221 33.0039 24.8541C32.8349 24.8891 32.1559 25.0881 32.0369 25.1371C31.9769 25.1621 31.9749 25.1611 31.7539 24.9271C31.6489 24.8171 31.4059 24.5641 31.2129 24.3661C30.8959 24.0411 30.7289 23.8701 30.6459 23.7781C29.3846 24.4944 28.3138 25.5034 27.5239 26.7201C27.5639 26.9101 27.6139 27.1131 27.6739 27.3261" fill="white"/>
</g>
<mask id="mask1_0_1283" style="mask-type:alpha" maskUnits="userSpaceOnUse" x="27" y="22" width="16" height="13">
<path d="M27 22H43V34.849H27V22Z" fill="white"/>
</mask>
<g mask="url(#mask1_0_1283)">
<path fill-rule="evenodd" clip-rule="evenodd" d="M30.5753 30.15C30.7433 30.186 30.8633 30.223 30.9953 30.282C31.2203 30.382 31.5453 30.548 31.7753 30.679C31.9123 30.757 32.0733 30.848 32.1323 30.88C32.8333 31.266 33.2543 31.668 33.2553 31.954C33.2563 32.412 30.9533 31.882 30.2453 31.261C30.0273 31.07 29.9853 30.621 30.1493 30.227C30.2103 30.08 30.2233 30.077 30.5753 30.151V30.15ZM39.9923 30.187C40.0483 30.39 40.0553 30.454 40.0563 30.771L40.0573 31.094L39.9223 31.217C39.6473 31.467 39.3693 31.62 38.8773 31.793C38.6043 31.89 38.5253 31.912 38.0673 32.019C37.7693 32.089 37.2633 32.119 37.0073 32.085L36.9113 32.072L36.9243 31.952C36.9523 31.681 37.1953 31.405 37.6973 31.075C38.2433 30.715 38.5573 30.541 39.1573 30.263C39.3703 30.163 39.7073 30.079 39.8663 30.084L39.9653 30.087L39.9923 30.187ZM38.7803 28.227C39.4203 28.394 39.7503 29.125 39.3653 29.523C39.1373 29.757 37.8553 29.703 37.6213 29.45C37.5313 29.353 37.4813 29.162 37.5173 29.065C37.5273 29.037 37.5373 28.995 37.5373 28.973C37.5373 28.898 37.6423 28.713 37.7543 28.593C38.0653 28.256 38.4133 28.133 38.7803 28.228V28.227ZM31.6303 28.225C32.2283 28.385 32.6563 29.205 32.2863 29.487C32.0813 29.644 31.3513 29.717 30.8053 29.637C30.3353 29.567 30.2693 28.883 30.6953 28.492C30.9703 28.239 31.3143 28.141 31.6303 28.225ZM27.6703 22.031C27.3203 22.261 27.0873 23.433 27.1943 24.422L27.2343 24.856C27.2673 25.284 27.3213 25.705 27.3843 26.026C27.4016 26.1154 27.4156 26.2055 27.4263 26.296C27.4333 26.368 27.4463 26.431 27.4543 26.436C27.4623 26.442 27.4783 26.496 27.4903 26.556C27.5433 26.82 27.6003 27.058 27.6743 27.326L27.7343 27.546C27.7903 27.773 27.9073 28.129 28.0653 28.556C28.2133 28.958 28.2133 28.976 28.0573 29.311L27.8743 29.707C27.7398 30.0146 27.6197 30.3282 27.5143 30.647C27.4265 30.9148 27.3458 31.1849 27.2723 31.457C27.2393 31.578 27.1553 32.021 27.1023 32.357C27.0593 32.639 26.9863 33.417 27.0023 33.433C27.0543 33.4331 27.1062 33.428 27.1573 33.418C27.4583 33.372 27.6353 33.361 28.0643 33.36C28.5563 33.36 28.7923 33.384 29.2183 33.476C29.9553 33.636 30.8233 34.14 31.4243 34.756C31.5473 34.882 31.5363 34.884 31.6043 34.733C32.1773 33.469 32.8513 32.733 33.8053 32.329C34.4123 32.073 35.2613 32.031 35.9963 32.221C36.9803 32.476 37.8133 33.249 38.2563 34.318L38.3373 34.508C38.3473 34.53 38.3793 34.611 38.4073 34.688C38.4373 34.764 38.4643 34.835 38.4703 34.844C38.4763 34.854 38.5403 34.804 38.6143 34.734C39.0823 34.288 39.5103 34.009 40.1833 33.712C40.2141 33.6968 40.2467 33.6854 40.2803 33.678C40.2923 33.678 40.3303 33.666 40.3643 33.65C40.5503 33.568 40.9043 33.482 41.3073 33.423C41.6873 33.367 42.7993 33.39 42.9673 33.457C43.0213 33.478 43.0053 33 42.9303 32.327C42.8989 32.0338 42.8478 31.7432 42.7773 31.457L42.7073 31.174C42.5803 30.641 42.3453 30.034 42.0233 29.417C41.953 29.2823 41.8833 29.1473 41.8143 29.012L41.7773 28.937L41.9053 28.552C42.1011 27.9707 42.2726 27.3815 42.4193 26.786C42.4633 26.61 42.5113 26.426 42.5273 26.376C42.5553 26.286 42.5773 26.19 42.6313 25.926C42.7243 25.465 42.7743 25.176 42.8083 24.896L42.8583 24.476C42.8883 24.234 42.8893 23.327 42.8613 23.156C42.8083 22.832 42.7953 22.771 42.7463 22.623C42.6193 22.234 42.4813 22.008 42.3793 22.023L42.2083 22.047C42.1183 22.058 41.9803 22.091 41.7183 22.165C41.1073 22.337 40.1083 22.973 39.5683 23.533C39.5243 23.579 39.4783 23.616 39.4633 23.616C39.4565 23.6159 39.4501 23.6186 39.4452 23.6232C39.4404 23.6279 39.4375 23.6342 39.4373 23.641C39.4112 23.6886 39.3767 23.7309 39.3353 23.766C39.0707 24.0346 38.8174 24.3141 38.5763 24.604L38.3093 24.921C38.2439 25.0004 38.1772 25.0787 38.1093 25.156L37.8863 25.086C37.7474 25.0418 37.6073 25.0014 37.4663 24.965L37.1963 24.895C37.0543 24.8586 36.9108 24.8282 36.7663 24.804C36.2513 24.704 35.3323 24.624 34.8863 24.642C34.0733 24.674 33.6403 24.722 33.0063 24.854C32.8363 24.889 32.1573 25.088 32.0383 25.137C31.9783 25.162 31.9773 25.162 31.7553 24.927C31.6513 24.817 31.4073 24.564 31.2153 24.366C30.6383 23.776 30.5543 23.683 30.5693 23.664C30.5783 23.654 30.5763 23.652 30.5663 23.661C30.5563 23.669 30.4883 23.619 30.4163 23.551C29.6803 22.858 29.1433 22.456 28.6233 22.213C28.2463 22.036 27.7943 21.949 27.6703 22.031Z" fill="#FBA10B"/>
</g>
<path fill-rule="evenodd" clip-rule="evenodd" d="M34.4049 36.684C34.4239 36.772 34.4589 36.807 34.5799 36.859L34.6829 36.904L34.7489 36.831C34.8639 36.705 34.9559 36.741 35.0839 36.964C35.1649 37.106 35.2649 37.079 35.4599 36.862C35.5499 36.762 35.5429 36.763 35.6539 36.848L35.7439 36.915L35.8179 36.862C35.9039 36.8 35.9249 36.771 35.9439 36.683L35.9579 36.619H34.3909L34.4049 36.684ZM34.3549 33.329C34.0899 33.412 33.9749 33.763 34.0539 34.249C34.1139 34.621 34.5639 35.033 35.0999 35.206C35.1309 35.216 35.1349 35.249 35.1349 35.516V35.815L35.0669 35.855C35.0147 35.8924 34.9697 35.9388 34.9339 35.992L34.8619 36.097C34.8309 36.136 34.0959 36.104 33.8039 36.05C33.6439 36.02 33.1719 36.008 33.1479 36.032C33.1409 36.039 33.1619 36.075 33.1949 36.112C33.2799 36.209 33.3249 36.307 33.3629 36.484L33.3969 36.639H33.4769C33.5639 36.639 33.5639 36.64 33.6239 36.839C33.6649 36.973 33.7809 37.226 33.8319 37.29L33.8689 37.338L33.9069 37.254C33.9399 37.179 33.9439 37.123 33.9409 36.767L33.9379 36.365L34.0409 36.373C34.0979 36.378 34.2259 36.39 34.3249 36.401C34.9334 36.463 35.5465 36.463 36.1549 36.401C36.2379 36.391 36.3749 36.377 36.4589 36.371L36.6129 36.357L36.6089 36.743C36.6049 37.108 36.6079 37.133 36.6489 37.213C36.6959 37.299 36.7349 37.339 36.7349 37.298C36.7349 37.286 36.7479 37.247 36.7649 37.212C36.7799 37.177 36.8329 37.046 36.8819 36.919L36.9719 36.689L37.0769 36.657L37.1829 36.625L37.2459 36.395C37.2809 36.27 37.3159 36.134 37.3229 36.093L37.3369 36.019H37.0409C36.7969 36.019 36.7309 36.026 36.6639 36.056C36.5459 36.11 36.3839 36.124 36.0629 36.108L35.7779 36.094L35.6869 35.977C35.6339 35.909 35.5739 35.854 35.5449 35.847L35.4939 35.834L35.4989 35.532L35.5049 35.229L35.5849 35.192C36.1989 34.909 36.3819 34.637 36.3839 34.008C36.3849 33.53 36.3249 33.42 36.0119 33.33C35.8559 33.286 34.4959 33.285 34.3549 33.329ZM39.6459 30.11C39.2699 30.188 38.7589 30.423 38.1059 30.817C37.2619 31.327 36.9559 31.623 36.9209 31.967L36.9099 32.073L37.1419 32.088C38.0479 32.145 39.3599 31.731 39.9319 31.208L40.0559 31.094V30.771C40.0539 30.461 40.0489 30.406 39.9939 30.192L39.9689 30.097L39.8279 30.1C39.7499 30.1 39.6679 30.106 39.6459 30.11ZM30.1989 30.123C30.0919 30.268 30.0189 30.75 30.0729 30.955L30.1029 31.08C30.1249 31.19 30.4239 31.421 30.7719 31.597C31.4649 31.947 32.8299 32.221 33.1649 32.077L33.2599 32.037L33.2489 31.93C33.2219 31.67 32.9839 31.417 32.4309 31.062C32.3646 31.0172 32.2962 30.9755 32.2259 30.937C32.1485 30.8979 32.0728 30.8555 31.9989 30.81C31.5469 30.543 31.0629 30.3 30.8219 30.22C30.5689 30.137 30.2289 30.083 30.1989 30.123Z" fill="#060505"/>
<defs>
<linearGradient id="paint0_linear_0_1283" x1="46.553" y1="38.5711" x2="20.9847" y2="23.6461" gradientUnits="userSpaceOnUse">
<stop stop-color="#FF9400"/>
<stop offset="1" stop-color="#FFBB21"/>
</linearGradient>
<linearGradient id="paint1_linear_0_1283" x1="59.1178" y1="55.4459" x2="13.3292" y2="16.7696" gradientUnits="userSpaceOnUse">
<stop stop-color="#7A0100"/>
<stop offset="1" stop-color="#F30504"/>
</linearGradient>
</defs>
</svg>
