<svg width="113" height="63" viewBox="0 0 113 63" fill="none" xmlns="http://www.w3.org/2000/svg">
<rect width="113" height="63" rx="10" fill="#3C3D3F" fill-opacity="0.12"/>
<path d="M71.5312 27.2756C71.4555 26.6032 71.143 26.0824 70.5938 25.7131C70.0445 25.339 69.3532 25.152 68.5199 25.152C67.9233 25.152 67.4072 25.2467 66.9716 25.4361C66.536 25.6207 66.1974 25.8764 65.956 26.2031C65.7192 26.5251 65.6009 26.892 65.6009 27.304C65.6009 27.6496 65.6813 27.9479 65.8423 28.1989C66.008 28.4498 66.2235 28.6605 66.4886 28.831C66.7585 28.9967 67.0473 29.1364 67.3551 29.25C67.6629 29.3589 67.9588 29.4489 68.2429 29.5199L69.6634 29.8892C70.1274 30.0028 70.6032 30.1567 71.0909 30.3509C71.5786 30.545 72.0308 30.8007 72.4474 31.1179C72.8641 31.4351 73.2003 31.8281 73.456 32.2969C73.7164 32.7656 73.8466 33.3267 73.8466 33.9801C73.8466 34.804 73.6335 35.5355 73.2074 36.1747C72.786 36.8139 72.1728 37.3182 71.3679 37.6875C70.5677 38.0568 69.5994 38.2415 68.4631 38.2415C67.3741 38.2415 66.4318 38.0687 65.6364 37.723C64.8409 37.3774 64.2183 36.8873 63.7685 36.2528C63.3187 35.6136 63.0701 34.8561 63.0227 33.9801H65.2244C65.267 34.5057 65.4375 34.9437 65.7358 35.294C66.0388 35.6397 66.4247 35.8977 66.8935 36.0682C67.367 36.2339 67.8854 36.3168 68.4489 36.3168C69.0691 36.3168 69.6207 36.2197 70.1037 36.0256C70.5914 35.8267 70.9749 35.5521 71.2543 35.2017C71.5336 34.8466 71.6733 34.4323 71.6733 33.9588C71.6733 33.5279 71.5502 33.1752 71.304 32.9006C71.0625 32.6259 70.7334 32.3987 70.3168 32.2188C69.9048 32.0388 69.4384 31.8802 68.9176 31.7429L67.1989 31.2741C66.0341 30.9569 65.1108 30.4905 64.429 29.875C63.7519 29.2595 63.4134 28.4451 63.4134 27.4318C63.4134 26.5937 63.6406 25.8622 64.0952 25.2372C64.5497 24.6122 65.1652 24.1269 65.9418 23.7812C66.7183 23.4309 67.5942 23.2557 68.5696 23.2557C69.5545 23.2557 70.4233 23.4285 71.1761 23.7741C71.9337 24.1198 72.5303 24.5956 72.9659 25.2017C73.4015 25.803 73.6288 26.4943 73.6477 27.2756H71.5312ZM88.904 30.7273C88.904 32.2803 88.62 33.6155 88.0518 34.733C87.4836 35.8456 86.7047 36.7027 85.7151 37.304C84.7303 37.9006 83.6105 38.1989 82.3558 38.1989C81.0963 38.1989 79.9718 37.9006 78.9822 37.304C77.9973 36.7027 77.2208 35.8433 76.6526 34.7259C76.0844 33.6084 75.8004 32.2756 75.8004 30.7273C75.8004 29.1742 76.0844 27.8414 76.6526 26.7287C77.2208 25.6113 77.9973 24.7543 78.9822 24.1577C79.9718 23.5563 81.0963 23.2557 82.3558 23.2557C83.6105 23.2557 84.7303 23.5563 85.7151 24.1577C86.7047 24.7543 87.4836 25.6113 88.0518 26.7287C88.62 27.8414 88.904 29.1742 88.904 30.7273ZM86.7308 30.7273C86.7308 29.5436 86.539 28.5469 86.1555 27.7372C85.7767 26.9228 85.2558 26.3073 84.593 25.8906C83.9348 25.4692 83.1891 25.2585 82.3558 25.2585C81.5177 25.2585 80.7696 25.4692 80.1114 25.8906C79.4533 26.3073 78.9325 26.9228 78.5489 27.7372C78.1701 28.5469 77.9808 29.5436 77.9808 30.7273C77.9808 31.911 78.1701 32.91 78.5489 33.7244C78.9325 34.5341 79.4533 35.1496 80.1114 35.571C80.7696 35.9877 81.5177 36.196 82.3558 36.196C83.1891 36.196 83.9348 35.9877 84.593 35.571C85.2558 35.1496 85.7767 34.5341 86.1555 33.7244C86.539 32.91 86.7308 31.911 86.7308 30.7273ZM91.4402 38V23.4545H93.6348V36.1108H100.226V38H91.4402Z" fill="white"/>
<path fill-rule="evenodd" clip-rule="evenodd" d="M32.9997 12.155L46.3197 19.845C46.9277 20.1961 47.4327 20.701 47.7838 21.3091C48.1348 21.9172 48.3197 22.6069 48.3197 23.309V38.691C48.3197 39.3932 48.1348 40.0829 47.7838 40.691C47.4327 41.299 46.9277 41.804 46.3197 42.155L32.9997 49.845C32.3916 50.1961 31.7018 50.3809 30.9997 50.3809C30.2975 50.3809 29.6078 50.1961 28.9997 49.845L15.6797 42.155C15.0716 41.804 14.5667 41.299 14.2156 40.691C13.8645 40.0829 13.6797 39.3932 13.6797 38.691V23.309C13.6797 22.6069 13.8645 21.9172 14.2156 21.3091C14.5667 20.701 15.0716 20.1961 15.6797 19.845L28.9997 12.155C29.6078 11.804 30.2975 11.6191 30.9997 11.6191C31.7018 11.6191 32.3916 11.804 32.9997 12.155Z" fill="url(#paint0_linear_0_1136)"/>
<path fill-rule="evenodd" clip-rule="evenodd" d="M35.1958 37.417C34.0198 37.842 32.9288 37.681 32.4438 37.617C32.2048 37.586 31.8008 37.512 31.3698 37.423L30.6548 40.09L29.0128 39.65L29.7158 37.026L28.4658 36.691L27.7628 39.315L26.1208 38.875L26.8238 36.251L23.5938 35.385L24.4598 33.503L25.4418 33.767C25.7718 33.855 25.9178 33.861 26.0908 33.768C26.2638 33.674 26.3478 33.483 26.3908 33.322L28.2108 26.528C28.3258 26.102 28.3218 25.978 28.1848 25.707C28.0478 25.435 27.5947 25.283 27.3358 25.214L26.3868 24.959L26.8438 23.255L30.0738 24.12L30.7788 21.488L32.4208 21.928L31.7158 24.56L32.9658 24.895L33.6718 22.263L35.3138 22.703L34.5998 25.367C35.8038 25.771 36.6528 26.248 37.2898 27.049C38.1148 28.084 37.7078 29.389 37.5998 29.698C37.4928 30.006 37.1928 30.575 36.8118 30.892C36.4308 31.21 35.6508 31.42 35.6508 31.42C35.6508 31.42 36.4028 31.803 36.8508 32.375C37.2968 32.947 37.5128 33.802 37.1968 34.885C36.8828 35.969 36.3698 36.991 35.1958 37.417ZM31.7878 31.717C31.1775 31.5214 30.5581 31.3555 29.9318 31.22L28.9878 34.742C28.9878 34.742 30.0708 35.057 30.8148 35.199C31.5578 35.34 32.3588 35.358 32.7908 35.251C33.2208 35.144 33.7608 34.943 33.9768 34.138C34.1928 33.332 33.7468 32.851 33.4798 32.615C33.2148 32.379 32.5868 31.989 31.7878 31.718V31.717ZM31.7348 29.952C32.3398 30.089 33.0138 30.122 33.5418 29.992C34.0698 29.862 34.4378 29.532 34.5828 28.93C34.7278 28.328 34.4648 27.714 33.8448 27.326C33.2248 26.938 32.7768 26.801 32.2648 26.656C31.7528 26.511 31.2188 26.416 31.2188 26.416L30.3688 29.586C30.3688 29.586 31.1308 29.814 31.7348 29.952Z" fill="white"/>
<path d="M32.937 11.553L46.683 19.489C47.3105 19.8513 47.8317 20.3724 48.194 21C48.5563 21.6275 48.747 22.3394 48.747 23.064V38.936C48.747 39.6606 48.5563 40.3725 48.194 41C47.8317 41.6276 47.3105 42.1487 46.683 42.511L32.937 50.447C32.3096 50.8091 31.5979 50.9998 30.8735 50.9998C30.1491 50.9998 29.4374 50.8091 28.81 50.447L15.064 42.511C14.4365 42.1487 13.9153 41.6276 13.553 41C13.1907 40.3725 13 39.6606 13 38.936V23.064C13 21.589 13.787 20.226 15.064 19.489L28.81 11.553C29.4374 11.1909 30.1491 11.0002 30.8735 11.0002C31.5979 11.0002 32.3096 11.1909 32.937 11.553Z" fill="url(#paint1_linear_0_1136)"/>
<path d="M23.9317 35.093C23.9941 35.0307 24.0681 34.9813 24.1496 34.9476C24.2311 34.914 24.3185 34.8968 24.4067 34.897H40.8237C41.1237 34.897 41.2727 35.259 41.0607 35.47L37.8167 38.712C37.6909 38.8375 37.5204 38.908 37.3427 38.908H20.9247C20.8584 38.9077 20.7937 38.8879 20.7386 38.851C20.6836 38.814 20.6407 38.7617 20.6154 38.7004C20.59 38.6391 20.5834 38.5718 20.5962 38.5067C20.6091 38.4417 20.6409 38.382 20.6877 38.335L23.9317 35.093Z" fill="url(#paint2_linear_0_1136)"/>
<path d="M23.9317 22.983C23.9941 22.9207 24.0681 22.8713 24.1496 22.8376C24.2311 22.804 24.3185 22.7868 24.4067 22.787H40.8237C41.1237 22.787 41.2727 23.149 41.0607 23.36L37.8167 26.602C37.6908 26.7274 37.5204 26.7979 37.3427 26.798H20.9247C20.8584 26.7978 20.7937 26.7779 20.7386 26.741C20.6836 26.7041 20.6407 26.6517 20.6154 26.5904C20.59 26.5292 20.5834 26.4618 20.5962 26.3968C20.6091 26.3317 20.6409 26.272 20.6877 26.225L23.9317 22.983Z" fill="url(#paint3_linear_0_1136)"/>
<path d="M37.8142 29C37.6884 28.8745 37.5179 28.804 37.3402 28.804H20.9222C20.6232 28.804 20.4732 29.165 20.6852 29.377L23.9292 32.618C23.9916 32.6804 24.0656 32.73 24.1471 32.7638C24.2286 32.7976 24.316 32.815 24.4042 32.815H40.8212C41.1212 32.815 41.2702 32.453 41.0582 32.242L37.8142 29Z" fill="url(#paint4_linear_0_1136)"/>
<defs>
<linearGradient id="paint0_linear_0_1136" x1="42.553" y1="38.5711" x2="16.9847" y2="23.6461" gradientUnits="userSpaceOnUse">
<stop stop-color="#FF9400"/>
<stop offset="1" stop-color="#FFBB21"/>
</linearGradient>
<linearGradient id="paint1_linear_0_1136" x1="-10.124" y1="70.572" x2="37.188" y2="86.004" gradientUnits="userSpaceOnUse">
<stop stop-color="#1A1A1A"/>
<stop offset="1"/>
</linearGradient>
<linearGradient id="paint2_linear_0_1136" x1="-77.6813" y1="17.215" x2="-77.6983" y2="39.195" gradientUnits="userSpaceOnUse">
<stop stop-color="#00FFA3"/>
<stop offset="1" stop-color="#DC1FFF"/>
</linearGradient>
<linearGradient id="paint3_linear_0_1136" x1="-77.6813" y1="17.215" x2="-77.6983" y2="39.195" gradientUnits="userSpaceOnUse">
<stop stop-color="#00FFA3"/>
<stop offset="1" stop-color="#DC1FFF"/>
</linearGradient>
<linearGradient id="paint4_linear_0_1136" x1="-77.6838" y1="17.215" x2="-77.7008" y2="39.196" gradientUnits="userSpaceOnUse">
<stop stop-color="#00FFA3"/>
<stop offset="1" stop-color="#DC1FFF"/>
</linearGradient>
</defs>
</svg>
