<svg width="113" height="63" viewBox="0 0 113 63" fill="none" xmlns="http://www.w3.org/2000/svg">
<rect width="113" height="63" rx="10" fill="#3C3D3F" fill-opacity="0.12"/>
<path d="M62.8807 25.3438V23.4545H74.1378V25.3438H69.5994V38H67.4119V25.3438H62.8807ZM76.4254 38V23.4545H81.61C82.7369 23.4545 83.672 23.6487 84.4154 24.0369C85.1635 24.4252 85.7222 24.9626 86.0915 25.6491C86.4609 26.331 86.6455 27.1193 86.6455 28.0142C86.6455 28.9044 86.4585 29.688 86.0844 30.3651C85.7151 31.0374 85.1564 31.5606 84.4083 31.9347C83.6649 32.3087 82.7298 32.4957 81.6029 32.4957H77.6754V30.6065H81.404C82.1143 30.6065 82.6919 30.5047 83.137 30.3011C83.5868 30.0975 83.9159 29.8016 84.1242 29.4134C84.3326 29.0251 84.4367 28.5587 84.4367 28.0142C84.4367 27.465 84.3302 26.9891 84.1171 26.5866C83.9088 26.1842 83.5797 25.8764 83.1299 25.6634C82.6848 25.4455 82.1001 25.3366 81.3756 25.3366H78.62V38H76.4254ZM83.6058 31.4375L87.1995 38H84.6995L81.1768 31.4375H83.6058ZM90.643 23.4545L94.1231 29.1435H94.2367L97.7168 23.4545H100.259L95.7282 30.7273L100.288 38H97.731L94.2367 32.3892H94.1231L90.6288 38H88.0719L92.7097 30.7273L88.1004 23.4545H90.643Z" fill="white"/>
<path fill-rule="evenodd" clip-rule="evenodd" d="M32.9997 12.155L46.3197 19.845C46.9277 20.1961 47.4327 20.701 47.7838 21.3091C48.1348 21.9172 48.3197 22.6069 48.3197 23.309V38.691C48.3197 39.3932 48.1348 40.0829 47.7838 40.691C47.4327 41.299 46.9277 41.804 46.3197 42.155L32.9997 49.845C32.3916 50.1961 31.7018 50.3809 30.9997 50.3809C30.2975 50.3809 29.6078 50.1961 28.9997 49.845L15.6797 42.155C15.0716 41.804 14.5667 41.299 14.2156 40.691C13.8645 40.0829 13.6797 39.3932 13.6797 38.691V23.309C13.6797 22.6069 13.8645 21.9172 14.2156 21.3091C14.5667 20.701 15.0716 20.1961 15.6797 19.845L28.9997 12.155C29.6078 11.804 30.2975 11.6191 30.9997 11.6191C31.7018 11.6191 32.3916 11.804 32.9997 12.155Z" fill="url(#paint0_linear_0_1189)"/>
<path fill-rule="evenodd" clip-rule="evenodd" d="M35.1958 37.417C34.0198 37.842 32.9288 37.681 32.4438 37.617C32.2048 37.586 31.8008 37.512 31.3698 37.423L30.6548 40.09L29.0128 39.65L29.7158 37.026L28.4658 36.691L27.7628 39.315L26.1208 38.875L26.8238 36.251L23.5938 35.385L24.4598 33.503L25.4418 33.767C25.7718 33.855 25.9178 33.861 26.0908 33.768C26.2638 33.674 26.3478 33.483 26.3908 33.322L28.2108 26.528C28.3258 26.102 28.3218 25.978 28.1848 25.707C28.0478 25.435 27.5947 25.283 27.3358 25.214L26.3868 24.959L26.8438 23.255L30.0738 24.12L30.7788 21.488L32.4208 21.928L31.7158 24.56L32.9658 24.895L33.6718 22.263L35.3138 22.703L34.5998 25.367C35.8038 25.771 36.6528 26.248 37.2898 27.049C38.1148 28.084 37.7078 29.389 37.5998 29.698C37.4928 30.006 37.1928 30.575 36.8118 30.892C36.4308 31.21 35.6508 31.42 35.6508 31.42C35.6508 31.42 36.4028 31.803 36.8508 32.375C37.2968 32.947 37.5128 33.802 37.1968 34.885C36.8828 35.969 36.3698 36.991 35.1958 37.417ZM31.7878 31.717C31.1775 31.5214 30.5581 31.3555 29.9318 31.22L28.9878 34.742C28.9878 34.742 30.0708 35.057 30.8148 35.199C31.5578 35.34 32.3588 35.358 32.7908 35.251C33.2208 35.144 33.7608 34.943 33.9768 34.138C34.1928 33.332 33.7468 32.851 33.4798 32.615C33.2148 32.379 32.5868 31.989 31.7878 31.718V31.717ZM31.7348 29.952C32.3398 30.089 33.0138 30.122 33.5418 29.992C34.0698 29.862 34.4378 29.532 34.5828 28.93C34.7278 28.328 34.4648 27.714 33.8448 27.326C33.2248 26.938 32.7768 26.801 32.2648 26.656C31.7528 26.511 31.2188 26.416 31.2188 26.416L30.3688 29.586C30.3688 29.586 31.1308 29.814 31.7348 29.952Z" fill="white"/>
<path fill-rule="evenodd" clip-rule="evenodd" d="M32.9997 12.155L46.3197 19.845C46.9277 20.1961 47.4327 20.701 47.7838 21.3091C48.1348 21.9172 48.3197 22.6069 48.3197 23.309V38.691C48.3197 39.3932 48.1348 40.0829 47.7838 40.691C47.4327 41.299 46.9277 41.804 46.3197 42.155L32.9997 49.845C32.3916 50.1961 31.7018 50.3809 30.9997 50.3809C30.2975 50.3809 29.6078 50.1961 28.9997 49.845L15.6797 42.155C15.0716 41.804 14.5667 41.299 14.2156 40.691C13.8645 40.0829 13.6797 39.3932 13.6797 38.691V23.309C13.6797 22.6069 13.8645 21.9172 14.2156 21.3091C14.5667 20.701 15.0716 20.1961 15.6797 19.845L28.9997 12.155C29.6078 11.804 30.2975 11.6191 30.9997 11.6191C31.7018 11.6191 32.3916 11.804 32.9997 12.155Z" fill="url(#paint1_linear_0_1189)"/>
<path d="M39.285 27.74C38.555 27.229 37.775 26.685 37.012 26.145C36.9944 26.1314 36.976 26.1187 36.957 26.107C36.8672 26.0342 36.7658 25.9771 36.657 25.938L36.649 25.934C34.608 25.44 32.533 24.934 30.525 24.445L25.063 23.116C25.0151 23.1029 24.9671 23.0902 24.919 23.078C24.755 23.032 24.565 22.981 24.363 23.007C24.3073 23.0152 24.2541 23.0353 24.207 23.066L24.157 23.108C24.0929 23.1726 24.0437 23.2504 24.013 23.336L24 23.369V23.564L24.008 23.593C25.16 26.82 26.341 30.093 27.48 33.26C28.357 35.698 29.268 38.225 30.158 40.705C30.213 40.873 30.368 40.983 30.563 41H30.605C30.6896 41.0025 30.7734 40.9823 30.8476 40.9415C30.9218 40.9007 30.9837 40.8408 31.027 40.768L34.367 35.896L36.81 32.336C37.143 31.852 37.476 31.362 37.81 30.877C38.357 30.076 38.923 29.249 39.484 28.444L39.514 28.401V28.351C39.526 28.203 39.53 27.899 39.285 27.739V27.74ZM35.371 29.515C34.587 29.924 33.785 30.345 32.98 30.763L34.389 29.253C34.975 28.621 35.586 27.967 36.185 27.326L36.198 27.313C36.248 27.246 36.312 27.183 36.379 27.115C36.426 27.069 36.476 27.022 36.523 26.967C36.835 27.182 37.151 27.402 37.455 27.617C37.675 27.773 37.898 27.929 38.125 28.085C37.198 28.557 36.27 29.042 35.371 29.515ZM33.355 29.312C32.752 29.966 32.128 30.637 31.508 31.299C30.306 29.839 29.078 28.359 27.888 26.929L26.265 24.976L26.261 24.972C26.138 24.833 26.021 24.682 25.902 24.538C25.826 24.441 25.746 24.348 25.666 24.251C26.156 24.378 26.649 24.496 27.134 24.61C27.56 24.71 28.003 24.816 28.437 24.926L35.78 26.71C34.966 27.579 34.148 28.46 33.355 29.312ZM31.234 37.532C31.28 37.09 31.331 36.635 31.373 36.187L31.487 35.112C31.546 34.551 31.609 33.969 31.66 33.399L31.672 33.299C31.714 32.936 31.757 32.56 31.782 32.185C31.828 32.159 31.879 32.135 31.934 32.113C31.997 32.083 32.06 32.058 32.124 32.02C33.098 31.51 34.072 31 35.051 30.493C36.025 29.987 37.025 29.464 38.016 28.945C37.1167 30.2475 36.221 31.5525 35.329 32.86C34.574 33.96 33.798 35.095 33.026 36.213C32.722 36.66 32.406 37.115 32.106 37.554C31.769 38.044 31.423 38.545 31.086 39.047C31.128 38.541 31.179 38.031 31.234 37.533V37.532ZM25.354 25.246C25.299 25.095 25.24 24.939 25.189 24.791C26.329 26.166 27.475 27.549 28.593 28.891C29.171 29.587 29.749 30.278 30.327 30.978C30.441 31.109 30.555 31.248 30.664 31.383C30.808 31.556 30.951 31.738 31.107 31.911C31.057 32.345 31.014 32.784 30.967 33.205C30.938 33.501 30.909 33.796 30.875 34.095V34.1C30.862 34.29 30.837 34.48 30.816 34.665L30.719 35.505L30.715 35.534C30.639 36.386 30.546 37.246 30.457 38.081C30.42 38.427 30.386 38.781 30.347 39.136C30.327 39.072 30.301 39.009 30.28 38.95C30.2158 38.778 30.1541 38.6049 30.095 38.431L29.643 37.179C28.213 33.201 26.783 29.228 25.353 25.246" fill="white"/>
<defs>
<linearGradient id="paint0_linear_0_1189" x1="42.553" y1="38.5711" x2="16.9847" y2="23.6461" gradientUnits="userSpaceOnUse">
<stop stop-color="#FF9400"/>
<stop offset="1" stop-color="#FFBB21"/>
</linearGradient>
<linearGradient id="paint1_linear_0_1189" x1="20.118" y1="14.3261" x2="57.9748" y2="53.4174" gradientUnits="userSpaceOnUse">
<stop stop-color="#D11212"/>
<stop offset="1" stop-color="#7D110B"/>
</linearGradient>
</defs>
</svg>
