<svg width="113" height="63" viewBox="0 0 113 63" fill="none" xmlns="http://www.w3.org/2000/svg">
<rect width="113" height="63" rx="10" fill="#3C3D3F" fill-opacity="0.12"/>
<path fill-rule="evenodd" clip-rule="evenodd" d="M30.5 12.655L43.82 20.345C44.428 20.6961 44.933 21.201 45.2841 21.8091C45.6351 22.4172 45.82 23.1069 45.82 23.809V39.191C45.82 39.8932 45.6351 40.5829 45.2841 41.191C44.933 41.799 44.428 42.304 43.82 42.655L30.5 50.345C29.8919 50.6961 29.2021 50.8809 28.5 50.8809C27.7978 50.8809 27.1081 50.6961 26.5 50.345L13.18 42.655C12.5719 42.304 12.067 41.799 11.7159 41.191C11.3648 40.5829 11.18 39.8932 11.18 39.191V23.809C11.18 23.1069 11.3648 22.4172 11.7159 21.8091C12.067 21.201 12.5719 20.6961 13.18 20.345L26.5 12.655C27.1081 12.304 27.7978 12.1191 28.5 12.1191C29.2021 12.1191 29.8919 12.304 30.5 12.655Z" fill="url(#paint0_linear_203_2)"/>
<path d="M68.3193 23.7273H70.6311V33.7724C70.6311 34.8413 70.38 35.7884 69.8779 36.6136C69.3758 37.4339 68.6698 38.0803 67.76 38.5526C66.8502 39.0199 65.7838 39.2536 64.5608 39.2536C63.3427 39.2536 62.2788 39.0199 61.369 38.5526C60.4592 38.0803 59.7532 37.4339 59.2511 36.6136C58.749 35.7884 58.4979 34.8413 58.4979 33.7724V23.7273H60.8022V33.5859C60.8022 34.277 60.9539 34.891 61.2571 35.4279C61.5654 35.9648 62.0004 36.3874 62.5622 36.6957C63.124 36.9989 63.7902 37.1506 64.5608 37.1506C65.3363 37.1506 66.005 36.9989 66.5668 36.6957C67.1336 36.3874 67.5661 35.9648 67.8644 35.4279C68.1677 34.891 68.3193 34.277 68.3193 33.5859V23.7273ZM82.3112 27.7393C82.2317 27.0334 81.9035 26.4865 81.3268 26.0987C80.7501 25.706 80.0243 25.5096 79.1493 25.5096C78.5229 25.5096 77.981 25.609 77.5236 25.8079C77.0662 26.0018 76.7107 26.2702 76.4572 26.6133C76.2086 26.9513 76.0843 27.3366 76.0843 27.7692C76.0843 28.1321 76.1688 28.4453 76.3378 28.7088C76.5119 28.9723 76.7381 29.1935 77.0165 29.3725C77.2998 29.5465 77.6031 29.6932 77.9263 29.8125C78.2494 29.9268 78.5601 30.0213 78.8584 30.0959L80.3499 30.4837C80.8371 30.603 81.3368 30.7646 81.8489 30.9684C82.3609 31.1722 82.8357 31.4407 83.2732 31.7738C83.7107 32.1069 84.0637 32.5195 84.3322 33.0117C84.6056 33.5039 84.7423 34.093 84.7423 34.7791C84.7423 35.6442 84.5186 36.4123 84.0712 37.0835C83.6287 37.7546 82.9849 38.2841 82.1397 38.6719C81.2995 39.0597 80.2828 39.2536 79.0896 39.2536C77.9462 39.2536 76.9568 39.0721 76.1216 38.7092C75.2864 38.3462 74.6326 37.8317 74.1603 37.1655C73.688 36.4943 73.427 35.6989 73.3773 34.7791H75.6891C75.7338 35.331 75.9128 35.7908 76.226 36.1587C76.5442 36.5217 76.9493 36.7926 77.4415 36.9716C77.9387 37.1456 78.4831 37.2326 79.0747 37.2326C79.726 37.2326 80.3052 37.1307 80.8123 36.9268C81.3243 36.718 81.727 36.4297 82.0204 36.0618C82.3137 35.6889 82.4604 35.2539 82.4604 34.7567C82.4604 34.3043 82.3311 33.9339 82.0726 33.6456C81.819 33.3572 81.4735 33.1186 81.036 32.9297C80.6035 32.7408 80.1138 32.5742 79.5669 32.43L77.7622 31.9379C76.5392 31.6048 75.5697 31.1151 74.8538 30.4688C74.1429 29.8224 73.7874 28.9673 73.7874 27.9034C73.7874 27.0234 74.0261 26.2553 74.5033 25.5991C74.9806 24.9428 75.6269 24.4332 76.4422 24.0703C77.2576 23.7024 78.1773 23.5185 79.2015 23.5185C80.2356 23.5185 81.1479 23.6999 81.9383 24.0629C82.7338 24.4258 83.3602 24.9254 83.8176 25.5618C84.275 26.1932 84.5136 26.919 84.5335 27.7393H82.3112ZM92.4402 39H87.496V23.7273H92.5968C94.0933 23.7273 95.3784 24.033 96.4523 24.6445C97.5261 25.2511 98.3489 26.1236 98.9207 27.2621C99.4974 28.3956 99.7857 29.7553 99.7857 31.3413C99.7857 32.9322 99.4949 34.2994 98.9132 35.4428C98.3365 36.5863 97.5013 37.4663 96.4075 38.0827C95.3138 38.6942 93.9913 39 92.4402 39ZM89.8003 36.9865H92.3134C93.4768 36.9865 94.4438 36.7678 95.2144 36.3303C95.985 35.8878 96.5617 35.2489 96.9445 34.4137C97.3273 33.5735 97.5187 32.5494 97.5187 31.3413C97.5187 30.1431 97.3273 29.1264 96.9445 28.2912C96.5666 27.456 96.0024 26.8221 95.2516 26.3896C94.5009 25.957 93.5688 25.7408 92.4551 25.7408H89.8003V36.9865Z" fill="white"/>
<path d="M37.8138 38.3191H18.1881C17.4006 38.3191 16.7575 37.7028 16.7575 36.9481V26.0519C16.7575 25.2972 17.4006 24.6809 18.1881 24.6809H37.8138C38.6013 24.6809 39.2444 25.2972 39.2444 26.0519V36.9481C39.2444 37.7028 38.6013 38.3191 37.8138 38.3191V38.3191Z" fill="#FFC107"/>
<path d="M16.7556 26.9863H39.2462V29.8738H16.7556V26.9863Z" fill="#424242"/>
<path d="M37.4125 33.322H18.6006C18.4169 33.322 18.265 33.1783 18.265 33.0004V31.4892C18.265 31.3131 18.415 31.1676 18.6006 31.1676H37.4125C37.5963 31.1676 37.7481 31.3113 37.7481 31.4892V33.0004C37.7463 33.1765 37.5963 33.322 37.4125 33.322Z" fill="white"/>
<path d="M20.4962 32.6662C20.6012 32.4721 20.6294 32.2457 20.7231 32.0463C20.8169 31.8468 21.0212 31.6617 21.2462 31.6959C21.4544 31.7282 21.5837 31.9277 21.6606 32.1145C21.7675 32.3751 21.8256 32.6536 21.8331 32.9339C21.835 32.9914 21.8312 33.0543 21.7919 33.0992C21.7225 33.1747 21.58 33.137 21.5256 33.0507C21.4712 32.9645 21.4844 32.8548 21.5087 32.756C21.625 32.2978 22 31.9079 22.4669 31.7606C22.5156 31.7444 22.5662 31.7318 22.6169 31.7408C22.7256 31.7606 22.7856 31.8684 22.8344 31.9618C22.9487 32.1756 23.0875 32.3787 23.2469 32.5638C23.3106 32.6392 23.3837 32.7129 23.4812 32.7416C23.8019 32.8315 23.9875 32.3787 24.2969 32.2583C24.6681 32.1145 25.03 32.4901 25.4237 32.5602C25.9994 32.6626 26.305 32.2331 26.8094 32.1235C26.8769 32.1091 26.95 32.1002 27.0175 32.1181C27.1412 32.1523 27.2181 32.2655 27.2912 32.3679C27.4619 32.6087 27.7056 32.8459 28.0094 32.8477C28.2025 32.8495 28.3806 32.7542 28.5569 32.6734C29.1812 32.3877 29.9181 32.2691 30.5706 32.4883" stroke="#424242" stroke-miterlimit="10" stroke-linecap="round" stroke-linejoin="round"/>
<defs>
<linearGradient id="paint0_linear_203_2" x1="3.50002" y1="12.5" x2="56.753" y2="41.533" gradientUnits="userSpaceOnUse">
<stop stop-color="#209CE9"/>
<stop offset="1" stop-color="#0980CA"/>
</linearGradient>
</defs>
</svg>
