<svg width="128" height="63" viewBox="0 0 128 63" fill="none" xmlns="http://www.w3.org/2000/svg">
<rect width="128" height="63" rx="10" fill="#3C3D3F" fill-opacity="0.12"/>
<path d="M72.9517 23.4545H75.1534V33.0213C75.1534 34.0393 74.9143 34.9413 74.4361 35.7273C73.9579 36.5085 73.2855 37.1241 72.419 37.5739C71.5526 38.0189 70.5369 38.2415 69.3722 38.2415C68.2121 38.2415 67.1989 38.0189 66.3324 37.5739C65.4659 37.1241 64.7936 36.5085 64.3153 35.7273C63.8371 34.9413 63.598 34.0393 63.598 33.0213V23.4545H65.7926V32.8438C65.7926 33.5019 65.937 34.0866 66.2259 34.598C66.5194 35.1094 66.9337 35.5118 67.4688 35.8054C68.0038 36.0942 68.6383 36.2386 69.3722 36.2386C70.1108 36.2386 70.7476 36.0942 71.2827 35.8054C71.8224 35.5118 72.2344 35.1094 72.5185 34.598C72.8073 34.0866 72.9517 33.5019 72.9517 32.8438V23.4545ZM86.0773 27.2756C86.0016 26.6032 85.6891 26.0824 85.1398 25.7131C84.5906 25.339 83.8993 25.152 83.066 25.152C82.4694 25.152 81.9533 25.2467 81.5177 25.4361C81.0821 25.6207 80.7435 25.8764 80.5021 26.2031C80.2653 26.5251 80.1469 26.892 80.1469 27.304C80.1469 27.6496 80.2274 27.9479 80.3884 28.1989C80.5541 28.4498 80.7696 28.6605 81.0347 28.831C81.3046 28.9967 81.5934 29.1364 81.9012 29.25C82.209 29.3589 82.5049 29.4489 82.789 29.5199L84.2094 29.8892C84.6735 30.0028 85.1493 30.1567 85.637 30.3509C86.1247 30.545 86.5769 30.8007 86.9935 31.1179C87.4102 31.4351 87.7464 31.8281 88.0021 32.2969C88.2625 32.7656 88.3927 33.3267 88.3927 33.9801C88.3927 34.804 88.1796 35.5355 87.7535 36.1747C87.3321 36.8139 86.7189 37.3182 85.914 37.6875C85.1138 38.0568 84.1455 38.2415 83.0092 38.2415C81.9201 38.2415 80.9779 38.0687 80.1825 37.723C79.387 37.3774 78.7644 36.8873 78.3146 36.2528C77.8647 35.6136 77.6162 34.8561 77.5688 33.9801H79.7705C79.8131 34.5057 79.9836 34.9437 80.2819 35.294C80.5849 35.6397 80.9708 35.8977 81.4396 36.0682C81.913 36.2339 82.4315 36.3168 82.995 36.3168C83.6152 36.3168 84.1668 36.2197 84.6498 36.0256C85.1375 35.8267 85.521 35.5521 85.8004 35.2017C86.0797 34.8466 86.2194 34.4323 86.2194 33.9588C86.2194 33.5279 86.0963 33.1752 85.8501 32.9006C85.6086 32.6259 85.2795 32.3987 84.8629 32.2188C84.4509 32.0388 83.9845 31.8802 83.4637 31.7429L81.745 31.2741C80.5802 30.9569 79.6569 30.4905 78.9751 29.875C78.298 29.2595 77.9594 28.4451 77.9594 27.4318C77.9594 26.5937 78.1867 25.8622 78.6413 25.2372C79.0958 24.6122 79.7113 24.1269 80.4879 23.7812C81.2644 23.4309 82.1403 23.2557 83.1157 23.2557C84.1005 23.2557 84.9694 23.4285 85.7222 23.7741C86.4798 24.1198 87.0764 24.5956 87.512 25.2017C87.9476 25.803 88.1749 26.4943 88.1938 27.2756H86.0773ZM95.524 38H90.8152V23.4545H95.6732C97.0983 23.4545 98.3223 23.7457 99.345 24.3281C100.368 24.9058 101.151 25.7367 101.696 26.821C102.245 27.9006 102.52 29.1955 102.52 30.706C102.52 32.2211 102.243 33.5232 101.689 34.6122C101.14 35.7012 100.344 36.5393 99.3024 37.1264C98.2607 37.7088 97.0013 38 95.524 38ZM93.0098 36.0824H95.4033C96.5112 36.0824 97.4322 35.8741 98.1661 35.4574C98.9 35.036 99.4492 34.4276 99.8138 33.6321C100.178 32.8319 100.361 31.8565 100.361 30.706C100.361 29.5649 100.178 28.5966 99.8138 27.8011C99.4539 27.0057 98.9165 26.402 98.2016 25.9901C97.4866 25.5781 96.5988 25.3722 95.5382 25.3722H93.0098V36.0824ZM103.706 25.3438V23.4545H114.964V25.3438H110.425V38H108.238V25.3438H103.706Z" fill="white"/>
<path fill-rule="evenodd" clip-rule="evenodd" d="M32.9997 12.155L46.3197 19.845C46.9277 20.1961 47.4327 20.701 47.7838 21.3091C48.1348 21.9172 48.3197 22.6069 48.3197 23.309V38.691C48.3197 39.3932 48.1348 40.0829 47.7838 40.691C47.4327 41.299 46.9277 41.804 46.3197 42.155L32.9997 49.845C32.3916 50.1961 31.7018 50.3809 30.9997 50.3809C30.2975 50.3809 29.6078 50.1961 28.9997 49.845L15.6797 42.155C15.0716 41.804 14.5667 41.299 14.2156 40.691C13.8645 40.0829 13.6797 39.3932 13.6797 38.691V23.309C13.6797 22.6069 13.8645 21.9172 14.2156 21.3091C14.5667 20.701 15.0716 20.1961 15.6797 19.845L28.9997 12.155C29.6078 11.804 30.2975 11.6191 30.9997 11.6191C31.7018 11.6191 32.3916 11.804 32.9997 12.155Z" fill="url(#paint0_linear_0_1271)"/>
<path fill-rule="evenodd" clip-rule="evenodd" d="M35.1958 37.417C34.0198 37.842 32.9288 37.681 32.4438 37.617C32.2048 37.586 31.8008 37.512 31.3698 37.423L30.6548 40.09L29.0128 39.65L29.7158 37.026L28.4658 36.691L27.7628 39.315L26.1208 38.875L26.8238 36.251L23.5938 35.385L24.4598 33.503L25.4418 33.767C25.7718 33.855 25.9178 33.861 26.0908 33.768C26.2638 33.674 26.3478 33.483 26.3908 33.322L28.2108 26.528C28.3258 26.102 28.3218 25.978 28.1848 25.707C28.0478 25.435 27.5947 25.283 27.3358 25.214L26.3868 24.959L26.8438 23.255L30.0738 24.12L30.7788 21.488L32.4208 21.928L31.7158 24.56L32.9658 24.895L33.6718 22.263L35.3138 22.703L34.5998 25.367C35.8038 25.771 36.6528 26.248 37.2898 27.049C38.1148 28.084 37.7078 29.389 37.5998 29.698C37.4928 30.006 37.1928 30.575 36.8118 30.892C36.4308 31.21 35.6508 31.42 35.6508 31.42C35.6508 31.42 36.4028 31.803 36.8508 32.375C37.2968 32.947 37.5128 33.802 37.1968 34.885C36.8828 35.969 36.3698 36.991 35.1958 37.417ZM31.7878 31.717C31.1775 31.5214 30.5581 31.3555 29.9318 31.22L28.9878 34.742C28.9878 34.742 30.0708 35.057 30.8148 35.199C31.5578 35.34 32.3588 35.358 32.7908 35.251C33.2208 35.144 33.7608 34.943 33.9768 34.138C34.1928 33.332 33.7468 32.851 33.4798 32.615C33.2148 32.379 32.5868 31.989 31.7878 31.718V31.717ZM31.7348 29.952C32.3398 30.089 33.0138 30.122 33.5418 29.992C34.0698 29.862 34.4378 29.532 34.5828 28.93C34.7278 28.328 34.4648 27.714 33.8448 27.326C33.2248 26.938 32.7768 26.801 32.2648 26.656C31.7528 26.511 31.2188 26.416 31.2188 26.416L30.3688 29.586C30.3688 29.586 31.1308 29.814 31.7348 29.952Z" fill="white"/>
<path fill-rule="evenodd" clip-rule="evenodd" d="M32.9997 12.155L46.3197 19.845C46.9277 20.1961 47.4327 20.701 47.7838 21.3091C48.1348 21.9172 48.3197 22.6069 48.3197 23.309V38.691C48.3197 39.3932 48.1348 40.0829 47.7838 40.691C47.4327 41.299 46.9277 41.804 46.3197 42.155L32.9997 49.845C32.3916 50.1961 31.7018 50.3809 30.9997 50.3809C30.2975 50.3809 29.6078 50.1961 28.9997 49.845L15.6797 42.155C15.0716 41.804 14.5667 41.299 14.2156 40.691C13.8645 40.0829 13.6797 39.3932 13.6797 38.691V23.309C13.6797 22.6069 13.8645 21.9172 14.2156 21.3091C14.5667 20.701 15.0716 20.1961 15.6797 19.845L28.9997 12.155C29.6078 11.804 30.2975 11.6191 30.9997 11.6191C31.7018 11.6191 32.3916 11.804 32.9997 12.155Z" fill="url(#paint1_linear_0_1271)"/>
<path d="M32.5174 29.126V27.33H36.6274V24.59H25.4344V27.33H29.5464V29.126C26.2044 29.279 23.6914 29.941 23.6914 30.734C23.6914 31.527 26.2054 32.189 29.5464 32.343V38.102H32.5194V32.342C35.8544 32.189 38.3614 31.527 38.3614 30.735C38.3614 29.943 35.8544 29.282 32.5194 29.128L32.5174 29.126ZM32.5194 31.855V31.853C32.4354 31.859 32.0044 31.885 31.0444 31.885C30.2774 31.885 29.7374 31.863 29.5474 31.853V31.855C26.5954 31.725 24.3914 31.21 24.3914 30.595C24.3914 29.98 26.5954 29.467 29.5474 29.335V31.343C29.7404 31.356 30.2934 31.389 31.0574 31.389C31.9734 31.389 32.4344 31.351 32.5194 31.343V29.336C35.4654 29.467 37.6644 29.982 37.6644 30.595C37.6644 31.207 35.4644 31.722 32.5194 31.854" fill="white"/>
<defs>
<linearGradient id="paint0_linear_0_1271" x1="42.553" y1="38.5711" x2="16.9847" y2="23.6461" gradientUnits="userSpaceOnUse">
<stop stop-color="#FF9400"/>
<stop offset="1" stop-color="#FFBB21"/>
</linearGradient>
<linearGradient id="paint1_linear_0_1271" x1="13.6797" y1="11.6191" x2="52.9249" y2="46.3473" gradientUnits="userSpaceOnUse">
<stop stop-color="#53AE94"/>
<stop offset="1" stop-color="#2E9175"/>
</linearGradient>
</defs>
</svg>
