<svg width="1920" height="2474" viewBox="0 0 1920 2474" fill="none" xmlns="http://www.w3.org/2000/svg">
<path d="M112.304 0V2472.83M1920 144.64H0M225.962 0V2472.83M1920 291.023H0M338.266 0V2472.83M1920 435.664H0M451.924 0V2472.83M1920 582.047H0M564.228 0V2472.83M1920 726.687H0M677.886 0V2472.83M1920 873.07H0M790.19 0V2472.83M1920 1017.71H0M903.848 0V2472.83M1920 1164.09H0M1016.15 0V2472.83M1920 1308.73H0M1129.81 0V2472.83M1920 1455.12H0M1242.11 0V2472.83M1920 1599.76H0M1355.77 0V2472.83M1920 1746.14H0M1468.08 0V2472.83M1920 1890.78H0M1581.73 0V2472.83M1920 2037.16H0M1694.04 0V2472.83M1920 2181.8H0M1807.7 0V2472.83M1920 2328.19H0M0 0V2472.83H1920V0H0Z" stroke="url(#paint0_linear_1_4)" stroke-opacity="0.1" stroke-width="1.04304"/>
<defs>
<linearGradient id="paint0_linear_1_4" x1="960" y1="28.5" x2="1001.08" y2="1390.93" gradientUnits="userSpaceOnUse">
<stop stop-color="#E64BFF"/>
<stop offset="1" stop-color="#0085FF" stop-opacity="0"/>
</linearGradient>
</defs>
</svg>
