<svg width="113" height="63" viewBox="0 0 113 63" fill="none" xmlns="http://www.w3.org/2000/svg">
<rect width="113" height="63" rx="10" fill="#3C3D3F" fill-opacity="0.12"/>
<path d="M64.8693 23.4545L68.9176 35.3011H69.081L73.1293 23.4545H75.5014L70.267 38H67.7315L62.4972 23.4545H64.8693ZM77.4019 38V23.4545H86.5212V25.3438H79.5965V29.7756H86.0454V31.6577H79.5965V36.1108H86.6065V38H77.4019ZM88.5354 25.3438V23.4545H99.7925V25.3438H95.2541V38H93.0666V25.3438H88.5354Z" fill="white"/>
<path fill-rule="evenodd" clip-rule="evenodd" d="M32.9997 12.155L46.3197 19.845C46.9277 20.1961 47.4327 20.701 47.7838 21.3091C48.1348 21.9172 48.3197 22.6069 48.3197 23.309V38.691C48.3197 39.3932 48.1348 40.0829 47.7838 40.691C47.4327 41.299 46.9277 41.804 46.3197 42.155L32.9997 49.845C32.3916 50.1961 31.7018 50.3809 30.9997 50.3809C30.2975 50.3809 29.6078 50.1961 28.9997 49.845L15.6797 42.155C15.0716 41.804 14.5667 41.299 14.2156 40.691C13.8645 40.0829 13.6797 39.3932 13.6797 38.691V23.309C13.6797 22.6069 13.8645 21.9172 14.2156 21.3091C14.5667 20.701 15.0716 20.1961 15.6797 19.845L28.9997 12.155C29.6078 11.804 30.2975 11.6191 30.9997 11.6191C31.7018 11.6191 32.3916 11.804 32.9997 12.155Z" fill="url(#paint0_linear_0_1222)"/>
<path fill-rule="evenodd" clip-rule="evenodd" d="M35.1958 37.417C34.0198 37.842 32.9288 37.681 32.4438 37.617C32.2048 37.586 31.8008 37.512 31.3698 37.423L30.6548 40.09L29.0128 39.65L29.7158 37.026L28.4658 36.691L27.7628 39.315L26.1208 38.875L26.8238 36.251L23.5938 35.385L24.4598 33.503L25.4418 33.767C25.7718 33.855 25.9178 33.861 26.0908 33.768C26.2638 33.674 26.3478 33.483 26.3908 33.322L28.2108 26.528C28.3258 26.102 28.3218 25.978 28.1848 25.707C28.0478 25.435 27.5947 25.283 27.3358 25.214L26.3868 24.959L26.8438 23.255L30.0738 24.12L30.7788 21.488L32.4208 21.928L31.7158 24.56L32.9658 24.895L33.6718 22.263L35.3138 22.703L34.5998 25.367C35.8038 25.771 36.6528 26.248 37.2898 27.049C38.1148 28.084 37.7078 29.389 37.5998 29.698C37.4928 30.006 37.1928 30.575 36.8118 30.892C36.4308 31.21 35.6508 31.42 35.6508 31.42C35.6508 31.42 36.4028 31.803 36.8508 32.375C37.2968 32.947 37.5128 33.802 37.1968 34.885C36.8828 35.969 36.3698 36.991 35.1958 37.417ZM31.7878 31.717C31.1775 31.5214 30.5581 31.3555 29.9318 31.22L28.9878 34.742C28.9878 34.742 30.0708 35.057 30.8148 35.199C31.5578 35.34 32.3588 35.358 32.7908 35.251C33.2208 35.144 33.7608 34.943 33.9768 34.138C34.1928 33.332 33.7468 32.851 33.4798 32.615C33.2148 32.379 32.5868 31.989 31.7878 31.718V31.717ZM31.7348 29.952C32.3398 30.089 33.0138 30.122 33.5418 29.992C34.0698 29.862 34.4378 29.532 34.5828 28.93C34.7278 28.328 34.4648 27.714 33.8448 27.326C33.2248 26.938 32.7768 26.801 32.2648 26.656C31.7528 26.511 31.2188 26.416 31.2188 26.416L30.3688 29.586C30.3688 29.586 31.1308 29.814 31.7348 29.952Z" fill="white"/>
<path d="M32.9997 12.155L46.3197 19.845C46.9277 20.1961 47.4327 20.701 47.7838 21.3091C48.1348 21.9172 48.3197 22.6069 48.3197 23.309V38.691C48.3197 39.3932 48.1348 40.0829 47.7838 40.691C47.4327 41.299 46.9277 41.804 46.3197 42.155L32.9997 49.845C32.3916 50.1961 31.7018 50.3809 30.9997 50.3809C30.2975 50.3809 29.6078 50.1961 28.9997 49.845L15.6797 42.155C15.0716 41.804 14.5667 41.299 14.2156 40.691C13.8645 40.0829 13.6797 39.3932 13.6797 38.691V23.309C13.6797 22.6069 13.8645 21.9172 14.2156 21.3091C14.5667 20.701 15.0716 20.1961 15.6797 19.845L28.9997 12.155C29.6078 11.804 30.2975 11.6191 30.9997 11.6191C31.7018 11.6191 32.3916 11.804 32.9997 12.155Z" fill="url(#paint1_linear_0_1222)"/>
<path d="M29.7362 40.227L22.0382 24.546C22.0101 24.4882 21.9972 24.4242 22.0005 24.3601C22.0039 24.2959 22.0235 24.2337 22.0574 24.1791C22.0914 24.1246 22.1386 24.0796 22.1947 24.0482C22.2508 24.0169 22.3139 24.0003 22.3782 24H25.0452C25.1892 24 25.3232 24.081 25.3852 24.206L31.0082 35.582C31.5082 36.602 32.9592 36.602 33.4602 35.582L39.0642 24.215C39.0965 24.1528 39.1453 24.1006 39.2053 24.0643C39.2652 24.028 39.3341 24.0088 39.4042 24.009H39.7362C39.9332 24.009 40.0582 24.215 39.9682 24.385L32.1892 40.227C31.6882 41.247 30.2382 41.247 29.7362 40.227Z" fill="white"/>
<g opacity="0.1">
<path d="M29.7362 40.227L25.3862 24.215C25.3563 24.1545 25.3104 24.1033 25.2535 24.0669C25.1965 24.0306 25.1307 24.0106 25.0632 24.009H22.3882C22.3231 24.0076 22.2588 24.0229 22.2013 24.0535C22.1438 24.0842 22.0952 24.129 22.0601 24.1838C22.025 24.2386 22.0045 24.3016 22.0007 24.3666C21.9968 24.4316 22.0098 24.4964 22.0382 24.555L29.7382 40.227H29.7362Z" fill="#757575"/>
<path d="M31.0083 35.59L22.0383 24.546C21.9303 24.286 22.0913 24.027 22.3423 24H25.0543C25.121 24.0048 25.1855 24.0261 25.2419 24.062C25.2983 24.098 25.3448 24.1475 25.3773 24.206L31.0073 35.591L31.0083 35.59Z" fill="#8C8989"/>
</g>
<defs>
<linearGradient id="paint0_linear_0_1222" x1="42.553" y1="38.5711" x2="16.9847" y2="23.6461" gradientUnits="userSpaceOnUse">
<stop stop-color="#FF9400"/>
<stop offset="1" stop-color="#FFBB21"/>
</linearGradient>
<linearGradient id="paint1_linear_0_1222" x1="16.3421" y1="14.6209" x2="70.3149" y2="57.4963" gradientUnits="userSpaceOnUse">
<stop stop-color="#A377CF"/>
<stop offset="1" stop-color="#1CB6FB"/>
</linearGradient>
</defs>
</svg>
