<svg width="113" height="63" viewBox="0 0 113 63" fill="none" xmlns="http://www.w3.org/2000/svg">
<rect width="113" height="63" rx="10" fill="#3C3D3F" fill-opacity="0.12"/>
<path d="M63.125 23.4545L66.6051 29.1435H66.7188L70.1989 23.4545H72.7415L68.2102 30.7273L72.7699 38H70.2131L66.7188 32.3892H66.6051L63.1108 38H60.554L65.1918 30.7273L60.5824 23.4545H63.125ZM74.7183 38V23.4545H76.9129V36.1108H83.5038V38H74.7183ZM85.8074 23.4545H88.4707L93.1014 34.7614H93.2719L97.9026 23.4545H100.566V38H98.4778V27.4744H98.3429L94.0531 37.9787H92.3202L88.0304 27.4673H87.8955V38H85.8074V23.4545Z" fill="white"/>
<path fill-rule="evenodd" clip-rule="evenodd" d="M30.9997 12.155L44.3197 19.845C44.9277 20.1961 45.4327 20.701 45.7838 21.3091C46.1348 21.9172 46.3197 22.6069 46.3197 23.309V38.691C46.3197 39.3932 46.1348 40.0829 45.7838 40.691C45.4327 41.299 44.9277 41.804 44.3197 42.155L30.9997 49.845C30.3916 50.1961 29.7018 50.3809 28.9997 50.3809C28.2975 50.3809 27.6078 50.1961 26.9997 49.845L13.6797 42.155C13.0716 41.804 12.5667 41.299 12.2156 40.691C11.8645 40.0829 11.6797 39.3932 11.6797 38.691V23.309C11.6797 22.6069 11.8645 21.9172 12.2156 21.3091C12.5667 20.701 13.0716 20.1961 13.6797 19.845L26.9997 12.155C27.6078 11.804 28.2975 11.6191 28.9997 11.6191C29.7018 11.6191 30.3916 11.804 30.9997 12.155Z" fill="url(#paint0_linear_0_1237)"/>
<path fill-rule="evenodd" clip-rule="evenodd" d="M33.1958 37.417C32.0198 37.842 30.9288 37.681 30.4438 37.617C30.2048 37.586 29.8008 37.512 29.3698 37.423L28.6548 40.09L27.0128 39.65L27.7158 37.026L26.4658 36.691L25.7628 39.315L24.1208 38.875L24.8238 36.251L21.5938 35.385L22.4598 33.503L23.4418 33.767C23.7718 33.855 23.9178 33.861 24.0908 33.768C24.2638 33.674 24.3478 33.483 24.3908 33.322L26.2108 26.528C26.3258 26.102 26.3218 25.978 26.1848 25.707C26.0478 25.435 25.5947 25.283 25.3358 25.214L24.3868 24.959L24.8438 23.255L28.0738 24.12L28.7788 21.488L30.4208 21.928L29.7158 24.56L30.9658 24.895L31.6718 22.263L33.3138 22.703L32.5998 25.367C33.8038 25.771 34.6528 26.248 35.2898 27.049C36.1148 28.084 35.7078 29.389 35.5998 29.698C35.4928 30.006 35.1928 30.575 34.8118 30.892C34.4308 31.21 33.6508 31.42 33.6508 31.42C33.6508 31.42 34.4028 31.803 34.8508 32.375C35.2968 32.947 35.5128 33.802 35.1968 34.885C34.8828 35.969 34.3698 36.991 33.1958 37.417ZM29.7878 31.717C29.1775 31.5214 28.5581 31.3555 27.9318 31.22L26.9878 34.742C26.9878 34.742 28.0708 35.057 28.8148 35.199C29.5578 35.34 30.3588 35.358 30.7908 35.251C31.2208 35.144 31.7608 34.943 31.9768 34.138C32.1928 33.332 31.7468 32.851 31.4798 32.615C31.2148 32.379 30.5868 31.989 29.7878 31.718V31.717ZM29.7348 29.952C30.3398 30.089 31.0138 30.122 31.5418 29.992C32.0698 29.862 32.4378 29.532 32.5828 28.93C32.7278 28.328 32.4648 27.714 31.8448 27.326C31.2248 26.938 30.7768 26.801 30.2648 26.656C29.7528 26.511 29.2188 26.416 29.2188 26.416L28.3688 29.586C28.3688 29.586 29.1308 29.814 29.7348 29.952Z" fill="white"/>
<path fill-rule="evenodd" clip-rule="evenodd" d="M30.9997 12.155L44.3197 19.845C44.9277 20.1961 45.4327 20.701 45.7838 21.3091C46.1348 21.9172 46.3197 22.6069 46.3197 23.309V38.691C46.3197 39.3932 46.1348 40.0829 45.7838 40.691C45.4327 41.299 44.9277 41.804 44.3197 42.155L30.9997 49.845C30.3916 50.1961 29.7018 50.3809 28.9997 50.3809C28.2975 50.3809 27.6078 50.1961 26.9997 49.845L13.6797 42.155C13.0716 41.804 12.5667 41.299 12.2156 40.691C11.8645 40.0829 11.6797 39.3932 11.6797 38.691V23.309C11.6797 22.6069 11.8645 21.9172 12.2156 21.3091C12.5667 20.701 13.0716 20.1961 13.6797 19.845L26.9997 12.155C27.6078 11.804 28.2975 11.6191 28.9997 11.6191C29.7018 11.6191 30.3916 11.804 30.9997 12.155Z" fill="url(#paint1_linear_0_1237)"/>
<path fill-rule="evenodd" clip-rule="evenodd" d="M36.6293 24.3571L39.6363 22.8251V24.6611L22.1033 33.5951L22.1043 33.5971L20.6413 34.3431L20.6393 34.3411L18.3633 35.5011V33.6641L19.1363 33.2701C19.7253 32.9701 20.0753 32.3461 20.0263 31.6881C19.9143 30.2573 20.1482 28.8205 20.7083 27.4991C21.1597 26.4301 21.8141 25.4589 22.6353 24.6391C23.4699 23.8018 24.4618 23.1378 25.554 22.6852C26.6462 22.2327 27.8171 22.0005 28.9993 22.0021C30.8992 21.9978 32.751 22.5989 34.2863 23.7181L34.0673 23.8291L32.6013 24.5761C31.4845 23.9493 30.2229 23.6262 28.9423 23.6391C27.0089 23.6527 25.1587 24.4273 23.7923 25.7951C23.1064 26.4775 22.5627 27.2892 22.1926 28.1831C21.8225 29.0771 21.6334 30.0356 21.6363 31.0031C21.6363 31.3271 21.6563 31.6481 21.6983 31.9651L36.6283 24.3571H36.6293ZM39.6363 26.4971V28.3341L38.8623 28.7291C38.2733 29.0291 37.9233 29.6531 37.9733 30.3111C38.0865 31.7438 37.853 33.1828 37.2923 34.5061C36.8403 35.5752 36.1852 36.5465 35.3633 37.3661C34.5285 38.2032 33.5365 38.867 32.4444 39.3196C31.3522 39.7721 30.1815 40.0044 28.9993 40.0031C27.0973 40.007 25.2436 39.4045 23.7073 38.2831L25.2973 37.4731L25.3913 37.4261C26.508 38.0545 27.77 38.379 29.0513 38.3671C30.9865 38.3544 32.8387 37.5794 34.2063 36.2101C34.8922 35.528 35.436 34.7167 35.8062 33.8231C36.1765 32.9295 36.3658 31.9714 36.3633 31.0041C36.3633 30.6771 36.3423 30.3541 36.3003 30.0351L18.3633 39.1751V37.3381L39.6363 26.4981V26.4971Z" fill="black"/>
<defs>
<linearGradient id="paint0_linear_0_1237" x1="40.553" y1="38.5711" x2="14.9847" y2="23.6461" gradientUnits="userSpaceOnUse">
<stop stop-color="#FF9400"/>
<stop offset="1" stop-color="#FFBB21"/>
</linearGradient>
<linearGradient id="paint1_linear_0_1237" x1="18.272" y1="-14.228" x2="60.2972" y2="42.7293" gradientUnits="userSpaceOnUse">
<stop stop-color="white"/>
<stop offset="1" stop-color="#EAEAEA"/>
</linearGradient>
</defs>
</svg>
