<svg width="117" height="63" viewBox="0 0 117 63" fill="none" xmlns="http://www.w3.org/2000/svg">
<rect width="117" height="63" rx="10" fill="#3C3D3F" fill-opacity="0.12"/>
<path d="M65.125 23.4545L68.6051 29.1435H68.7188L72.1989 23.4545H74.7415L70.2102 30.7273L74.7699 38H72.2131L68.7188 32.3892H68.6051L65.1108 38H62.554L67.1918 30.7273L62.5824 23.4545H65.125ZM76.7183 23.4545H79.3817L84.0124 34.7614H84.1828L88.8135 23.4545H91.4768V38H89.3888V27.4744H89.2538L84.9641 37.9787H83.2311L78.9413 27.4673H78.8064V38H76.7183V23.4545ZM94.4675 38V23.4545H99.6522C100.779 23.4545 101.714 23.6487 102.458 24.0369C103.206 24.4252 103.764 24.9626 104.134 25.6491C104.503 26.331 104.688 27.1193 104.688 28.0142C104.688 28.9044 104.501 29.688 104.127 30.3651C103.757 31.0374 103.199 31.5606 102.45 31.9347C101.707 32.3087 100.772 32.4957 99.6451 32.4957H95.7175V30.6065H99.4462C100.156 30.6065 100.734 30.5047 101.179 30.3011C101.629 30.0975 101.958 29.8016 102.166 29.4134C102.375 29.0251 102.479 28.5587 102.479 28.0142C102.479 27.465 102.372 26.9891 102.159 26.5866C101.951 26.1842 101.622 25.8764 101.172 25.6634C100.727 25.4455 100.142 25.3366 99.4178 25.3366H96.6621V38H94.4675ZM101.648 31.4375L105.242 38H102.742L99.219 31.4375H101.648Z" fill="white"/>
<path fill-rule="evenodd" clip-rule="evenodd" d="M32.9997 12.155L46.3197 19.845C46.9277 20.1961 47.4327 20.701 47.7838 21.3091C48.1348 21.9172 48.3197 22.6069 48.3197 23.309V38.691C48.3197 39.3932 48.1348 40.0829 47.7838 40.691C47.4327 41.299 46.9277 41.804 46.3197 42.155L32.9997 49.845C32.3916 50.1961 31.7018 50.3809 30.9997 50.3809C30.2975 50.3809 29.6078 50.1961 28.9997 49.845L15.6797 42.155C15.0716 41.804 14.5667 41.299 14.2156 40.691C13.8645 40.0829 13.6797 39.3932 13.6797 38.691V23.309C13.6797 22.6069 13.8645 21.9172 14.2156 21.3091C14.5667 20.701 15.0716 20.1961 15.6797 19.845L28.9997 12.155C29.6078 11.804 30.2975 11.6191 30.9997 11.6191C31.7018 11.6191 32.3916 11.804 32.9997 12.155Z" fill="url(#paint0_linear_112_106)"/>
<path d="M24 26L26.5 28.5L31 33L38 26V35H41L40 37H38H35.5V31.5L31 36L26.5 31.5V37H24H22L21 35H24V26Z" fill="white"/>
<defs>
<linearGradient id="paint0_linear_112_106" x1="42.553" y1="38.5711" x2="16.9847" y2="23.6461" gradientUnits="userSpaceOnUse">
<stop stop-color="#F26822"/>
<stop offset="1" stop-color="#F98D56"/>
</linearGradient>
</defs>
</svg>
