<svg width="113" height="63" viewBox="0 0 113 63" fill="none" xmlns="http://www.w3.org/2000/svg">
<rect width="113" height="63" rx="10" fill="#3C3D3F" fill-opacity="0.12"/>
<path d="M65.125 23.4545L68.6051 29.1435H68.7188L72.1989 23.4545H74.7415L70.2102 30.7273L74.7699 38H72.2131L68.7188 32.3892H68.6051L65.1108 38H62.554L67.1918 30.7273L62.5824 23.4545H65.125ZM76.7183 38V23.4545H81.903C83.0299 23.4545 83.965 23.6487 84.7084 24.0369C85.4565 24.4252 86.0152 24.9626 86.3845 25.6491C86.7538 26.331 86.9385 27.1193 86.9385 28.0142C86.9385 28.9044 86.7515 29.688 86.3774 30.3651C86.0081 31.0374 85.4494 31.5606 84.7013 31.9347C83.9579 32.3087 83.0228 32.4957 81.8959 32.4957H77.9683V30.6065H81.697C82.4072 30.6065 82.9849 30.5047 83.43 30.3011C83.8798 30.0975 84.2089 29.8016 84.4172 29.4134C84.6255 29.0251 84.7297 28.5587 84.7297 28.0142C84.7297 27.465 84.6232 26.9891 84.4101 26.5866C84.2018 26.1842 83.8727 25.8764 83.4229 25.6634C82.9778 25.4455 82.393 25.3366 81.6686 25.3366H78.9129V38H76.7183ZM83.8987 31.4375L87.4925 38H84.9925L81.4697 31.4375H83.8987ZM89.4089 38V23.4545H94.5936C95.7252 23.4545 96.6627 23.6605 97.4061 24.0724C98.1495 24.4844 98.7058 25.0478 99.0751 25.7628C99.4445 26.473 99.6291 27.2732 99.6291 28.1634C99.6291 29.0582 99.4421 29.8632 99.068 30.5781C98.6987 31.2884 98.14 31.8518 97.3919 32.2685C96.6485 32.6804 95.7134 32.8864 94.5865 32.8864H91.0212V31.0256H94.3876C95.1026 31.0256 95.6826 30.9025 96.1277 30.6562C96.5728 30.4053 96.8995 30.0644 97.1078 29.6335C97.3161 29.2027 97.4203 28.7126 97.4203 28.1634C97.4203 27.6141 97.3161 27.1264 97.1078 26.7003C96.8995 26.2741 96.5704 25.9403 96.1206 25.6989C95.6755 25.4574 95.0884 25.3366 94.3592 25.3366H91.6036V38H89.4089Z" fill="white"/>
<path fill-rule="evenodd" clip-rule="evenodd" d="M32.9997 12.155L46.3197 19.845C46.9277 20.1961 47.4327 20.701 47.7838 21.3091C48.1348 21.9172 48.3197 22.6069 48.3197 23.309V38.691C48.3197 39.3932 48.1348 40.0829 47.7838 40.691C47.4327 41.299 46.9277 41.804 46.3197 42.155L32.9997 49.845C32.3916 50.1961 31.7018 50.3809 30.9997 50.3809C30.2975 50.3809 29.6078 50.1961 28.9997 49.845L15.6797 42.155C15.0716 41.804 14.5667 41.299 14.2156 40.691C13.8645 40.0829 13.6797 39.3932 13.6797 38.691V23.309C13.6797 22.6069 13.8645 21.9172 14.2156 21.3091C14.5667 20.701 15.0716 20.1961 15.6797 19.845L28.9997 12.155C29.6078 11.804 30.2975 11.6191 30.9997 11.6191C31.7018 11.6191 32.3916 11.804 32.9997 12.155Z" fill="url(#paint0_linear_0_1149)"/>
<path fill-rule="evenodd" clip-rule="evenodd" d="M35.1958 37.417C34.0198 37.842 32.9288 37.681 32.4438 37.617C32.2048 37.586 31.8008 37.512 31.3698 37.423L30.6548 40.09L29.0128 39.65L29.7158 37.026L28.4658 36.691L27.7628 39.315L26.1208 38.875L26.8238 36.251L23.5938 35.385L24.4598 33.503L25.4418 33.767C25.7718 33.855 25.9178 33.861 26.0908 33.768C26.2638 33.674 26.3478 33.483 26.3908 33.322L28.2108 26.528C28.3258 26.102 28.3218 25.978 28.1848 25.707C28.0478 25.435 27.5947 25.283 27.3358 25.214L26.3868 24.959L26.8438 23.255L30.0738 24.12L30.7788 21.488L32.4208 21.928L31.7158 24.56L32.9658 24.895L33.6718 22.263L35.3138 22.703L34.5998 25.367C35.8038 25.771 36.6528 26.248 37.2898 27.049C38.1148 28.084 37.7078 29.389 37.5998 29.698C37.4928 30.006 37.1928 30.575 36.8118 30.892C36.4308 31.21 35.6508 31.42 35.6508 31.42C35.6508 31.42 36.4028 31.803 36.8508 32.375C37.2968 32.947 37.5128 33.802 37.1968 34.885C36.8828 35.969 36.3698 36.991 35.1958 37.417ZM31.7878 31.717C31.1775 31.5214 30.5581 31.3555 29.9318 31.22L28.9878 34.742C28.9878 34.742 30.0708 35.057 30.8148 35.199C31.5578 35.34 32.3588 35.358 32.7908 35.251C33.2208 35.144 33.7608 34.943 33.9768 34.138C34.1928 33.332 33.7468 32.851 33.4798 32.615C33.2148 32.379 32.5868 31.989 31.7878 31.718V31.717ZM31.7348 29.952C32.3398 30.089 33.0138 30.122 33.5418 29.992C34.0698 29.862 34.4378 29.532 34.5828 28.93C34.7278 28.328 34.4648 27.714 33.8448 27.326C33.2248 26.938 32.7768 26.801 32.2648 26.656C31.7528 26.511 31.2188 26.416 31.2188 26.416L30.3688 29.586C30.3688 29.586 31.1308 29.814 31.7348 29.952Z" fill="white"/>
<path fill-rule="evenodd" clip-rule="evenodd" d="M32.9997 12.155L46.3197 19.845C46.9277 20.1961 47.4327 20.701 47.7838 21.3091C48.1348 21.9172 48.3197 22.6069 48.3197 23.309V38.691C48.3197 39.3932 48.1348 40.0829 47.7838 40.691C47.4327 41.299 46.9277 41.804 46.3197 42.155L32.9997 49.845C32.3916 50.1961 31.7018 50.3809 30.9997 50.3809C30.2975 50.3809 29.6078 50.1961 28.9997 49.845L15.6797 42.155C15.0716 41.804 14.5667 41.299 14.2156 40.691C13.8645 40.0829 13.6797 39.3932 13.6797 38.691V23.309C13.6797 22.6069 13.8645 21.9172 14.2156 21.3091C14.5667 20.701 15.0716 20.1961 15.6797 19.845L28.9997 12.155C29.6078 11.804 30.2975 11.6191 30.9997 11.6191C31.7018 11.6191 32.3916 11.804 32.9997 12.155Z" fill="url(#paint1_linear_0_1149)"/>
<path d="M37.3828 23.2051H39.9868L34.5698 28.8231C34.1125 29.3049 33.562 29.6886 32.9517 29.9508C32.3413 30.2131 31.684 30.3483 31.0198 30.3483C30.3555 30.3483 29.6982 30.2131 29.0879 29.9508C28.4776 29.6886 27.927 29.3049 27.4698 28.8231L22.0538 23.2051H24.6568L28.7718 27.4731C29.0614 27.7782 29.4101 28.0212 29.7967 28.1873C30.1832 28.3534 30.5996 28.439 31.0203 28.439C31.441 28.439 31.8573 28.3534 32.2439 28.1873C32.6304 28.0212 32.9791 27.7782 33.2688 27.4731L37.3828 23.2051ZM24.6238 38.8281H22.0198L27.4698 33.1751C27.927 32.6932 28.4776 32.3095 29.0879 32.0473C29.6982 31.7851 30.3555 31.6499 31.0198 31.6499C31.684 31.6499 32.3413 31.7851 32.9517 32.0473C33.562 32.3095 34.1125 32.6932 34.5698 33.1751L40.0198 38.8281H37.4168L33.2688 34.5251C32.9791 34.2199 32.6304 33.9769 32.2439 33.8108C31.8573 33.6448 31.441 33.5591 31.0203 33.5591C30.5996 33.5591 30.1832 33.6448 29.7967 33.8108C29.4101 33.9769 29.0614 34.2199 28.7718 34.5251L24.6238 38.8281Z" fill="white"/>
<defs>
<linearGradient id="paint0_linear_0_1149" x1="42.553" y1="38.5711" x2="16.9847" y2="23.6461" gradientUnits="userSpaceOnUse">
<stop stop-color="#FF9400"/>
<stop offset="1" stop-color="#FFBB21"/>
</linearGradient>
<linearGradient id="paint1_linear_0_1149" x1="13.6797" y1="11.6191" x2="55.1882" y2="62.8319" gradientUnits="userSpaceOnUse">
<stop stop-color="#11AAE2"/>
<stop offset="1" stop-color="#016197"/>
</linearGradient>
</defs>
</svg>
